<?xml version="1.0" encoding="utf-8" standalone="no"?>
<!DOCTYPE svg PUBLIC "-//W3C//DTD SVG 1.1//EN"
  "http://www.w3.org/Graphics/SVG/1.1/DTD/svg11.dtd">
<svg xmlns:xlink="http://www.w3.org/1999/xlink" width="1512pt" height="504pt" viewBox="0 0 1512 504" xmlns="http://www.w3.org/2000/svg" version="1.1">
 <metadata>
  <rdf:RDF xmlns:dc="http://purl.org/dc/elements/1.1/" xmlns:cc="http://creativecommons.org/ns#" xmlns:rdf="http://www.w3.org/1999/02/22-rdf-syntax-ns#">
   <cc:Work>
    <dc:type rdf:resource="http://purl.org/dc/dcmitype/StillImage"/>
    <dc:date>2025-05-25T18:14:33.658040</dc:date>
    <dc:format>image/svg+xml</dc:format>
    <dc:creator>
     <cc:Agent>
      <dc:title>Matplotlib v3.10.3, https://matplotlib.org/</dc:title>
     </cc:Agent>
    </dc:creator>
   </cc:Work>
  </rdf:RDF>
 </metadata>
 <defs>
  <style type="text/css">*{stroke-linejoin: round; stroke-linecap: butt}</style>
 </defs>
 <g id="figure_1">
  <g id="patch_1">
   <path d="M 0 504 
L 1512 504 
L 1512 0 
L 0 0 
z
" style="fill: #ffffff"/>
  </g>
  <g id="axes_1">
   <g id="patch_2">
    <path d="M 226.866271 120.753441 
Q 338.301451 280.86897 447.820638 438.231506 
" clip-path="url(#p6dda950c45)" style="fill: none; stroke: #808080; stroke-width: 3; stroke-linecap: round"/>
    <path d="M 446.855556 431.593086 
L 447.820638 438.231506 
L 441.930853 435.020519 
z
" clip-path="url(#p6dda950c45)" style="fill: #808080; stroke: #808080; stroke-width: 3; stroke-linecap: round"/>
   </g>
   <g id="patch_3">
    <path d="M 220.596647 122.809512 
Q 224.549352 271.487709 228.460459 418.601212 
" clip-path="url(#p6dda950c45)" style="fill: none; stroke: #808080; stroke-width: 1.4; stroke-linecap: round"/>
    <path d="M 231.299942 412.523602 
L 228.460459 418.601212 
L 225.302061 412.68306 
z
" clip-path="url(#p6dda950c45)" style="fill: #808080; stroke: #808080; stroke-width: 1.4; stroke-linecap: round"/>
   </g>
   <g id="patch_4">
    <path d="M 231.5716 109.009437 
Q 328.387807 89.303819 422.355528 70.177971 
" clip-path="url(#p6dda950c45)" style="fill: none; stroke: #808080; stroke-width: 2.6; stroke-linecap: round"/>
    <path d="M 415.877736 68.434927 
L 422.355528 70.177971 
L 417.074418 74.314379 
z
" clip-path="url(#p6dda950c45)" style="fill: #808080; stroke: #808080; stroke-width: 2.6; stroke-linecap: round"/>
   </g>
   <g id="patch_5">
    <path d="M 212.984852 120.196457 
Q 137.335246 212.258122 61.969567 303.974264 
" clip-path="url(#p6dda950c45)" style="fill: none; stroke: #808080; stroke-width: 0.4; stroke-linecap: round"/>
    <path d="M 68.09667 301.243218 
L 61.969567 303.974264 
L 63.460992 297.433954 
z
" clip-path="url(#p6dda950c45)" style="fill: #808080; stroke: #808080; stroke-width: 0.4; stroke-linecap: round"/>
   </g>
   <g id="patch_6">
    <path d="M 449.735961 440.983536 
Q 338.301749 280.869398 227.378468 121.489392 
" clip-path="url(#p6dda950c45)" style="fill: none; stroke: #808080; stroke-width: 0.8; stroke-linecap: round"/>
    <path d="M 228.34355 128.127812 
L 227.378468 121.489392 
L 233.268253 124.700379 
z
" clip-path="url(#p6dda950c45)" style="fill: #808080; stroke: #808080; stroke-width: 0.8; stroke-linecap: round"/>
   </g>
   <g id="patch_7">
    <path d="M 443.649241 451.4935 
Q 342.545209 442.699741 243.446069 434.080362 
" clip-path="url(#p6dda950c45)" style="fill: none; stroke: #808080; stroke-width: 1.8; stroke-linecap: round"/>
    <path d="M 249.163551 437.58898 
L 243.446069 434.080362 
L 249.683452 431.611547 
z
" clip-path="url(#p6dda950c45)" style="fill: #808080; stroke: #808080; stroke-width: 1.8; stroke-linecap: round"/>
   </g>
   <g id="patch_8">
    <path d="M 457.111363 438.441512 
Q 447.007388 258.529223 436.915951 78.840189 
" clip-path="url(#p6dda950c45)" style="fill: none; stroke: #808080; stroke-width: 0.2; stroke-linecap: round"/>
    <path d="M 434.257104 84.998966 
L 436.915951 78.840189 
L 440.247664 84.662533 
z
" clip-path="url(#p6dda950c45)" style="fill: #808080; stroke: #808080; stroke-width: 0.2; stroke-linecap: round"/>
   </g>
   <g id="patch_9">
    <path d="M 218.345678 425.741085 
Q 141.30261 373.837837 65.372233 322.684201 
" clip-path="url(#p6dda950c45)" style="fill: none; stroke: #808080; stroke-width: 1.2; stroke-linecap: round"/>
    <path d="M 68.672162 328.524618 
L 65.372233 322.684201 
L 72.024524 323.548508 
z
" clip-path="url(#p6dda950c45)" style="fill: #808080; stroke: #808080; stroke-width: 1.2; stroke-linecap: round"/>
   </g>
   <g id="patch_10">
    <path d="M 235.081491 421.810087 
Q 332.889253 249.48768 429.482877 79.3044 
" clip-path="url(#p6dda950c45)" style="fill: none; stroke: #808080; stroke-width: 2.2; stroke-linecap: round"/>
    <path d="M 423.912135 83.041622 
L 429.482877 79.3044 
L 429.130209 86.003328 
z
" clip-path="url(#p6dda950c45)" style="fill: #808080; stroke: #808080; stroke-width: 2.2; stroke-linecap: round"/>
   </g>
   <g id="patch_11">
    <path d="M 241.439193 433.905809 
Q 342.543482 442.699591 441.197346 451.280241 
" clip-path="url(#p6dda950c45)" style="fill: none; stroke: #808080; stroke-width: 2.2; stroke-linecap: round"/>
    <path d="M 435.479864 447.771623 
L 441.197346 451.280241 
L 434.959963 453.749056 
z
" clip-path="url(#p6dda950c45)" style="fill: #808080; stroke: #808080; stroke-width: 2.2; stroke-linecap: round"/>
   </g>
   <g id="patch_12">
    <path d="M 228.502104 420.167649 
Q 224.549376 271.488618 220.608534 123.256642 
" clip-path="url(#p6dda950c45)" style="fill: none; stroke: #808080; stroke-width: 0.4; stroke-linecap: round"/>
    <path d="M 217.769051 129.334252 
L 220.608534 123.256642 
L 223.766932 129.174794 
z
" clip-path="url(#p6dda950c45)" style="fill: #808080; stroke: #808080; stroke-width: 0.4; stroke-linecap: round"/>
   </g>
   <g id="patch_13">
    <path d="M 65.804009 318.817063 
Q 255.084637 383.461984 437.593873 445.794275 
" clip-path="url(#p6dda950c45)" style="fill: none; stroke: #808080; stroke-width: 6.4; stroke-linecap: round"/>
    <path d="M 432.885488 441.016083 
L 437.593873 445.794275 
L 430.946289 446.694068 
z
" clip-path="url(#p6dda950c45)" style="fill: #808080; stroke: #808080; stroke-width: 6.4; stroke-linecap: round"/>
   </g>
   <g id="patch_14">
    <path d="M 61.682572 304.323522 
Q 137.333442 212.260317 212.132535 121.233682 
" clip-path="url(#p6dda950c45)" style="fill: none; stroke: #808080; stroke-width: 1.2; stroke-linecap: round"/>
    <path d="M 206.005433 123.964728 
L 212.132535 121.233682 
L 210.64111 127.773992 
z
" clip-path="url(#p6dda950c45)" style="fill: #808080; stroke: #808080; stroke-width: 1.2; stroke-linecap: round"/>
   </g>
   <g id="patch_15">
    <path d="M 64.255288 321.931724 
Q 141.301821 373.837306 215.566624 423.86886 
" clip-path="url(#p6dda950c45)" style="fill: none; stroke: #808080; stroke-width: 3; stroke-linecap: round"/>
    <path d="M 212.266695 418.028443 
L 215.566624 423.86886 
L 208.914333 423.004553 
z
" clip-path="url(#p6dda950c45)" style="fill: #808080; stroke: #808080; stroke-width: 3; stroke-linecap: round"/>
   </g>
   <g id="patch_16">
    <path d="M 64.398087 307.369487 
Q 245.591938 190.418546 426.410047 73.710128 
" clip-path="url(#p6dda950c45)" style="fill: none; stroke: #808080; stroke-width: 0.4; stroke-linecap: round"/>
    <path d="M 419.742034 74.443342 
L 426.410047 73.710128 
L 422.99581 79.484466 
z
" clip-path="url(#p6dda950c45)" style="fill: #808080; stroke: #808080; stroke-width: 0.4; stroke-linecap: round"/>
   </g>
   <g id="patch_17">
    <path d="M 436.903683 78.62176 
Q 447.007404 258.529515 456.985744 436.204719 
" clip-path="url(#p6dda950c45)" style="fill: none; stroke: #808080; stroke-width: 2; stroke-linecap: round"/>
    <path d="M 459.644591 430.045942 
L 456.985744 436.204719 
L 453.65403 430.382375 
z
" clip-path="url(#p6dda950c45)" style="fill: #808080; stroke: #808080; stroke-width: 2; stroke-linecap: round"/>
   </g>
   <g id="patch_18">
    <path d="M 425.207132 69.597566 
Q 328.388107 89.303758 232.445539 108.831559 
" clip-path="url(#p6dda950c45)" style="fill: none; stroke: #808080; stroke-width: 0.8; stroke-linecap: round"/>
    <path d="M 238.923332 110.574603 
L 232.445539 108.831559 
L 237.72665 104.695151 
z
" clip-path="url(#p6dda950c45)" style="fill: #808080; stroke: #808080; stroke-width: 0.8; stroke-linecap: round"/>
   </g>
   <g id="patch_19">
    <path d="M 426.78288 73.469483 
Q 245.592473 190.418201 65.717168 306.518091 
" clip-path="url(#p6dda950c45)" style="fill: none; stroke: #808080; stroke-width: 1.4; stroke-linecap: round"/>
    <path d="M 72.385181 305.784877 
L 65.717168 306.518091 
L 69.131404 300.743752 
z
" clip-path="url(#p6dda950c45)" style="fill: #808080; stroke: #808080; stroke-width: 1.4; stroke-linecap: round"/>
   </g>
   <g id="patch_20">
    <path d="M 430.698146 77.163281 
Q 332.890665 249.485192 235.414313 421.223705 
" clip-path="url(#p6dda950c45)" style="fill: none; stroke: #808080; stroke-width: 0.6; stroke-linecap: round"/>
    <path d="M 240.985056 417.486483 
L 235.414313 421.223705 
L 235.766981 414.524778 
z
" clip-path="url(#p6dda950c45)" style="fill: #808080; stroke: #808080; stroke-width: 0.6; stroke-linecap: round"/>
   </g>
   <g id="text_1">
    <g id="patch_21">
     <path d="M 330.040637 281.350052 
L 336.582749 290.75008 
Q 338.125094 292.966197 340.34121 291.423852 
L 347.490495 286.448184 
Q 349.706611 284.905839 348.164267 282.689722 
L 341.622154 273.289694 
Q 340.079809 271.073578 337.863693 272.615923 
L 330.714409 277.591591 
Q 328.498292 279.133936 330.040637 281.350052 
z
" clip-path="url(#p6dda950c45)" style="fill: #ffffff; stroke: #ffffff; stroke-linejoin: miter"/>
    </g>
    <g clip-path="url(#p6dda950c45)">
     <!-- 15 -->
     <g transform="translate(333.79303 278.738509) rotate(-304.836657) scale(0.09 -0.09)">
      <defs>
       <path id="DejaVuSans-31" d="M 794 531 
L 1825 531 
L 1825 4091 
L 703 3866 
L 703 4441 
L 1819 4666 
L 2450 4666 
L 2450 531 
L 3481 531 
L 3481 0 
L 794 0 
L 794 531 
z
" transform="scale(0.015625)"/>
       <path id="DejaVuSans-35" d="M 691 4666 
L 3169 4666 
L 3169 4134 
L 1269 4134 
L 1269 2991 
Q 1406 3038 1543 3061 
Q 1681 3084 1819 3084 
Q 2600 3084 3056 2656 
Q 3513 2228 3513 1497 
Q 3513 744 3044 326 
Q 2575 -91 1722 -91 
Q 1428 -91 1123 -41 
Q 819 9 494 109 
L 494 744 
Q 775 591 1075 516 
Q 1375 441 1709 441 
Q 2250 441 2565 725 
Q 2881 1009 2881 1497 
Q 2881 1984 2565 2268 
Q 2250 2553 1709 2553 
Q 1456 2553 1204 2497 
Q 953 2441 691 2322 
L 691 4666 
z
" transform="scale(0.015625)"/>
      </defs>
      <use xlink:href="#DejaVuSans-31"/>
      <use xlink:href="#DejaVuSans-35" transform="translate(63.623047 0)"/>
     </g>
    </g>
   </g>
   <g id="text_2">
    <g id="patch_22">
     <path d="M 217.435803 269.385064 
L 217.587985 275.109292 
Q 217.659741 277.808338 220.358787 277.736582 
L 229.066023 277.505095 
Q 231.76507 277.433339 231.693314 274.734293 
L 231.541131 269.010065 
Q 231.469376 266.311019 228.770329 266.382775 
L 220.063093 266.614262 
Q 217.364047 266.686018 217.435803 269.385064 
z
" clip-path="url(#p6dda950c45)" style="fill: #ffffff; stroke: #ffffff; stroke-linejoin: miter"/>
    </g>
    <g clip-path="url(#p6dda950c45)">
     <!-- 7 -->
     <g transform="translate(222.005907 269.263565) rotate(-271.522886) scale(0.09 -0.09)">
      <defs>
       <path id="DejaVuSans-37" d="M 525 4666 
L 3525 4666 
L 3525 4397 
L 1831 0 
L 1172 0 
L 2766 4134 
L 525 4134 
L 525 4666 
z
" transform="scale(0.015625)"/>
      </defs>
      <use xlink:href="#DejaVuSans-37"/>
     </g>
    </g>
   </g>
   <g id="text_3">
    <g id="patch_23">
     <path d="M 324.075453 97.38135 
L 335.297856 95.097183 
Q 337.943609 94.558676 337.405102 91.912923 
L 335.667856 83.377613 
Q 335.129349 80.73186 332.483596 81.270367 
L 321.261193 83.554534 
Q 318.615439 84.093041 319.153946 86.738794 
L 320.891192 95.274104 
Q 321.429699 97.919857 324.075453 97.38135 
z
" clip-path="url(#p6dda950c45)" style="fill: #ffffff; stroke: #ffffff; stroke-linejoin: miter"/>
    </g>
    <g clip-path="url(#p6dda950c45)">
     <!-- 13 -->
     <g transform="translate(323.163637 92.901484) rotate(-11.504625) scale(0.09 -0.09)">
      <defs>
       <path id="DejaVuSans-33" d="M 2597 2516 
Q 3050 2419 3304 2112 
Q 3559 1806 3559 1356 
Q 3559 666 3084 287 
Q 2609 -91 1734 -91 
Q 1441 -91 1130 -33 
Q 819 25 488 141 
L 488 750 
Q 750 597 1062 519 
Q 1375 441 1716 441 
Q 2309 441 2620 675 
Q 2931 909 2931 1356 
Q 2931 1769 2642 2001 
Q 2353 2234 1838 2234 
L 1294 2234 
L 1294 2753 
L 1863 2753 
Q 2328 2753 2575 2939 
Q 2822 3125 2822 3475 
Q 2822 3834 2567 4026 
Q 2313 4219 1838 4219 
Q 1578 4219 1281 4162 
Q 984 4106 628 3988 
L 628 4550 
Q 988 4650 1302 4700 
Q 1616 4750 1894 4750 
Q 2613 4750 3031 4423 
Q 3450 4097 3450 3541 
Q 3450 3153 3228 2886 
Q 3006 2619 2597 2516 
z
" transform="scale(0.015625)"/>
      </defs>
      <use xlink:href="#DejaVuSans-31"/>
      <use xlink:href="#DejaVuSans-33" transform="translate(63.623047 0)"/>
     </g>
    </g>
   </g>
   <g id="text_4">
    <g id="patch_24">
     <path d="M 140.422277 219.613994 
L 144.057743 215.18982 
Q 145.771912 213.103765 143.685857 211.389596 
L 136.956157 205.859616 
Q 134.870102 204.145447 133.155933 206.231502 
L 129.520466 210.655677 
Q 127.806298 212.741732 129.892353 214.455901 
L 136.622053 219.985881 
Q 138.708108 221.700049 140.422277 219.613994 
z
" clip-path="url(#p6dda950c45)" style="fill: #ffffff; stroke: #ffffff; stroke-linejoin: miter"/>
    </g>
    <g clip-path="url(#p6dda950c45)">
     <!-- 2 -->
     <g transform="translate(136.890107 216.711514) rotate(-50.589113) scale(0.09 -0.09)">
      <defs>
       <path id="DejaVuSans-32" d="M 1228 531 
L 3431 531 
L 3431 0 
L 469 0 
L 469 531 
Q 828 903 1448 1529 
Q 2069 2156 2228 2338 
Q 2531 2678 2651 2914 
Q 2772 3150 2772 3378 
Q 2772 3750 2511 3984 
Q 2250 4219 1831 4219 
Q 1534 4219 1204 4116 
Q 875 4013 500 3803 
L 500 4441 
Q 881 4594 1212 4672 
Q 1544 4750 1819 4750 
Q 2544 4750 2975 4387 
Q 3406 4025 3406 3419 
Q 3406 3131 3298 2873 
Q 3191 2616 2906 2266 
Q 2828 2175 2409 1742 
Q 1991 1309 1228 531 
z
" transform="scale(0.015625)"/>
      </defs>
      <use xlink:href="#DejaVuSans-32"/>
     </g>
    </g>
   </g>
   <g id="text_5">
    <g id="patch_25">
     <path d="M 331.676116 283.699989 
L 334.947172 288.400003 
Q 336.489517 290.616119 338.705633 289.073775 
L 345.854918 284.098106 
Q 348.071034 282.555761 346.528689 280.339645 
L 343.257633 275.639631 
Q 341.715288 273.423514 339.499172 274.965859 
L 332.349888 279.941528 
Q 330.133771 281.483872 331.676116 283.699989 
z
" clip-path="url(#p6dda950c45)" style="fill: #ffffff; stroke: #ffffff; stroke-linejoin: miter"/>
    </g>
    <g clip-path="url(#p6dda950c45)">
     <!-- 4 -->
     <g transform="translate(335.428509 281.088446) rotate(-304.836657) scale(0.09 -0.09)">
      <defs>
       <path id="DejaVuSans-34" d="M 2419 4116 
L 825 1625 
L 2419 1625 
L 2419 4116 
z
M 2253 4666 
L 3047 4666 
L 3047 1625 
L 3713 1625 
L 3713 1100 
L 3047 1100 
L 3047 0 
L 2419 0 
L 2419 1100 
L 313 1100 
L 313 1709 
L 2253 4666 
z
" transform="scale(0.015625)"/>
      </defs>
      <use xlink:href="#DejaVuSans-34"/>
     </g>
    </g>
   </g>
   <g id="text_6">
    <g id="patch_26">
     <path d="M 339.911332 449.552446 
L 345.616045 450.048626 
Q 348.30589 450.282582 348.539845 447.592737 
L 349.294595 438.915186 
Q 349.528551 436.225341 346.838706 435.991386 
L 341.133994 435.495205 
Q 338.444149 435.261249 338.210193 437.951094 
L 337.455443 446.628645 
Q 337.221488 449.31849 339.911332 449.552446 
z
" clip-path="url(#p6dda950c45)" style="fill: #ffffff; stroke: #ffffff; stroke-linejoin: miter"/>
    </g>
    <g clip-path="url(#p6dda950c45)">
     <!-- 9 -->
     <g transform="translate(340.307473 444.997922) rotate(-355.029076) scale(0.09 -0.09)">
      <defs>
       <path id="DejaVuSans-39" d="M 703 97 
L 703 672 
Q 941 559 1184 500 
Q 1428 441 1663 441 
Q 2288 441 2617 861 
Q 2947 1281 2994 2138 
Q 2813 1869 2534 1725 
Q 2256 1581 1919 1581 
Q 1219 1581 811 2004 
Q 403 2428 403 3163 
Q 403 3881 828 4315 
Q 1253 4750 1959 4750 
Q 2769 4750 3195 4129 
Q 3622 3509 3622 2328 
Q 3622 1225 3098 567 
Q 2575 -91 1691 -91 
Q 1453 -91 1209 -44 
Q 966 3 703 97 
z
M 1959 2075 
Q 2384 2075 2632 2365 
Q 2881 2656 2881 3163 
Q 2881 3666 2632 3958 
Q 2384 4250 1959 4250 
Q 1534 4250 1286 3958 
Q 1038 3666 1038 3163 
Q 1038 2656 1286 2365 
Q 1534 2075 1959 2075 
z
" transform="scale(0.015625)"/>
      </defs>
      <use xlink:href="#DejaVuSans-39"/>
     </g>
    </g>
   </g>
   <g id="text_7">
    <g id="patch_27">
     <path d="M 439.887676 257.577689 
L 440.208759 263.29493 
Q 440.360154 265.990682 443.055906 265.839287 
L 451.752515 265.350881 
Q 454.448267 265.199486 454.296872 262.503734 
L 453.975789 256.786493 
Q 453.824394 254.090741 451.128642 254.242136 
L 442.432033 254.730542 
Q 439.736281 254.881937 439.887676 257.577689 
z
" clip-path="url(#p6dda950c45)" style="fill: #ffffff; stroke: #ffffff; stroke-linejoin: miter"/>
    </g>
    <g clip-path="url(#p6dda950c45)">
     <!-- 1 -->
     <g transform="translate(444.452202 257.321343) rotate(-273.214387) scale(0.09 -0.09)">
      <use xlink:href="#DejaVuSans-31"/>
     </g>
    </g>
   </g>
   <g id="text_8">
    <g id="patch_28">
     <path d="M 134.745178 377.926986 
L 139.494253 381.126397 
Q 141.733502 382.63496 143.242065 380.39571 
L 148.108752 373.171798 
Q 149.617315 370.932549 147.378065 369.423986 
L 142.628991 366.224575 
Q 140.389741 364.716012 138.881178 366.955262 
L 134.014491 374.179174 
Q 132.505928 376.418423 134.745178 377.926986 
z
" clip-path="url(#p6dda950c45)" style="fill: #ffffff; stroke: #ffffff; stroke-linejoin: miter"/>
    </g>
    <g clip-path="url(#p6dda950c45)">
     <!-- 6 -->
     <g transform="translate(137.299521 374.135424) rotate(-326.032192) scale(0.09 -0.09)">
      <defs>
       <path id="DejaVuSans-36" d="M 2113 2584 
Q 1688 2584 1439 2293 
Q 1191 2003 1191 1497 
Q 1191 994 1439 701 
Q 1688 409 2113 409 
Q 2538 409 2786 701 
Q 3034 994 3034 1497 
Q 3034 2003 2786 2293 
Q 2538 2584 2113 2584 
z
M 3366 4563 
L 3366 3988 
Q 3128 4100 2886 4159 
Q 2644 4219 2406 4219 
Q 1781 4219 1451 3797 
Q 1122 3375 1075 2522 
Q 1259 2794 1537 2939 
Q 1816 3084 2150 3084 
Q 2853 3084 3261 2657 
Q 3669 2231 3669 1497 
Q 3669 778 3244 343 
Q 2819 -91 2113 -91 
Q 1303 -91 875 529 
Q 447 1150 447 2328 
Q 447 3434 972 4092 
Q 1497 4750 2381 4750 
Q 2619 4750 2861 4703 
Q 3103 4656 3366 4563 
z
" transform="scale(0.015625)"/>
      </defs>
      <use xlink:href="#DejaVuSans-36"/>
     </g>
    </g>
   </g>
   <g id="text_9">
    <g id="patch_29">
     <path d="M 335.862549 258.541943 
L 341.515704 248.581943 
Q 342.848472 246.233809 340.500338 244.901042 
L 332.925162 240.601479 
Q 330.577028 239.268711 329.244261 241.616845 
L 323.591106 251.576845 
Q 322.258338 253.924978 324.606472 255.257746 
L 332.181648 259.557309 
Q 334.529782 260.890076 335.862549 258.541943 
z
" clip-path="url(#p6dda950c45)" style="fill: #ffffff; stroke: #ffffff; stroke-linejoin: miter"/>
    </g>
    <g clip-path="url(#p6dda950c45)">
     <!-- 11 -->
     <g transform="translate(331.886621 256.285262) rotate(-60.421368) scale(0.09 -0.09)">
      <use xlink:href="#DejaVuSans-31"/>
      <use xlink:href="#DejaVuSans-31" transform="translate(63.623047 0)"/>
     </g>
    </g>
   </g>
   <g id="text_10">
    <g id="patch_30">
     <path d="M 337.061191 449.304548 
L 348.470616 450.296909 
Q 351.160461 450.530865 351.394416 447.84102 
L 352.149167 439.163469 
Q 352.383122 436.473624 349.693277 436.239669 
L 338.283853 435.247307 
Q 335.594008 435.013352 335.360052 437.703196 
L 334.605302 446.380748 
Q 334.371346 449.070593 337.061191 449.304548 
z
" clip-path="url(#p6dda950c45)" style="fill: #ffffff; stroke: #ffffff; stroke-linejoin: miter"/>
    </g>
    <g clip-path="url(#p6dda950c45)">
     <!-- 11 -->
     <g transform="translate(337.457332 444.750024) rotate(-355.029076) scale(0.09 -0.09)">
      <use xlink:href="#DejaVuSans-31"/>
      <use xlink:href="#DejaVuSans-31" transform="translate(63.623047 0)"/>
     </g>
    </g>
   </g>
   <g id="text_11">
    <g id="patch_31">
     <path d="M 217.435695 269.381006 
L 217.587877 275.105233 
Q 217.659633 277.80428 220.358679 277.732524 
L 229.065915 277.501036 
Q 231.764962 277.42928 231.693206 274.730234 
L 231.541024 269.006007 
Q 231.469268 266.30696 228.770221 266.378716 
L 220.062985 266.610204 
Q 217.363939 266.68196 217.435695 269.381006 
z
" clip-path="url(#p6dda950c45)" style="fill: #ffffff; stroke: #ffffff; stroke-linejoin: miter"/>
    </g>
    <g clip-path="url(#p6dda950c45)">
     <!-- 2 -->
     <g transform="translate(222.005799 269.259507) rotate(-271.522886) scale(0.09 -0.09)">
      <use xlink:href="#DejaVuSans-32"/>
     </g>
    </g>
   </g>
   <g id="text_12">
    <g id="patch_32">
     <path d="M 247.902197 388.464244 
L 258.740049 392.165691 
Q 261.295142 393.03833 262.167782 390.483237 
L 264.982954 382.240401 
Q 265.855593 379.685308 263.3005 378.812668 
L 252.462648 375.111222 
Q 249.907555 374.238582 249.034915 376.793675 
L 246.219743 385.036512 
Q 245.347104 387.591605 247.902197 388.464244 
z
" clip-path="url(#p6dda950c45)" style="fill: #ffffff; stroke: #ffffff; stroke-linejoin: miter"/>
    </g>
    <g clip-path="url(#p6dda950c45)">
     <!-- 32 -->
     <g transform="translate(249.379775 384.137886) rotate(-341.14345) scale(0.09 -0.09)">
      <use xlink:href="#DejaVuSans-33"/>
      <use xlink:href="#DejaVuSans-32" transform="translate(63.623047 0)"/>
     </g>
    </g>
   </g>
   <g id="text_13">
    <g id="patch_33">
     <path d="M 140.420822 219.615764 
L 144.056289 215.191589 
Q 145.770458 213.105534 143.684403 211.391365 
L 136.954702 205.861385 
Q 134.868647 204.147217 133.154479 206.233272 
L 129.519012 210.657446 
Q 127.804843 212.743501 129.890898 214.45767 
L 136.620599 219.98765 
Q 138.706654 221.701819 140.420822 219.615764 
z
" clip-path="url(#p6dda950c45)" style="fill: #ffffff; stroke: #ffffff; stroke-linejoin: miter"/>
    </g>
    <g clip-path="url(#p6dda950c45)">
     <!-- 6 -->
     <g transform="translate(136.888653 216.713283) rotate(-50.589113) scale(0.09 -0.09)">
      <use xlink:href="#DejaVuSans-36"/>
     </g>
    </g>
   </g>
   <g id="text_14">
    <g id="patch_34">
     <path d="M 132.371552 376.327895 
L 141.869701 382.726716 
Q 144.108951 384.235279 145.617514 381.996029 
L 150.4842 374.772117 
Q 151.992763 372.532868 149.753514 371.024305 
L 140.255364 364.625484 
Q 138.016115 363.116921 136.507552 365.35617 
L 131.640865 372.580082 
Q 130.132302 374.819332 132.371552 376.327895 
z
" clip-path="url(#p6dda950c45)" style="fill: #ffffff; stroke: #ffffff; stroke-linejoin: miter"/>
    </g>
    <g clip-path="url(#p6dda950c45)">
     <!-- 15 -->
     <g transform="translate(134.925894 372.536332) rotate(-326.032192) scale(0.09 -0.09)">
      <use xlink:href="#DejaVuSans-31"/>
      <use xlink:href="#DejaVuSans-35" transform="translate(63.623047 0)"/>
     </g>
    </g>
   </g>
   <g id="text_15">
    <g id="patch_35">
     <path d="M 246.198976 198.423857 
L 251.0101 195.318535 
Q 253.278606 193.854335 251.814406 191.585829 
L 247.090838 184.267534 
Q 245.626639 181.999027 243.358133 183.463227 
L 238.547009 186.56855 
Q 236.278503 188.032749 237.742702 190.301255 
L 242.466271 197.619551 
Q 243.93047 199.888057 246.198976 198.423857 
z
" clip-path="url(#p6dda950c45)" style="fill: #ffffff; stroke: #ffffff; stroke-linejoin: miter"/>
    </g>
    <g clip-path="url(#p6dda950c45)">
     <!-- 2 -->
     <g transform="translate(243.719751 194.582757) rotate(-32.84008) scale(0.09 -0.09)">
      <use xlink:href="#DejaVuSans-32"/>
     </g>
    </g>
   </g>
   <g id="text_16">
    <g id="patch_36">
     <path d="M 439.727054 254.717646 
L 440.369221 266.152128 
Q 440.520616 268.84788 443.216368 268.696485 
L 451.912977 268.208078 
Q 454.608729 268.056684 454.457334 265.360931 
L 453.815167 253.926449 
Q 453.663772 251.230697 450.96802 251.382092 
L 442.271411 251.870499 
Q 439.575659 252.021894 439.727054 254.717646 
z
" clip-path="url(#p6dda950c45)" style="fill: #ffffff; stroke: #ffffff; stroke-linejoin: miter"/>
    </g>
    <g clip-path="url(#p6dda950c45)">
     <!-- 10 -->
     <g transform="translate(444.29158 254.461299) rotate(-273.214387) scale(0.09 -0.09)">
      <defs>
       <path id="DejaVuSans-30" d="M 2034 4250 
Q 1547 4250 1301 3770 
Q 1056 3291 1056 2328 
Q 1056 1369 1301 889 
Q 1547 409 2034 409 
Q 2525 409 2770 889 
Q 3016 1369 3016 2328 
Q 3016 3291 2770 3770 
Q 2525 4250 2034 4250 
z
M 2034 4750 
Q 2819 4750 3233 4129 
Q 3647 3509 3647 2328 
Q 3647 1150 3233 529 
Q 2819 -91 2034 -91 
Q 1250 -91 836 529 
Q 422 1150 422 2328 
Q 422 3509 836 4129 
Q 1250 4750 2034 4750 
z
" transform="scale(0.015625)"/>
      </defs>
      <use xlink:href="#DejaVuSans-31"/>
      <use xlink:href="#DejaVuSans-30" transform="translate(63.623047 0)"/>
     </g>
    </g>
   </g>
   <g id="text_17">
    <g id="patch_37">
     <path d="M 326.883228 96.809866 
L 332.49443 95.667782 
Q 335.140183 95.129276 334.601676 92.483522 
L 332.86443 83.948212 
Q 332.325923 81.302459 329.68017 81.840966 
L 324.068968 82.983049 
Q 321.423215 83.521556 321.961722 86.16731 
L 323.698968 94.70262 
Q 324.237475 97.348373 326.883228 96.809866 
z
" clip-path="url(#p6dda950c45)" style="fill: #ffffff; stroke: #ffffff; stroke-linejoin: miter"/>
    </g>
    <g clip-path="url(#p6dda950c45)">
     <!-- 4 -->
     <g transform="translate(325.971412 92.329999) rotate(-11.504625) scale(0.09 -0.09)">
      <use xlink:href="#DejaVuSans-34"/>
     </g>
    </g>
   </g>
   <g id="text_18">
    <g id="patch_38">
     <path d="M 246.198236 198.424335 
L 251.00936 195.319012 
Q 253.277866 193.854813 251.813666 191.586307 
L 247.090098 184.268011 
Q 245.625899 181.999505 243.357393 183.463704 
L 238.546269 186.569027 
Q 236.277763 188.033227 237.741962 190.301733 
L 242.465531 197.620028 
Q 243.92973 199.888534 246.198236 198.424335 
z
" clip-path="url(#p6dda950c45)" style="fill: #ffffff; stroke: #ffffff; stroke-linejoin: miter"/>
    </g>
    <g clip-path="url(#p6dda950c45)">
     <!-- 7 -->
     <g transform="translate(243.719011 194.583234) rotate(-32.84008) scale(0.09 -0.09)">
      <use xlink:href="#DejaVuSans-37"/>
     </g>
    </g>
   </g>
   <g id="text_19">
    <g id="patch_39">
     <path d="M 337.27765 256.048749 
L 340.104228 251.068749 
Q 341.436995 248.720616 339.088862 247.387849 
L 331.513685 243.088285 
Q 329.165552 241.755518 327.832784 244.103651 
L 325.006207 249.083651 
Q 323.673439 251.431785 326.021573 252.764552 
L 333.59675 257.064115 
Q 335.944883 258.396883 337.27765 256.048749 
z
" clip-path="url(#p6dda950c45)" style="fill: #ffffff; stroke: #ffffff; stroke-linejoin: miter"/>
    </g>
    <g clip-path="url(#p6dda950c45)">
     <!-- 3 -->
     <g transform="translate(333.301722 253.792069) rotate(-60.421368) scale(0.09 -0.09)">
      <use xlink:href="#DejaVuSans-33"/>
     </g>
    </g>
   </g>
   <g id="PathCollection_1">
    <path d="M 220.290805 122.816354 
C 223.343522 122.816354 226.271618 121.603496 228.430215 119.4449 
C 230.588812 117.286303 231.801669 114.358206 231.801669 111.305489 
C 231.801669 108.252772 230.588812 105.324676 228.430215 103.166079 
C 226.271618 101.007482 223.343522 99.794625 220.290805 99.794625 
C 217.238088 99.794625 214.309991 101.007482 212.151394 103.166079 
C 209.992798 105.324676 208.77994 108.252772 208.77994 111.305489 
C 208.77994 114.358206 209.992798 117.286303 212.151394 119.4449 
C 214.309991 121.603496 217.238088 122.816354 220.290805 122.816354 
z
" clip-path="url(#p6dda950c45)" style="fill: #add8e6; stroke: #add8e6"/>
    <path d="M 457.91405 467.052036 
C 461.71118 467.052036 465.353301 465.54342 468.038278 462.858443 
C 470.723255 460.173466 472.231871 456.531345 472.231871 452.734215 
C 472.231871 448.937084 470.723255 445.294963 468.038278 442.609987 
C 465.353301 439.92501 461.71118 438.416394 457.91405 438.416394 
C 454.116919 438.416394 450.474798 439.92501 447.789821 442.609987 
C 445.104844 445.294963 443.596229 448.937084 443.596229 452.734215 
C 443.596229 456.531345 445.104844 460.173466 447.789821 462.858443 
C 450.474798 465.54342 454.116919 467.052036 457.91405 467.052036 
z
" clip-path="url(#p6dda950c45)" style="fill: #ffa500; stroke: #ffa500"/>
    <path d="M 228.838204 445.45892 
C 232.192787 445.45892 235.410427 444.12613 237.782476 441.754081 
C 240.154525 439.382032 241.487315 436.164392 241.487315 432.809809 
C 241.487315 429.455226 240.154525 426.237586 237.782476 423.865537 
C 235.410427 421.493489 232.192787 420.160698 228.838204 420.160698 
C 225.483621 420.160698 222.265981 421.493489 219.893932 423.865537 
C 217.521883 426.237586 216.189093 429.455226 216.189093 432.809809 
C 216.189093 436.164392 217.521883 439.382032 219.893932 441.754081 
C 222.265981 444.12613 225.483621 445.45892 228.838204 445.45892 
z
" clip-path="url(#p6dda950c45)" style="fill: #add8e6; stroke: #add8e6"/>
    <path d="M 53.28595 327.770533 
C 56.794258 327.770533 60.159346 326.376668 62.640094 323.89592 
C 65.120842 321.415172 66.514707 318.050084 66.514707 314.541777 
C 66.514707 311.03347 65.120842 307.668381 62.640094 305.187633 
C 60.159346 302.706885 56.794258 301.31302 53.28595 301.31302 
C 49.777643 301.31302 46.412555 302.706885 43.931807 305.187633 
C 41.451059 307.668381 40.057194 311.03347 40.057194 314.541777 
C 40.057194 318.050084 41.451059 321.415172 43.931807 323.89592 
C 46.412555 326.376668 49.777643 327.770533 53.28595 327.770533 
z
" clip-path="url(#p6dda950c45)" style="fill: #add8e6; stroke: #add8e6"/>
    <path d="M 436.270418 78.637375 
C 439.264983 78.637375 442.137301 77.447622 444.254778 75.330145 
C 446.372255 73.212668 447.562008 70.34035 447.562008 67.345785 
C 447.562008 64.351221 446.372255 61.478902 444.254778 59.361425 
C 442.137301 57.243948 439.264983 56.054195 436.270418 56.054195 
C 433.275854 56.054195 430.403536 57.243948 428.286059 59.361425 
C 426.168582 61.478902 424.978829 64.351221 424.978829 67.345785 
C 424.978829 70.34035 426.168582 73.212668 428.286059 75.330145 
C 430.403536 77.447622 433.275854 78.637375 436.270418 78.637375 
z
" clip-path="url(#p6dda950c45)" style="fill: #add8e6; stroke: #add8e6"/>
   </g>
   <g id="text_20">
    <g clip-path="url(#p6dda950c45)">
     <!-- G -->
     <g transform="translate(215.641742 114.616739) scale(0.12 -0.12)">
      <defs>
       <path id="DejaVuSans-47" d="M 3809 666 
L 3809 1919 
L 2778 1919 
L 2778 2438 
L 4434 2438 
L 4434 434 
Q 4069 175 3628 42 
Q 3188 -91 2688 -91 
Q 1594 -91 976 548 
Q 359 1188 359 2328 
Q 359 3472 976 4111 
Q 1594 4750 2688 4750 
Q 3144 4750 3555 4637 
Q 3966 4525 4313 4306 
L 4313 3634 
Q 3963 3931 3569 4081 
Q 3175 4231 2741 4231 
Q 1884 4231 1454 3753 
Q 1025 3275 1025 2328 
Q 1025 1384 1454 906 
Q 1884 428 2741 428 
Q 3075 428 3337 486 
Q 3600 544 3809 666 
z
" transform="scale(0.015625)"/>
      </defs>
      <use xlink:href="#DejaVuSans-47"/>
     </g>
    </g>
   </g>
   <g id="text_21">
    <g clip-path="url(#p6dda950c45)">
     <!-- E -->
     <g transform="translate(454.1228 456.045465) scale(0.12 -0.12)">
      <defs>
       <path id="DejaVuSans-45" d="M 628 4666 
L 3578 4666 
L 3578 4134 
L 1259 4134 
L 1259 2753 
L 3481 2753 
L 3481 2222 
L 1259 2222 
L 1259 531 
L 3634 531 
L 3634 0 
L 628 0 
L 628 4666 
z
" transform="scale(0.015625)"/>
      </defs>
      <use xlink:href="#DejaVuSans-45"/>
     </g>
    </g>
   </g>
   <g id="text_22">
    <g clip-path="url(#p6dda950c45)">
     <!-- nf -->
     <g transform="translate(222.923516 436.121059) scale(0.12 -0.12)">
      <defs>
       <path id="DejaVuSans-6e" d="M 3513 2113 
L 3513 0 
L 2938 0 
L 2938 2094 
Q 2938 2591 2744 2837 
Q 2550 3084 2163 3084 
Q 1697 3084 1428 2787 
Q 1159 2491 1159 1978 
L 1159 0 
L 581 0 
L 581 3500 
L 1159 3500 
L 1159 2956 
Q 1366 3272 1645 3428 
Q 1925 3584 2291 3584 
Q 2894 3584 3203 3211 
Q 3513 2838 3513 2113 
z
" transform="scale(0.015625)"/>
       <path id="DejaVuSans-66" d="M 2375 4863 
L 2375 4384 
L 1825 4384 
Q 1516 4384 1395 4259 
Q 1275 4134 1275 3809 
L 1275 3500 
L 2222 3500 
L 2222 3053 
L 1275 3053 
L 1275 0 
L 697 0 
L 697 3053 
L 147 3053 
L 147 3500 
L 697 3500 
L 697 3744 
Q 697 4328 969 4595 
Q 1241 4863 1831 4863 
L 2375 4863 
z
" transform="scale(0.015625)"/>
      </defs>
      <use xlink:href="#DejaVuSans-6e"/>
      <use xlink:href="#DejaVuSans-66" transform="translate(63.378906 0)"/>
     </g>
    </g>
   </g>
   <g id="text_23">
    <g clip-path="url(#p6dda950c45)">
     <!-- H -->
     <g transform="translate(48.773763 317.853027) scale(0.12 -0.12)">
      <defs>
       <path id="DejaVuSans-48" d="M 628 4666 
L 1259 4666 
L 1259 2753 
L 3553 2753 
L 3553 4666 
L 4184 4666 
L 4184 0 
L 3553 0 
L 3553 2222 
L 1259 2222 
L 1259 0 
L 628 0 
L 628 4666 
z
" transform="scale(0.015625)"/>
      </defs>
      <use xlink:href="#DejaVuSans-48"/>
     </g>
    </g>
   </g>
   <g id="text_24">
    <g clip-path="url(#p6dda950c45)">
     <!-- F -->
     <g transform="translate(432.819481 70.657035) scale(0.12 -0.12)">
      <defs>
       <path id="DejaVuSans-46" d="M 628 4666 
L 3309 4666 
L 3309 4134 
L 1259 4134 
L 1259 2759 
L 3109 2759 
L 3109 2228 
L 1259 2228 
L 1259 0 
L 628 0 
L 628 4666 
z
" transform="scale(0.015625)"/>
      </defs>
      <use xlink:href="#DejaVuSans-46"/>
     </g>
    </g>
   </g>
   <g id="text_25">
    <!-- Group G1 - Central Whale: E -->
    <g transform="translate(170.74125 20.88) scale(0.12 -0.12)">
     <defs>
      <path id="DejaVuSans-72" d="M 2631 2963 
Q 2534 3019 2420 3045 
Q 2306 3072 2169 3072 
Q 1681 3072 1420 2755 
Q 1159 2438 1159 1844 
L 1159 0 
L 581 0 
L 581 3500 
L 1159 3500 
L 1159 2956 
Q 1341 3275 1631 3429 
Q 1922 3584 2338 3584 
Q 2397 3584 2469 3576 
Q 2541 3569 2628 3553 
L 2631 2963 
z
" transform="scale(0.015625)"/>
      <path id="DejaVuSans-6f" d="M 1959 3097 
Q 1497 3097 1228 2736 
Q 959 2375 959 1747 
Q 959 1119 1226 758 
Q 1494 397 1959 397 
Q 2419 397 2687 759 
Q 2956 1122 2956 1747 
Q 2956 2369 2687 2733 
Q 2419 3097 1959 3097 
z
M 1959 3584 
Q 2709 3584 3137 3096 
Q 3566 2609 3566 1747 
Q 3566 888 3137 398 
Q 2709 -91 1959 -91 
Q 1206 -91 779 398 
Q 353 888 353 1747 
Q 353 2609 779 3096 
Q 1206 3584 1959 3584 
z
" transform="scale(0.015625)"/>
      <path id="DejaVuSans-75" d="M 544 1381 
L 544 3500 
L 1119 3500 
L 1119 1403 
Q 1119 906 1312 657 
Q 1506 409 1894 409 
Q 2359 409 2629 706 
Q 2900 1003 2900 1516 
L 2900 3500 
L 3475 3500 
L 3475 0 
L 2900 0 
L 2900 538 
Q 2691 219 2414 64 
Q 2138 -91 1772 -91 
Q 1169 -91 856 284 
Q 544 659 544 1381 
z
M 1991 3584 
L 1991 3584 
z
" transform="scale(0.015625)"/>
      <path id="DejaVuSans-70" d="M 1159 525 
L 1159 -1331 
L 581 -1331 
L 581 3500 
L 1159 3500 
L 1159 2969 
Q 1341 3281 1617 3432 
Q 1894 3584 2278 3584 
Q 2916 3584 3314 3078 
Q 3713 2572 3713 1747 
Q 3713 922 3314 415 
Q 2916 -91 2278 -91 
Q 1894 -91 1617 61 
Q 1341 213 1159 525 
z
M 3116 1747 
Q 3116 2381 2855 2742 
Q 2594 3103 2138 3103 
Q 1681 3103 1420 2742 
Q 1159 2381 1159 1747 
Q 1159 1113 1420 752 
Q 1681 391 2138 391 
Q 2594 391 2855 752 
Q 3116 1113 3116 1747 
z
" transform="scale(0.015625)"/>
      <path id="DejaVuSans-20" transform="scale(0.015625)"/>
      <path id="DejaVuSans-2d" d="M 313 2009 
L 1997 2009 
L 1997 1497 
L 313 1497 
L 313 2009 
z
" transform="scale(0.015625)"/>
      <path id="DejaVuSans-43" d="M 4122 4306 
L 4122 3641 
Q 3803 3938 3442 4084 
Q 3081 4231 2675 4231 
Q 1875 4231 1450 3742 
Q 1025 3253 1025 2328 
Q 1025 1406 1450 917 
Q 1875 428 2675 428 
Q 3081 428 3442 575 
Q 3803 722 4122 1019 
L 4122 359 
Q 3791 134 3420 21 
Q 3050 -91 2638 -91 
Q 1578 -91 968 557 
Q 359 1206 359 2328 
Q 359 3453 968 4101 
Q 1578 4750 2638 4750 
Q 3056 4750 3426 4639 
Q 3797 4528 4122 4306 
z
" transform="scale(0.015625)"/>
      <path id="DejaVuSans-65" d="M 3597 1894 
L 3597 1613 
L 953 1613 
Q 991 1019 1311 708 
Q 1631 397 2203 397 
Q 2534 397 2845 478 
Q 3156 559 3463 722 
L 3463 178 
Q 3153 47 2828 -22 
Q 2503 -91 2169 -91 
Q 1331 -91 842 396 
Q 353 884 353 1716 
Q 353 2575 817 3079 
Q 1281 3584 2069 3584 
Q 2775 3584 3186 3129 
Q 3597 2675 3597 1894 
z
M 3022 2063 
Q 3016 2534 2758 2815 
Q 2500 3097 2075 3097 
Q 1594 3097 1305 2825 
Q 1016 2553 972 2059 
L 3022 2063 
z
" transform="scale(0.015625)"/>
      <path id="DejaVuSans-74" d="M 1172 4494 
L 1172 3500 
L 2356 3500 
L 2356 3053 
L 1172 3053 
L 1172 1153 
Q 1172 725 1289 603 
Q 1406 481 1766 481 
L 2356 481 
L 2356 0 
L 1766 0 
Q 1100 0 847 248 
Q 594 497 594 1153 
L 594 3053 
L 172 3053 
L 172 3500 
L 594 3500 
L 594 4494 
L 1172 4494 
z
" transform="scale(0.015625)"/>
      <path id="DejaVuSans-61" d="M 2194 1759 
Q 1497 1759 1228 1600 
Q 959 1441 959 1056 
Q 959 750 1161 570 
Q 1363 391 1709 391 
Q 2188 391 2477 730 
Q 2766 1069 2766 1631 
L 2766 1759 
L 2194 1759 
z
M 3341 1997 
L 3341 0 
L 2766 0 
L 2766 531 
Q 2569 213 2275 61 
Q 1981 -91 1556 -91 
Q 1019 -91 701 211 
Q 384 513 384 1019 
Q 384 1609 779 1909 
Q 1175 2209 1959 2209 
L 2766 2209 
L 2766 2266 
Q 2766 2663 2505 2880 
Q 2244 3097 1772 3097 
Q 1472 3097 1187 3025 
Q 903 2953 641 2809 
L 641 3341 
Q 956 3463 1253 3523 
Q 1550 3584 1831 3584 
Q 2591 3584 2966 3190 
Q 3341 2797 3341 1997 
z
" transform="scale(0.015625)"/>
      <path id="DejaVuSans-6c" d="M 603 4863 
L 1178 4863 
L 1178 0 
L 603 0 
L 603 4863 
z
" transform="scale(0.015625)"/>
      <path id="DejaVuSans-57" d="M 213 4666 
L 850 4666 
L 1831 722 
L 2809 4666 
L 3519 4666 
L 4500 722 
L 5478 4666 
L 6119 4666 
L 4947 0 
L 4153 0 
L 3169 4050 
L 2175 0 
L 1381 0 
L 213 4666 
z
" transform="scale(0.015625)"/>
      <path id="DejaVuSans-68" d="M 3513 2113 
L 3513 0 
L 2938 0 
L 2938 2094 
Q 2938 2591 2744 2837 
Q 2550 3084 2163 3084 
Q 1697 3084 1428 2787 
Q 1159 2491 1159 1978 
L 1159 0 
L 581 0 
L 581 4863 
L 1159 4863 
L 1159 2956 
Q 1366 3272 1645 3428 
Q 1925 3584 2291 3584 
Q 2894 3584 3203 3211 
Q 3513 2838 3513 2113 
z
" transform="scale(0.015625)"/>
      <path id="DejaVuSans-3a" d="M 750 794 
L 1409 794 
L 1409 0 
L 750 0 
L 750 794 
z
M 750 3309 
L 1409 3309 
L 1409 2516 
L 750 2516 
L 750 3309 
z
" transform="scale(0.015625)"/>
     </defs>
     <use xlink:href="#DejaVuSans-47"/>
     <use xlink:href="#DejaVuSans-72" transform="translate(77.490234 0)"/>
     <use xlink:href="#DejaVuSans-6f" transform="translate(116.353516 0)"/>
     <use xlink:href="#DejaVuSans-75" transform="translate(177.535156 0)"/>
     <use xlink:href="#DejaVuSans-70" transform="translate(240.914062 0)"/>
     <use xlink:href="#DejaVuSans-20" transform="translate(304.390625 0)"/>
     <use xlink:href="#DejaVuSans-47" transform="translate(336.177734 0)"/>
     <use xlink:href="#DejaVuSans-31" transform="translate(413.667969 0)"/>
     <use xlink:href="#DejaVuSans-20" transform="translate(477.291016 0)"/>
     <use xlink:href="#DejaVuSans-2d" transform="translate(509.078125 0)"/>
     <use xlink:href="#DejaVuSans-20" transform="translate(545.162109 0)"/>
     <use xlink:href="#DejaVuSans-43" transform="translate(576.949219 0)"/>
     <use xlink:href="#DejaVuSans-65" transform="translate(646.773438 0)"/>
     <use xlink:href="#DejaVuSans-6e" transform="translate(708.296875 0)"/>
     <use xlink:href="#DejaVuSans-74" transform="translate(771.675781 0)"/>
     <use xlink:href="#DejaVuSans-72" transform="translate(810.884766 0)"/>
     <use xlink:href="#DejaVuSans-61" transform="translate(851.998047 0)"/>
     <use xlink:href="#DejaVuSans-6c" transform="translate(913.277344 0)"/>
     <use xlink:href="#DejaVuSans-20" transform="translate(941.060547 0)"/>
     <use xlink:href="#DejaVuSans-57" transform="translate(972.847656 0)"/>
     <use xlink:href="#DejaVuSans-68" transform="translate(1071.724609 0)"/>
     <use xlink:href="#DejaVuSans-61" transform="translate(1135.103516 0)"/>
     <use xlink:href="#DejaVuSans-6c" transform="translate(1196.382812 0)"/>
     <use xlink:href="#DejaVuSans-65" transform="translate(1224.166016 0)"/>
     <use xlink:href="#DejaVuSans-3a" transform="translate(1285.689453 0)"/>
     <use xlink:href="#DejaVuSans-20" transform="translate(1319.380859 0)"/>
     <use xlink:href="#DejaVuSans-45" transform="translate(1351.167969 0)"/>
    </g>
   </g>
  </g>
  <g id="axes_2">
   <g id="patch_40">
    <path d="M 744.909223 74.60393 
Q 821.766203 219.312607 898.413412 363.626319 
" clip-path="url(#pf770cb35a8)" style="fill: none; stroke: #808080; stroke-width: 0.4; stroke-linecap: round"/>
    <path d="M 898.248533 356.920142 
L 898.413412 363.626319 
L 892.949543 359.734516 
z
" clip-path="url(#pf770cb35a8)" style="fill: #808080; stroke: #808080; stroke-width: 0.4; stroke-linecap: round"/>
   </g>
   <g id="patch_41">
    <path d="M 898.623656 364.022173 
Q 821.765443 219.311176 745.431657 75.587587 
" clip-path="url(#pf770cb35a8)" style="fill: none; stroke: #808080; stroke-linecap: round"/>
    <path d="M 745.596537 82.293764 
L 745.431657 75.587587 
L 750.895527 79.47939 
z
" clip-path="url(#pf770cb35a8)" style="fill: #808080; stroke: #808080; stroke-linecap: round"/>
   </g>
   <g id="patch_42">
    <path d="M 887.827759 376.95963 
Q 861.210218 368.493914 835.445032 360.29929 
" clip-path="url(#pf770cb35a8)" style="fill: none; stroke: #808080; stroke-width: 0.8; stroke-linecap: round"/>
    <path d="M 840.253534 364.976715 
L 835.445032 360.29929 
L 842.072073 359.258943 
z
" clip-path="url(#pf770cb35a8)" style="fill: #808080; stroke: #808080; stroke-width: 0.8; stroke-linecap: round"/>
   </g>
   <g id="patch_43">
    <path d="M 914.906644 362.190236 
Q 935.866203 284.662361 956.709048 207.566201 
" clip-path="url(#pf770cb35a8)" style="fill: none; stroke: #808080; stroke-width: 0.4; stroke-linecap: round"/>
    <path d="M 952.247138 212.575328 
L 956.709048 207.566201 
L 958.039204 214.141206 
z
" clip-path="url(#pf770cb35a8)" style="fill: #808080; stroke: #808080; stroke-width: 0.4; stroke-linecap: round"/>
   </g>
   <g id="patch_44">
    <path d="M 834.591103 360.027697 
Q 861.210349 368.493956 848.195081 364.354447 
" clip-path="url(#pf770cb35a8)" style="fill: none; stroke: #808080; stroke-width: 37.2; stroke-linecap: round"/>
    <path d="M 843.386579 359.677022 
L 848.195081 364.354447 
L 841.56804 365.394794 
z
" clip-path="url(#pf770cb35a8)" style="fill: #808080; stroke: #808080; stroke-width: 37.2; stroke-linecap: round"/>
   </g>
   <g id="patch_45">
    <path d="M 787.850653 361.515025 
Q 674.45035 405.690273 566.258945 447.836387 
" clip-path="url(#pf770cb35a8)" style="fill: none; stroke: #808080; stroke-width: 5; stroke-linecap: round"/>
    <path d="M 572.938668 448.45388 
L 566.258945 447.836387 
L 570.760774 442.863104 
z
" clip-path="url(#pf770cb35a8)" style="fill: #808080; stroke: #808080; stroke-width: 5; stroke-linecap: round"/>
   </g>
   <g id="patch_46">
    <path d="M 805.057147 328.427819 
Q 774.0338 201.876574 744.075244 79.668854 
" clip-path="url(#pf770cb35a8)" style="fill: none; stroke: #808080; stroke-width: 4; stroke-linecap: round"/>
    <path d="M 742.590086 86.21059 
L 744.075244 79.668854 
L 748.417538 84.782022 
z
" clip-path="url(#pf770cb35a8)" style="fill: #808080; stroke: #808080; stroke-width: 4; stroke-linecap: round"/>
   </g>
   <g id="patch_47">
    <path d="M 828.289917 334.768493 
Q 891.311028 270.237607 952.613594 207.466437 
" clip-path="url(#pf770cb35a8)" style="fill: none; stroke: #808080; stroke-width: 2.2; stroke-linecap: round"/>
    <path d="M 946.275186 209.662931 
L 952.613594 207.466437 
L 950.567745 213.855059 
z
" clip-path="url(#pf770cb35a8)" style="fill: #808080; stroke: #808080; stroke-width: 2.2; stroke-linecap: round"/>
   </g>
   <g id="text_26">
    <g id="patch_48">
     <path d="M 817.496572 226.31459 
L 820.18254 231.371814 
Q 821.449009 233.75636 823.833554 232.489891 
L 831.526198 228.404211 
Q 833.910743 227.137743 832.644275 224.753197 
L 829.958306 219.695973 
Q 828.691838 217.311428 826.307292 218.577896 
L 818.614649 222.663576 
Q 816.230103 223.930045 817.496572 226.31459 
z
" clip-path="url(#pf770cb35a8)" style="fill: #ffffff; stroke: #ffffff; stroke-linejoin: miter"/>
    </g>
    <g clip-path="url(#pf770cb35a8)">
     <!-- 2 -->
     <g transform="translate(821.534154 224.170169) rotate(-297.973451) scale(0.09 -0.09)">
      <use xlink:href="#DejaVuSans-32"/>
     </g>
    </g>
   </g>
   <g id="text_27">
    <g id="patch_49">
     <path d="M 817.495925 226.313372 
L 820.181893 231.370596 
Q 821.448362 233.755142 823.832907 232.488673 
L 831.525551 228.402993 
Q 833.910096 227.136525 832.643628 224.751979 
L 829.95766 219.694755 
Q 828.691191 217.31021 826.306645 218.576678 
L 818.614002 222.662358 
Q 816.229456 223.928827 817.495925 226.313372 
z
" clip-path="url(#pf770cb35a8)" style="fill: #ffffff; stroke: #ffffff; stroke-linejoin: miter"/>
    </g>
    <g clip-path="url(#pf770cb35a8)">
     <!-- 5 -->
     <g transform="translate(821.533507 224.168951) rotate(-297.973451) scale(0.09 -0.09)">
      <use xlink:href="#DejaVuSans-35"/>
     </g>
    </g>
   </g>
   <g id="text_28">
    <g id="patch_50">
     <path d="M 855.158325 373.972505 
L 860.615223 375.708073 
Q 863.188221 376.526416 864.006563 373.953418 
L 866.64657 365.652822 
Q 867.464913 363.079824 864.891915 362.261482 
L 859.435017 360.525914 
Q 856.862019 359.707571 856.043677 362.280569 
L 853.40367 370.581165 
Q 852.585327 373.154163 855.158325 373.972505 
z
" clip-path="url(#pf770cb35a8)" style="fill: #ffffff; stroke: #ffffff; stroke-linejoin: miter"/>
    </g>
    <g clip-path="url(#pf770cb35a8)">
     <!-- 4 -->
     <g transform="translate(856.543966 369.615831) rotate(-342.35672) scale(0.09 -0.09)">
      <use xlink:href="#DejaVuSans-34"/>
     </g>
    </g>
   </g>
   <g id="text_29">
    <g id="patch_51">
     <path d="M 939.763695 297.27919 
L 941.258129 291.751387 
Q 941.962774 289.144957 939.356344 288.440313 
L 930.947893 286.167099 
Q 928.341464 285.462454 927.636819 288.068884 
L 926.142385 293.596687 
Q 925.43774 296.203116 928.044169 296.907761 
L 936.45262 299.180975 
Q 939.05905 299.88562 939.763695 297.27919 
z
" clip-path="url(#pf770cb35a8)" style="fill: #ffffff; stroke: #ffffff; stroke-linejoin: miter"/>
    </g>
    <g clip-path="url(#pf770cb35a8)">
     <!-- 2 -->
     <g transform="translate(935.350412 296.086065) rotate(-74.871806) scale(0.09 -0.09)">
      <use xlink:href="#DejaVuSans-32"/>
     </g>
    </g>
   </g>
   <g id="text_30">
    <g id="patch_52">
     <path d="M 849.698385 372.23597 
L 866.069081 377.442674 
Q 868.642078 378.261017 869.460421 375.688019 
L 872.100428 367.387423 
Q 872.91877 364.814425 870.345773 363.996083 
L 853.975077 358.789378 
Q 851.40208 357.971036 850.583737 360.544033 
L 847.94373 368.84463 
Q 847.125388 371.417627 849.698385 372.23597 
z
" clip-path="url(#pf770cb35a8)" style="fill: #ffffff; stroke: #ffffff; stroke-linejoin: miter"/>
    </g>
    <g clip-path="url(#pf770cb35a8)">
     <!-- 186 -->
     <g transform="translate(851.084026 367.879296) rotate(-342.35672) scale(0.09 -0.09)">
      <defs>
       <path id="DejaVuSans-38" d="M 2034 2216 
Q 1584 2216 1326 1975 
Q 1069 1734 1069 1313 
Q 1069 891 1326 650 
Q 1584 409 2034 409 
Q 2484 409 2743 651 
Q 3003 894 3003 1313 
Q 3003 1734 2745 1975 
Q 2488 2216 2034 2216 
z
M 1403 2484 
Q 997 2584 770 2862 
Q 544 3141 544 3541 
Q 544 4100 942 4425 
Q 1341 4750 2034 4750 
Q 2731 4750 3128 4425 
Q 3525 4100 3525 3541 
Q 3525 3141 3298 2862 
Q 3072 2584 2669 2484 
Q 3125 2378 3379 2068 
Q 3634 1759 3634 1313 
Q 3634 634 3220 271 
Q 2806 -91 2034 -91 
Q 1263 -91 848 271 
Q 434 634 434 1313 
Q 434 1759 690 2068 
Q 947 2378 1403 2484 
z
M 1172 3481 
Q 1172 3119 1398 2916 
Q 1625 2713 2034 2713 
Q 2441 2713 2670 2916 
Q 2900 3119 2900 3481 
Q 2900 3844 2670 4047 
Q 2441 4250 2034 4250 
Q 1625 4250 1398 4047 
Q 1172 3844 1172 3481 
z
" transform="scale(0.015625)"/>
      </defs>
      <use xlink:href="#DejaVuSans-31"/>
      <use xlink:href="#DejaVuSans-38" transform="translate(63.623047 0)"/>
      <use xlink:href="#DejaVuSans-36" transform="translate(127.246094 0)"/>
     </g>
    </g>
   </g>
   <g id="text_31">
    <g id="patch_53">
     <path d="M 679.551637 411.274627 
L 690.223031 407.11757 
Q 692.73888 406.137518 691.758827 403.621668 
L 688.597137 395.505434 
Q 687.617084 392.989585 685.101235 393.969638 
L 674.429842 398.126694 
Q 671.913993 399.106747 672.894045 401.622596 
L 676.055736 409.73883 
Q 677.035788 412.254679 679.551637 411.274627 
z
" clip-path="url(#pf770cb35a8)" style="fill: #ffffff; stroke: #ffffff; stroke-linejoin: miter"/>
    </g>
    <g clip-path="url(#pf770cb35a8)">
     <!-- 25 -->
     <g transform="translate(677.892184 407.014717) rotate(-21.283471) scale(0.09 -0.09)">
      <use xlink:href="#DejaVuSans-32"/>
      <use xlink:href="#DejaVuSans-35" transform="translate(63.623047 0)"/>
     </g>
    </g>
   </g>
   <g id="text_32">
    <g id="patch_54">
     <path d="M 767.791771 206.045654 
L 770.51855 217.168802 
Q 771.161406 219.791155 773.783759 219.1483 
L 782.24358 217.074421 
Q 784.865933 216.431565 784.223077 213.809212 
L 781.496298 202.686064 
Q 780.853443 200.06371 778.231089 200.706566 
L 769.771268 202.780445 
Q 767.148915 203.4233 767.791771 206.045654 
z
" clip-path="url(#pf770cb35a8)" style="fill: #ffffff; stroke: #ffffff; stroke-linejoin: miter"/>
    </g>
    <g clip-path="url(#pf770cb35a8)">
     <!-- 20 -->
     <g transform="translate(772.232016 204.957152) rotate(-283.774113) scale(0.09 -0.09)">
      <use xlink:href="#DejaVuSans-32"/>
      <use xlink:href="#DejaVuSans-30" transform="translate(63.623047 0)"/>
     </g>
    </g>
   </g>
   <g id="text_33">
    <g id="patch_55">
     <path d="M 885.683429 286.097743 
L 893.685155 277.904323 
Q 895.571613 275.972672 893.639962 274.086214 
L 887.408375 268.000422 
Q 885.476723 266.113964 883.590266 268.045615 
L 875.58854 276.239035 
Q 873.702082 278.170687 875.633733 280.057145 
L 881.86532 286.142937 
Q 883.796971 288.029395 885.683429 286.097743 
z
" clip-path="url(#pf770cb35a8)" style="fill: #ffffff; stroke: #ffffff; stroke-linejoin: miter"/>
    </g>
    <g clip-path="url(#pf770cb35a8)">
     <!-- 11 -->
     <g transform="translate(882.412701 282.903538) rotate(-45.678152) scale(0.09 -0.09)">
      <use xlink:href="#DejaVuSans-31"/>
      <use xlink:href="#DejaVuSans-31" transform="translate(63.623047 0)"/>
     </g>
    </g>
   </g>
   <g id="PathCollection_2">
    <path d="M 741.054311 75.561623 
C 743.233177 75.561623 745.323095 74.695951 746.863786 73.15526 
C 748.404477 71.614569 749.27015 69.524651 749.27015 67.345785 
C 749.27015 65.166919 748.404477 63.077001 746.863786 61.53631 
C 745.323095 59.995619 743.233177 59.129947 741.054311 59.129947 
C 738.875445 59.129947 736.785527 59.995619 735.244836 61.53631 
C 733.704145 63.077001 732.838473 65.166919 732.838473 67.345785 
C 732.838473 69.524651 733.704145 71.614569 735.244836 73.15526 
C 736.785527 74.695951 738.875445 75.561623 741.054311 75.561623 
z
" clip-path="url(#pf770cb35a8)" style="fill: #add8e6; stroke: #add8e6"/>
    <path d="M 909.085889 406.025492 
C 915.001166 406.025492 920.674966 403.675328 924.857699 399.492595 
C 929.040432 395.309862 931.390597 389.636062 931.390597 383.720784 
C 931.390597 377.805507 929.040432 372.131707 924.857699 367.948974 
C 920.674966 363.766241 915.001166 361.416076 909.085889 361.416076 
C 903.170611 361.416076 897.496811 363.766241 893.314078 367.948974 
C 889.131345 372.131707 886.781181 377.805507 886.781181 383.720784 
C 886.781181 389.636062 889.131345 395.309862 893.314078 399.492595 
C 897.496811 403.675328 903.170611 406.025492 909.085889 406.025492 
z
" clip-path="url(#pf770cb35a8)" style="fill: #add8e6; stroke: #add8e6"/>
    <path d="M 810.96131 377.311429 
C 817.538133 377.311429 823.846472 374.69843 828.496988 370.047913 
C 833.147505 365.397397 835.760504 359.089059 835.760504 352.512236 
C 835.760504 345.935413 833.147505 339.627074 828.496988 334.976558 
C 823.846472 330.326041 817.538133 327.713042 810.96131 327.713042 
C 804.384487 327.713042 798.076149 330.326041 793.425633 334.976558 
C 788.775116 339.627074 786.162117 345.935413 786.162117 352.512236 
C 786.162117 359.089059 788.775116 365.397397 793.425633 370.047913 
C 798.076149 374.69843 804.384487 377.311429 810.96131 377.311429 
z
" clip-path="url(#pf770cb35a8)" style="fill: #ffa500; stroke: #ffa500"/>
    <path d="M 553.68595 460.639909 
C 555.782565 460.639909 557.79359 459.806915 559.27612 458.324385 
C 560.758651 456.841854 561.591645 454.830829 561.591645 452.734215 
C 561.591645 450.6376 560.758651 448.626575 559.27612 447.144045 
C 557.79359 445.661515 555.782565 444.828521 553.68595 444.828521 
C 551.589336 444.828521 549.578311 445.661515 548.09578 447.144045 
C 546.61325 448.626575 545.780256 450.6376 545.780256 452.734215 
C 545.780256 454.830829 546.61325 456.841854 548.09578 458.324385 
C 549.578311 459.806915 551.589336 460.639909 553.68595 460.639909 
z
" clip-path="url(#pf770cb35a8)" style="fill: #add8e6; stroke: #add8e6"/>
    <path d="M 958.31405 207.330295 
C 959.82594 207.330295 961.276111 206.729614 962.345178 205.660546 
C 963.414246 204.591479 964.014927 203.141308 964.014927 201.629418 
C 964.014927 200.117527 963.414246 198.667357 962.345178 197.598289 
C 961.276111 196.529221 959.82594 195.92854 958.31405 195.92854 
C 956.802159 195.92854 955.351989 196.529221 954.282921 197.598289 
C 953.213853 198.667357 952.613172 200.117527 952.613172 201.629418 
C 952.613172 203.141308 953.213853 204.591479 954.282921 205.660546 
C 955.351989 206.729614 956.802159 207.330295 958.31405 207.330295 
z
" clip-path="url(#pf770cb35a8)" style="fill: #add8e6; stroke: #add8e6"/>
   </g>
   <g id="text_34">
    <g clip-path="url(#pf770cb35a8)">
     <!-- A -->
     <g transform="translate(736.949936 70.657035) scale(0.12 -0.12)">
      <defs>
       <path id="DejaVuSans-41" d="M 2188 4044 
L 1331 1722 
L 3047 1722 
L 2188 4044 
z
M 1831 4666 
L 2547 4666 
L 4325 0 
L 3669 0 
L 3244 1197 
L 1141 1197 
L 716 0 
L 50 0 
L 1831 4666 
z
" transform="scale(0.015625)"/>
      </defs>
      <use xlink:href="#DejaVuSans-41"/>
     </g>
    </g>
   </g>
   <g id="text_35">
    <g clip-path="url(#pf770cb35a8)">
     <!-- nf -->
     <g transform="translate(903.171201 387.032034) scale(0.12 -0.12)">
      <use xlink:href="#DejaVuSans-6e"/>
      <use xlink:href="#DejaVuSans-66" transform="translate(63.378906 0)"/>
     </g>
    </g>
   </g>
   <g id="text_36">
    <g clip-path="url(#pf770cb35a8)">
     <!-- C -->
     <g transform="translate(806.771623 355.823486) scale(0.12 -0.12)">
      <use xlink:href="#DejaVuSans-43"/>
     </g>
    </g>
   </g>
   <g id="text_37">
    <g clip-path="url(#pf770cb35a8)">
     <!-- B -->
     <g transform="translate(549.569388 456.045465) scale(0.12 -0.12)">
      <defs>
       <path id="DejaVuSans-42" d="M 1259 2228 
L 1259 519 
L 2272 519 
Q 2781 519 3026 730 
Q 3272 941 3272 1375 
Q 3272 1813 3026 2020 
Q 2781 2228 2272 2228 
L 1259 2228 
z
M 1259 4147 
L 1259 2741 
L 2194 2741 
Q 2656 2741 2882 2914 
Q 3109 3088 3109 3444 
Q 3109 3797 2882 3972 
Q 2656 4147 2194 4147 
L 1259 4147 
z
M 628 4666 
L 2241 4666 
Q 2963 4666 3353 4366 
Q 3744 4066 3744 3513 
Q 3744 3084 3544 2831 
Q 3344 2578 2956 2516 
Q 3422 2416 3680 2098 
Q 3938 1781 3938 1306 
Q 3938 681 3513 340 
Q 3088 0 2303 0 
L 628 0 
L 628 4666 
z
" transform="scale(0.015625)"/>
      </defs>
      <use xlink:href="#DejaVuSans-42"/>
     </g>
    </g>
   </g>
   <g id="text_38">
    <g clip-path="url(#pf770cb35a8)">
     <!-- D -->
     <g transform="translate(953.69405 204.940668) scale(0.12 -0.12)">
      <defs>
       <path id="DejaVuSans-44" d="M 1259 4147 
L 1259 519 
L 2022 519 
Q 2988 519 3436 956 
Q 3884 1394 3884 2338 
Q 3884 3275 3436 3711 
Q 2988 4147 2022 4147 
L 1259 4147 
z
M 628 4666 
L 1925 4666 
Q 3281 4666 3915 4102 
Q 4550 3538 4550 2338 
Q 4550 1131 3912 565 
Q 3275 0 1925 0 
L 628 0 
L 628 4666 
z
" transform="scale(0.015625)"/>
      </defs>
      <use xlink:href="#DejaVuSans-44"/>
     </g>
    </g>
   </g>
   <g id="text_39">
    <!-- Group G2 - Central Whale: C -->
    <g transform="translate(670.742813 20.88) scale(0.12 -0.12)">
     <use xlink:href="#DejaVuSans-47"/>
     <use xlink:href="#DejaVuSans-72" transform="translate(77.490234 0)"/>
     <use xlink:href="#DejaVuSans-6f" transform="translate(116.353516 0)"/>
     <use xlink:href="#DejaVuSans-75" transform="translate(177.535156 0)"/>
     <use xlink:href="#DejaVuSans-70" transform="translate(240.914062 0)"/>
     <use xlink:href="#DejaVuSans-20" transform="translate(304.390625 0)"/>
     <use xlink:href="#DejaVuSans-47" transform="translate(336.177734 0)"/>
     <use xlink:href="#DejaVuSans-32" transform="translate(413.667969 0)"/>
     <use xlink:href="#DejaVuSans-20" transform="translate(477.291016 0)"/>
     <use xlink:href="#DejaVuSans-2d" transform="translate(509.078125 0)"/>
     <use xlink:href="#DejaVuSans-20" transform="translate(545.162109 0)"/>
     <use xlink:href="#DejaVuSans-43" transform="translate(576.949219 0)"/>
     <use xlink:href="#DejaVuSans-65" transform="translate(646.773438 0)"/>
     <use xlink:href="#DejaVuSans-6e" transform="translate(708.296875 0)"/>
     <use xlink:href="#DejaVuSans-74" transform="translate(771.675781 0)"/>
     <use xlink:href="#DejaVuSans-72" transform="translate(810.884766 0)"/>
     <use xlink:href="#DejaVuSans-61" transform="translate(851.998047 0)"/>
     <use xlink:href="#DejaVuSans-6c" transform="translate(913.277344 0)"/>
     <use xlink:href="#DejaVuSans-20" transform="translate(941.060547 0)"/>
     <use xlink:href="#DejaVuSans-57" transform="translate(972.847656 0)"/>
     <use xlink:href="#DejaVuSans-68" transform="translate(1071.724609 0)"/>
     <use xlink:href="#DejaVuSans-61" transform="translate(1135.103516 0)"/>
     <use xlink:href="#DejaVuSans-6c" transform="translate(1196.382812 0)"/>
     <use xlink:href="#DejaVuSans-65" transform="translate(1224.166016 0)"/>
     <use xlink:href="#DejaVuSans-3a" transform="translate(1285.689453 0)"/>
     <use xlink:href="#DejaVuSans-20" transform="translate(1319.380859 0)"/>
     <use xlink:href="#DejaVuSans-43" transform="translate(1351.167969 0)"/>
    </g>
   </g>
  </g>
  <g id="axes_3">
   <g id="patch_56">
    <path d="M 1140.905215 81.863095 
Q 1192.112801 141.23322 1239.669263 196.370228 
" clip-path="url(#p7f3f7e202e)" style="fill: none; stroke: #808080; stroke-width: 5; stroke-linecap: round"/>
    <path d="M 1238.022194 189.86737 
L 1239.669263 196.370228 
L 1233.478735 193.786168 
z
" clip-path="url(#p7f3f7e202e)" style="fill: #808080; stroke: #808080; stroke-width: 5; stroke-linecap: round"/>
   </g>
   <g id="patch_57">
    <path d="M 1134.509712 85.506787 
Q 1172.939054 199.435677 1210.224899 309.974522 
" clip-path="url(#p7f3f7e202e)" style="fill: none; stroke: #808080; stroke-width: 3.2; stroke-linecap: round"/>
    <path d="M 1211.149838 303.33039 
L 1210.224899 309.974522 
L 1205.464557 305.248091 
z
" clip-path="url(#p7f3f7e202e)" style="fill: #808080; stroke: #808080; stroke-width: 3.2; stroke-linecap: round"/>
   </g>
   <g id="patch_58">
    <path d="M 1141.259629 81.547258 
Q 1294.703279 250.789204 1447.69635 419.534181 
" clip-path="url(#p7f3f7e202e)" style="fill: none; stroke: #808080; stroke-width: 0.6; stroke-linecap: round"/>
    <path d="M 1445.888767 413.0741 
L 1447.69635 419.534181 
L 1441.443736 417.104199 
z
" clip-path="url(#p7f3f7e202e)" style="fill: #808080; stroke: #808080; stroke-width: 0.6; stroke-linecap: round"/>
   </g>
   <g id="patch_59">
    <path d="M 1124.755434 86.16652 
Q 1090.939791 261.570694 1057.46278 435.218359 
" clip-path="url(#p7f3f7e202e)" style="fill: none; stroke: #808080; stroke-width: 1.6; stroke-linecap: round"/>
    <path d="M 1061.544344 429.894748 
L 1057.46278 435.218359 
L 1055.65283 428.758941 
z
" clip-path="url(#p7f3f7e202e)" style="fill: #808080; stroke: #808080; stroke-width: 1.6; stroke-linecap: round"/>
   </g>
   <g id="patch_60">
    <path d="M 1243.323385 200.60682 
Q 1192.113932 141.234531 1148.936955 91.175101 
" clip-path="url(#p7f3f7e202e)" style="fill: none; stroke: #808080; stroke-width: 11; stroke-linecap: round"/>
    <path d="M 1150.584024 97.67796 
L 1148.936955 91.175101 
L 1155.127483 93.759161 
z
" clip-path="url(#p7f3f7e202e)" style="fill: #808080; stroke: #808080; stroke-width: 11; stroke-linecap: round"/>
   </g>
   <g id="patch_61">
    <path d="M 1280.623971 242.04803 
Q 1364.284405 331.13337 1443.811868 415.81774 
" clip-path="url(#p7f3f7e202e)" style="fill: none; stroke: #808080; stroke-width: 5.4; stroke-linecap: round"/>
    <path d="M 1441.891348 409.39033 
L 1443.811868 415.81774 
L 1437.517628 413.497709 
z
" clip-path="url(#p7f3f7e202e)" style="fill: #808080; stroke: #808080; stroke-width: 5.4; stroke-linecap: round"/>
   </g>
   <g id="patch_62">
    <path d="M 1242.905169 242.464331 
Q 1153.855944 341.629926 1067.047716 438.299938 
" clip-path="url(#p7f3f7e202e)" style="fill: none; stroke: #808080; stroke-width: 3; stroke-linecap: round"/>
    <path d="M 1073.288649 435.840111 
L 1067.047716 438.299938 
L 1068.824415 431.831295 
z
" clip-path="url(#p7f3f7e202e)" style="fill: #808080; stroke: #808080; stroke-width: 3; stroke-linecap: round"/>
   </g>
   <g id="patch_63">
    <path d="M 1252.639075 248.143679 
Q 1241.662529 280.753175 1239.388796 287.508057 
" clip-path="url(#p7f3f7e202e)" style="fill: none; stroke: #808080; stroke-width: 24.4; stroke-linecap: round"/>
    <path d="M 1244.146149 282.778618 
L 1239.388796 287.508057 
L 1238.459656 280.864511 
z
" clip-path="url(#p7f3f7e202e)" style="fill: #808080; stroke: #808080; stroke-width: 24.4; stroke-linecap: round"/>
   </g>
   <g id="patch_64">
    <path d="M 1195.824647 358.746701 
Q 1131.641474 401.306828 1075.658051 438.429666 
" clip-path="url(#p7f3f7e202e)" style="fill: none; stroke: #808080; stroke-width: 8.8; stroke-linecap: round"/>
    <path d="M 1082.316488 437.614063 
L 1075.658051 438.429666 
L 1079.000631 432.613554 
z
" clip-path="url(#p7f3f7e202e)" style="fill: #808080; stroke: #808080; stroke-width: 8.8; stroke-linecap: round"/>
   </g>
   <g id="patch_65">
    <path d="M 1230.687772 313.357353 
Q 1241.663305 280.750869 1248.002093 261.919384 
" clip-path="url(#p7f3f7e202e)" style="fill: none; stroke: #808080; stroke-width: 13; stroke-linecap: round"/>
    <path d="M 1243.24474 266.648823 
L 1248.002093 261.919384 
L 1248.931232 268.562929 
z
" clip-path="url(#p7f3f7e202e)" style="fill: #808080; stroke: #808080; stroke-width: 13; stroke-linecap: round"/>
   </g>
   <g id="patch_66">
    <path d="M 1211.368155 313.363856 
Q 1172.93966 199.437473 1137.369905 93.986207 
" clip-path="url(#p7f3f7e202e)" style="fill: none; stroke: #808080; stroke-width: 8; stroke-linecap: round"/>
    <path d="M 1136.444966 100.630339 
L 1137.369905 93.986207 
L 1142.130247 98.712637 
z
" clip-path="url(#p7f3f7e202e)" style="fill: #808080; stroke: #808080; stroke-width: 8; stroke-linecap: round"/>
   </g>
   <g id="patch_67">
    <path d="M 1249.335824 352.703374 
Q 1346.665581 389.41867 1436.045127 423.134942 
" clip-path="url(#p7f3f7e202e)" style="fill: none; stroke: #808080; stroke-width: 7.6; stroke-linecap: round"/>
    <path d="M 1431.490117 418.210322 
L 1436.045127 423.134942 
L 1429.372425 423.824178 
z
" clip-path="url(#p7f3f7e202e)" style="fill: #808080; stroke: #808080; stroke-width: 7.6; stroke-linecap: round"/>
   </g>
   <g id="patch_68">
    <path d="M 1070.110917 451.900627 
Q 1256.557228 442.202051 1441.440405 432.584786 
" clip-path="url(#p7f3f7e202e)" style="fill: none; stroke: #808080; stroke-width: 1.4; stroke-linecap: round"/>
    <path d="M 1435.292663 429.900523 
L 1441.440405 432.584786 
L 1435.60435 435.892422 
z
" clip-path="url(#p7f3f7e202e)" style="fill: #808080; stroke: #808080; stroke-width: 1.4; stroke-linecap: round"/>
   </g>
   <g id="patch_69">
    <path d="M 1067.457622 443.867405 
Q 1131.643127 401.305731 1191.728758 361.462702 
" clip-path="url(#p7f3f7e202e)" style="fill: none; stroke: #808080; stroke-width: 4.4; stroke-linecap: round"/>
    <path d="M 1185.07032 362.278306 
L 1191.728758 361.462702 
L 1188.386178 367.278814 
z
" clip-path="url(#p7f3f7e202e)" style="fill: #808080; stroke: #808080; stroke-width: 4.4; stroke-linecap: round"/>
   </g>
   <g id="patch_70">
    <path d="M 1064.807157 440.795034 
Q 1153.854244 341.63182 1242.60253 242.80135 
" clip-path="url(#p7f3f7e202e)" style="fill: none; stroke: #808080; stroke-width: 0.4; stroke-linecap: round"/>
    <path d="M 1236.361597 245.261177 
L 1242.60253 242.80135 
L 1240.825832 249.269993 
z
" clip-path="url(#p7f3f7e202e)" style="fill: #808080; stroke: #808080; stroke-width: 0.4; stroke-linecap: round"/>
   </g>
   <g id="patch_71">
    <path d="M 1443.003964 432.503452 
Q 1256.557905 442.202016 1071.22837 451.842499 
" clip-path="url(#p7f3f7e202e)" style="fill: none; stroke: #808080; stroke-linecap: round"/>
    <path d="M 1077.376113 454.526762 
L 1071.22837 451.842499 
L 1077.064426 448.534863 
z
" clip-path="url(#p7f3f7e202e)" style="fill: #808080; stroke: #808080; stroke-linecap: round"/>
   </g>
   <g id="patch_72">
    <path d="M 1443.993418 426.133242 
Q 1346.665997 389.418827 1253.313682 354.203925 
" clip-path="url(#p7f3f7e202e)" style="fill: none; stroke: #808080; stroke-width: 3.8; stroke-linecap: round"/>
    <path d="M 1257.868693 359.128545 
L 1253.313682 354.203925 
L 1259.986384 353.514688 
z
" clip-path="url(#p7f3f7e202e)" style="fill: #808080; stroke: #808080; stroke-width: 3.8; stroke-linecap: round"/>
   </g>
   <g id="text_40">
    <g id="patch_73">
     <path d="M 1185.877772 144.806341 
L 1193.357779 153.478668 
Q 1195.121238 155.523224 1197.165795 153.759765 
L 1203.761619 148.070771 
Q 1205.806175 146.307312 1204.042716 144.262756 
L 1196.562709 135.590429 
Q 1194.79925 133.545872 1192.754694 135.309331 
L 1186.158869 140.998325 
Q 1184.114313 142.761784 1185.877772 144.806341 
z
" clip-path="url(#p7f3f7e202e)" style="fill: #ffffff; stroke: #ffffff; stroke-linejoin: miter"/>
    </g>
    <g clip-path="url(#p7f3f7e202e)">
     <!-- 25 -->
     <g transform="translate(1189.339675 141.8204) rotate(-310.778242) scale(0.09 -0.09)">
      <use xlink:href="#DejaVuSans-32"/>
      <use xlink:href="#DejaVuSans-35" transform="translate(63.623047 0)"/>
     </g>
    </g>
   </g>
   <g id="text_41">
    <g id="patch_74">
     <path d="M 1166.193887 201.512523 
L 1169.8543 212.364303 
Q 1170.717266 214.92268 1173.275642 214.059714 
L 1181.529071 211.275751 
Q 1184.087448 210.412785 1183.224482 207.854409 
L 1179.564069 197.002628 
Q 1178.701104 194.444252 1176.142727 195.307218 
L 1167.889298 198.091181 
Q 1165.330922 198.954146 1166.193887 201.512523 
z
" clip-path="url(#p7f3f7e202e)" style="fill: #ffffff; stroke: #ffffff; stroke-linejoin: miter"/>
    </g>
    <g clip-path="url(#p7f3f7e202e)">
     <!-- 16 -->
     <g transform="translate(1170.525805 200.051324) rotate(-288.63976) scale(0.09 -0.09)">
      <use xlink:href="#DejaVuSans-31"/>
      <use xlink:href="#DejaVuSans-36" transform="translate(63.623047 0)"/>
     </g>
    </g>
   </g>
   <g id="text_42">
    <g id="patch_75">
     <path d="M 1286.400834 252.13565 
L 1290.247059 256.377876 
Q 1292.060604 258.37814 1294.060868 256.564596 
L 1300.513803 250.714026 
Q 1302.514067 248.900481 1300.700522 246.900217 
L 1296.854297 242.65799 
Q 1295.040752 240.657726 1293.040488 242.471271 
L 1286.587553 248.321841 
Q 1284.587289 250.135386 1286.400834 252.13565 
z
" clip-path="url(#p7f3f7e202e)" style="fill: #ffffff; stroke: #ffffff; stroke-linejoin: miter"/>
    </g>
    <g clip-path="url(#p7f3f7e202e)">
     <!-- 3 -->
     <g transform="translate(1289.787739 249.064903) rotate(-312.197106) scale(0.09 -0.09)">
      <use xlink:href="#DejaVuSans-33"/>
     </g>
    </g>
   </g>
   <g id="text_43">
    <g id="patch_76">
     <path d="M 1097.620129 264.188769 
L 1098.704115 258.566055 
Q 1099.215229 255.914873 1096.564047 255.40376 
L 1088.011225 253.754887 
Q 1085.360044 253.243774 1084.84893 255.894955 
L 1083.764944 261.517669 
Q 1083.253831 264.168851 1085.905012 264.679964 
L 1094.457834 266.328837 
Q 1097.109016 266.83995 1097.620129 264.188769 
z
" clip-path="url(#p7f3f7e202e)" style="fill: #ffffff; stroke: #ffffff; stroke-linejoin: miter"/>
    </g>
    <g clip-path="url(#p7f3f7e202e)">
     <!-- 8 -->
     <g transform="translate(1093.131071 263.323337) rotate(-79.087993) scale(0.09 -0.09)">
      <use xlink:href="#DejaVuSans-38"/>
     </g>
    </g>
   </g>
   <g id="text_44">
    <g id="patch_77">
     <path d="M 1185.874653 144.802725 
L 1193.35466 153.475052 
Q 1195.118119 155.519608 1197.162676 153.756149 
L 1203.7585 148.067155 
Q 1205.803057 146.303696 1204.039597 144.25914 
L 1196.559591 135.586813 
Q 1194.796131 133.542256 1192.751575 135.305715 
L 1186.15575 140.994709 
Q 1184.111194 142.758168 1185.874653 144.802725 
z
" clip-path="url(#p7f3f7e202e)" style="fill: #ffffff; stroke: #ffffff; stroke-linejoin: miter"/>
    </g>
    <g clip-path="url(#p7f3f7e202e)">
     <!-- 55 -->
     <g transform="translate(1189.336556 141.816784) rotate(-310.778242) scale(0.09 -0.09)">
      <use xlink:href="#DejaVuSans-35"/>
      <use xlink:href="#DejaVuSans-35" transform="translate(63.623047 0)"/>
     </g>
    </g>
   </g>
   <g id="text_45">
    <g id="patch_78">
     <path d="M 1351.062564 327.360235 
L 1358.902525 335.708574 
Q 1360.750846 337.676748 1362.71902 335.828427 
L 1369.068432 329.865667 
Q 1371.036606 328.017346 1369.188285 326.049172 
L 1361.348324 317.700833 
Q 1359.500003 315.732659 1357.531829 317.58098 
L 1351.182417 323.54374 
Q 1349.214243 325.392061 1351.062564 327.360235 
z
" clip-path="url(#p7f3f7e202e)" style="fill: #ffffff; stroke: #ffffff; stroke-linejoin: miter"/>
    </g>
    <g clip-path="url(#p7f3f7e202e)">
     <!-- 27 -->
     <g transform="translate(1354.395134 324.230604) rotate(-313.201275) scale(0.09 -0.09)">
      <use xlink:href="#DejaVuSans-32"/>
      <use xlink:href="#DejaVuSans-37" transform="translate(63.623047 0)"/>
     </g>
    </g>
   </g>
   <g id="text_46">
    <g id="patch_79">
     <path d="M 1159.235617 346.19856 
L 1166.887445 337.677452 
Q 1168.691412 335.668547 1166.682506 333.864579 
L 1160.201693 328.044906 
Q 1158.192787 326.240938 1156.38882 328.249844 
L 1148.736992 336.770952 
Q 1146.933025 338.779858 1148.94193 340.583825 
L 1155.422744 346.403499 
Q 1157.431649 348.207466 1159.235617 346.19856 
z
" clip-path="url(#p7f3f7e202e)" style="fill: #ffffff; stroke: #ffffff; stroke-linejoin: miter"/>
    </g>
    <g clip-path="url(#p7f3f7e202e)">
     <!-- 15 -->
     <g transform="translate(1155.834079 343.14403) rotate(-48.076634) scale(0.09 -0.09)">
      <use xlink:href="#DejaVuSans-31"/>
      <use xlink:href="#DejaVuSans-35" transform="translate(63.623047 0)"/>
     </g>
    </g>
   </g>
   <g id="text_47">
    <g id="patch_80">
     <path d="M 1245.231833 292.26461 
L 1250.71216 275.983472 
Q 1251.573507 273.42455 1249.014586 272.563202 
L 1240.759398 269.784458 
Q 1238.200477 268.92311 1237.339129 271.482032 
L 1231.858802 287.76317 
Q 1230.997454 290.322092 1233.556376 291.18344 
L 1241.811564 293.962184 
Q 1244.370485 294.823532 1245.231833 292.26461 
z
" clip-path="url(#p7f3f7e202e)" style="fill: #ffffff; stroke: #ffffff; stroke-linejoin: miter"/>
    </g>
    <g clip-path="url(#p7f3f7e202e)">
     <!-- 122 -->
     <g transform="translate(1240.898993 290.806151) rotate(-71.396467) scale(0.09 -0.09)">
      <use xlink:href="#DejaVuSans-31"/>
      <use xlink:href="#DejaVuSans-32" transform="translate(63.623047 0)"/>
      <use xlink:href="#DejaVuSans-32" transform="translate(127.246094 0)"/>
     </g>
    </g>
   </g>
   <g id="text_48">
    <g id="patch_81">
     <path d="M 1136.688079 406.425729 
L 1146.2328 400.096586 
Q 1148.483029 398.604449 1146.990893 396.354221 
L 1142.1772 389.094888 
Q 1140.685064 386.84466 1138.434835 388.336796 
L 1128.890114 394.665939 
Q 1126.639885 396.158075 1128.132021 398.408304 
L 1132.945714 405.667636 
Q 1134.43785 407.917865 1136.688079 406.425729 
z
" clip-path="url(#p7f3f7e202e)" style="fill: #ffffff; stroke: #ffffff; stroke-linejoin: miter"/>
    </g>
    <g clip-path="url(#p7f3f7e202e)">
     <!-- 44 -->
     <g transform="translate(1134.161551 402.615576) rotate(-33.548522) scale(0.09 -0.09)">
      <use xlink:href="#DejaVuSans-34"/>
      <use xlink:href="#DejaVuSans-34" transform="translate(63.623047 0)"/>
     </g>
    </g>
   </g>
   <g id="text_49">
    <g id="patch_82">
     <path d="M 1246.144761 289.552453 
L 1249.798312 278.69836 
Q 1250.65966 276.139439 1248.100739 275.278091 
L 1239.845551 272.499347 
Q 1237.286629 271.637999 1236.425281 274.19692 
L 1232.77173 285.051013 
Q 1231.910383 287.609934 1234.469304 288.471282 
L 1242.724492 291.250026 
Q 1245.283413 292.111374 1246.144761 289.552453 
z
" clip-path="url(#p7f3f7e202e)" style="fill: #ffffff; stroke: #ffffff; stroke-linejoin: miter"/>
    </g>
    <g clip-path="url(#p7f3f7e202e)">
     <!-- 65 -->
     <g transform="translate(1241.811921 288.093993) rotate(-71.396467) scale(0.09 -0.09)">
      <use xlink:href="#DejaVuSans-36"/>
      <use xlink:href="#DejaVuSans-35" transform="translate(63.623047 0)"/>
     </g>
    </g>
   </g>
   <g id="text_50">
    <g id="patch_83">
     <path d="M 1166.196305 201.519689 
L 1169.856717 212.371469 
Q 1170.719683 214.929846 1173.278059 214.06688 
L 1181.531489 211.282917 
Q 1184.089865 210.419951 1183.226899 207.861575 
L 1179.566487 197.009794 
Q 1178.703521 194.451418 1176.145144 195.314384 
L 1167.891715 198.098347 
Q 1165.333339 198.961313 1166.196305 201.519689 
z
" clip-path="url(#p7f3f7e202e)" style="fill: #ffffff; stroke: #ffffff; stroke-linejoin: miter"/>
    </g>
    <g clip-path="url(#p7f3f7e202e)">
     <!-- 40 -->
     <g transform="translate(1170.528222 200.05849) rotate(-288.63976) scale(0.09 -0.09)">
      <use xlink:href="#DejaVuSans-34"/>
      <use xlink:href="#DejaVuSans-30" transform="translate(63.623047 0)"/>
     </g>
    </g>
   </g>
   <g id="text_51">
    <g id="patch_84">
     <path d="M 1332.029271 391.437915 
L 1342.744719 395.480058 
Q 1345.270955 396.43302 1346.223916 393.906784 
L 1349.298208 385.757044 
Q 1350.251169 383.230808 1347.724934 382.277847 
L 1337.009486 378.235704 
Q 1334.48325 377.282742 1333.530289 379.808978 
L 1330.455997 387.958718 
Q 1329.503036 390.484954 1332.029271 391.437915 
z
" clip-path="url(#p7f3f7e202e)" style="fill: #ffffff; stroke: #ffffff; stroke-linejoin: miter"/>
    </g>
    <g clip-path="url(#p7f3f7e202e)">
     <!-- 38 -->
     <g transform="translate(1333.642853 387.160419) rotate(-339.33223) scale(0.09 -0.09)">
      <use xlink:href="#DejaVuSans-33"/>
      <use xlink:href="#DejaVuSans-38" transform="translate(63.623047 0)"/>
     </g>
    </g>
   </g>
   <g id="text_52">
    <g id="patch_85">
     <path d="M 1253.905978 449.404659 
L 1259.624497 449.107192 
Q 1262.320851 448.966933 1262.180592 446.270579 
L 1261.72811 437.572027 
Q 1261.587851 434.875672 1258.891497 435.015932 
L 1253.172978 435.313398 
Q 1250.476624 435.453657 1250.616883 438.150011 
L 1251.069365 446.848563 
Q 1251.209624 449.544918 1253.905978 449.404659 
z
" clip-path="url(#p7f3f7e202e)" style="fill: #ffffff; stroke: #ffffff; stroke-linejoin: miter"/>
    </g>
    <g clip-path="url(#p7f3f7e202e)">
     <!-- 7 -->
     <g transform="translate(1253.668488 444.839113) rotate(-2.977732) scale(0.09 -0.09)">
      <use xlink:href="#DejaVuSans-37"/>
     </g>
    </g>
   </g>
   <g id="text_53">
    <g id="patch_86">
     <path d="M 1136.688075 406.425732 
L 1146.232796 400.096588 
Q 1148.483025 398.604452 1146.990889 396.354223 
L 1142.177196 389.094891 
Q 1140.68506 386.844662 1138.434831 388.336798 
L 1128.89011 394.665942 
Q 1126.639881 396.158078 1128.132017 398.408307 
L 1132.945711 405.667639 
Q 1134.437847 407.917868 1136.688075 406.425732 
z
" clip-path="url(#p7f3f7e202e)" style="fill: #ffffff; stroke: #ffffff; stroke-linejoin: miter"/>
    </g>
    <g clip-path="url(#p7f3f7e202e)">
     <!-- 22 -->
     <g transform="translate(1134.161547 402.615579) rotate(-33.548522) scale(0.09 -0.09)">
      <use xlink:href="#DejaVuSans-32"/>
      <use xlink:href="#DejaVuSans-32" transform="translate(63.623047 0)"/>
     </g>
    </g>
   </g>
   <g id="text_54">
    <g id="patch_87">
     <path d="M 1161.14363 344.073789 
L 1164.969544 339.813235 
Q 1166.773511 337.804329 1164.764605 336.000362 
L 1158.283792 330.180688 
Q 1156.274886 328.376721 1154.470919 330.385627 
L 1150.645005 334.646181 
Q 1148.841038 336.655086 1150.849944 338.459054 
L 1157.330757 344.278727 
Q 1159.339663 346.082695 1161.14363 344.073789 
z
" clip-path="url(#p7f3f7e202e)" style="fill: #ffffff; stroke: #ffffff; stroke-linejoin: miter"/>
    </g>
    <g clip-path="url(#p7f3f7e202e)">
     <!-- 2 -->
     <g transform="translate(1157.742092 341.019259) rotate(-48.076634) scale(0.09 -0.09)">
      <use xlink:href="#DejaVuSans-32"/>
     </g>
    </g>
   </g>
   <g id="text_55">
    <g id="patch_88">
     <path d="M 1253.908503 449.404527 
L 1259.627022 449.107061 
Q 1262.323376 448.966802 1262.183117 446.270447 
L 1261.730635 437.571896 
Q 1261.590376 434.875541 1258.894022 435.0158 
L 1253.175503 435.313267 
Q 1250.479149 435.453526 1250.619408 438.14988 
L 1251.07189 446.848432 
Q 1251.212149 449.544786 1253.908503 449.404527 
z
" clip-path="url(#p7f3f7e202e)" style="fill: #ffffff; stroke: #ffffff; stroke-linejoin: miter"/>
    </g>
    <g clip-path="url(#p7f3f7e202e)">
     <!-- 5 -->
     <g transform="translate(1253.671012 444.838981) rotate(-2.977732) scale(0.09 -0.09)">
      <use xlink:href="#DejaVuSans-35"/>
     </g>
    </g>
   </g>
   <g id="text_56">
    <g id="patch_89">
     <path d="M 1332.026075 391.436709 
L 1342.741524 395.478853 
Q 1345.267759 396.431814 1346.22072 393.905579 
L 1349.295013 385.755838 
Q 1350.247974 383.229603 1347.721738 382.276642 
L 1337.00629 378.234498 
Q 1334.480055 377.281537 1333.527094 379.807772 
L 1330.452801 387.957513 
Q 1329.49984 390.483748 1332.026075 391.436709 
z
" clip-path="url(#p7f3f7e202e)" style="fill: #ffffff; stroke: #ffffff; stroke-linejoin: miter"/>
    </g>
    <g clip-path="url(#p7f3f7e202e)">
     <!-- 19 -->
     <g transform="translate(1333.639657 387.159214) rotate(-339.33223) scale(0.09 -0.09)">
      <use xlink:href="#DejaVuSans-31"/>
      <use xlink:href="#DejaVuSans-39" transform="translate(63.623047 0)"/>
     </g>
    </g>
   </g>
   <g id="PathCollection_3">
    <path d="M 1128.383827 86.516075 
C 1133.467847 86.516075 1138.344323 84.496172 1141.939269 80.901227 
C 1145.534214 77.306282 1147.554116 72.429805 1147.554116 67.345785 
C 1147.554116 62.261765 1145.534214 57.385289 1141.939269 53.790343 
C 1138.344323 50.195398 1133.467847 48.175496 1128.383827 48.175496 
C 1123.299807 48.175496 1118.42333 50.195398 1114.828385 53.790343 
C 1111.23344 57.385289 1109.213537 62.261765 1109.213537 67.345785 
C 1109.213537 72.429805 1111.23344 77.306282 1114.828385 80.901227 
C 1118.42333 84.496172 1123.299807 86.516075 1128.383827 86.516075 
z
" clip-path="url(#p7f3f7e202e)" style="fill: #add8e6; stroke: #add8e6"/>
    <path d="M 1261.533542 249.603382 
C 1268.928383 249.603382 1276.021345 246.665381 1281.250287 241.436439 
C 1286.479228 236.207498 1289.417229 229.114535 1289.417229 221.719695 
C 1289.417229 214.324855 1286.479228 207.231893 1281.250287 202.002951 
C 1276.021345 196.774009 1268.928383 193.836008 1261.533542 193.836008 
C 1254.138702 193.836008 1247.04574 196.774009 1241.816798 202.002951 
C 1236.587857 207.231893 1233.649855 214.324855 1233.649855 221.719695 
C 1233.649855 229.114535 1236.587857 236.207498 1241.816798 241.436439 
C 1247.04574 246.665381 1254.138702 249.603382 1261.533542 249.603382 
z
" clip-path="url(#p7f3f7e202e)" style="fill: #add8e6; stroke: #add8e6"/>
    <path d="M 1221.03696 372.277279 
C 1229.05908 372.277279 1236.753714 369.090057 1242.426209 363.417562 
C 1248.098705 357.745067 1251.285927 350.050432 1251.285927 342.028312 
C 1251.285927 334.006193 1248.098705 326.311558 1242.426209 320.639063 
C 1236.753714 314.966567 1229.05908 311.779345 1221.03696 311.779345 
C 1213.01484 311.779345 1205.320206 314.966567 1199.64771 320.639063 
C 1193.975215 326.311558 1190.787993 334.006193 1190.787993 342.028312 
C 1190.787993 350.050432 1193.975215 357.745067 1199.64771 363.417562 
C 1205.320206 369.090057 1213.01484 372.277279 1221.03696 372.277279 
z
" clip-path="url(#p7f3f7e202e)" style="fill: #ffa500; stroke: #ffa500"/>
    <path d="M 1054.08595 468.781021 
C 1058.341613 468.781021 1062.423548 467.090229 1065.432756 464.081021 
C 1068.441964 461.071813 1070.132757 456.989878 1070.132757 452.734215 
C 1070.132757 448.478552 1068.441964 444.396617 1065.432756 441.387409 
C 1062.423548 438.378201 1058.341613 436.687408 1054.08595 436.687408 
C 1049.830288 436.687408 1045.748353 438.378201 1042.739145 441.387409 
C 1039.729937 444.396617 1038.039144 448.478552 1038.039144 452.734215 
C 1038.039144 456.989878 1039.729937 461.071813 1042.739145 464.081021 
C 1045.748353 467.090229 1049.830288 468.781021 1054.08595 468.781021 
z
" clip-path="url(#p7f3f7e202e)" style="fill: #add8e6; stroke: #add8e6"/>
    <path d="M 1458.71405 447.418377 
C 1462.88626 447.418377 1466.888149 445.76074 1469.838347 442.810542 
C 1472.788546 439.860344 1474.446182 435.858454 1474.446182 431.686244 
C 1474.446182 427.514034 1472.788546 423.512145 1469.838347 420.561946 
C 1466.888149 417.611748 1462.88626 415.954111 1458.71405 415.954111 
C 1454.541839 415.954111 1450.53995 417.611748 1447.589752 420.561946 
C 1444.639554 423.512145 1442.981917 427.514034 1442.981917 431.686244 
C 1442.981917 435.858454 1444.639554 439.860344 1447.589752 442.810542 
C 1450.53995 445.76074 1454.541839 447.418377 1458.71405 447.418377 
z
" clip-path="url(#p7f3f7e202e)" style="fill: #add8e6; stroke: #add8e6"/>
   </g>
   <g id="text_57">
    <g clip-path="url(#p7f3f7e202e)">
     <!-- C -->
     <g transform="translate(1124.194139 70.657035) scale(0.12 -0.12)">
      <use xlink:href="#DejaVuSans-43"/>
     </g>
    </g>
   </g>
   <g id="text_58">
    <g clip-path="url(#p7f3f7e202e)">
     <!-- D -->
     <g transform="translate(1256.913542 225.030945) scale(0.12 -0.12)">
      <use xlink:href="#DejaVuSans-44"/>
     </g>
    </g>
   </g>
   <g id="text_59">
    <g clip-path="url(#p7f3f7e202e)">
     <!-- nf -->
     <g transform="translate(1215.122272 345.339562) scale(0.12 -0.12)">
      <use xlink:href="#DejaVuSans-6e"/>
      <use xlink:href="#DejaVuSans-66" transform="translate(63.378906 0)"/>
     </g>
    </g>
   </g>
   <g id="text_60">
    <g clip-path="url(#p7f3f7e202e)">
     <!-- A -->
     <g transform="translate(1049.981575 456.045465) scale(0.12 -0.12)">
      <use xlink:href="#DejaVuSans-41"/>
     </g>
    </g>
   </g>
   <g id="text_61">
    <g clip-path="url(#p7f3f7e202e)">
     <!-- F -->
     <g transform="translate(1455.263112 434.997494) scale(0.12 -0.12)">
      <use xlink:href="#DejaVuSans-46"/>
     </g>
    </g>
   </g>
   <g id="text_62">
    <!-- Group G3 - Central Whale: nf -->
    <g transform="translate(1169.417813 20.88) scale(0.12 -0.12)">
     <use xlink:href="#DejaVuSans-47"/>
     <use xlink:href="#DejaVuSans-72" transform="translate(77.490234 0)"/>
     <use xlink:href="#DejaVuSans-6f" transform="translate(116.353516 0)"/>
     <use xlink:href="#DejaVuSans-75" transform="translate(177.535156 0)"/>
     <use xlink:href="#DejaVuSans-70" transform="translate(240.914062 0)"/>
     <use xlink:href="#DejaVuSans-20" transform="translate(304.390625 0)"/>
     <use xlink:href="#DejaVuSans-47" transform="translate(336.177734 0)"/>
     <use xlink:href="#DejaVuSans-33" transform="translate(413.667969 0)"/>
     <use xlink:href="#DejaVuSans-20" transform="translate(477.291016 0)"/>
     <use xlink:href="#DejaVuSans-2d" transform="translate(509.078125 0)"/>
     <use xlink:href="#DejaVuSans-20" transform="translate(545.162109 0)"/>
     <use xlink:href="#DejaVuSans-43" transform="translate(576.949219 0)"/>
     <use xlink:href="#DejaVuSans-65" transform="translate(646.773438 0)"/>
     <use xlink:href="#DejaVuSans-6e" transform="translate(708.296875 0)"/>
     <use xlink:href="#DejaVuSans-74" transform="translate(771.675781 0)"/>
     <use xlink:href="#DejaVuSans-72" transform="translate(810.884766 0)"/>
     <use xlink:href="#DejaVuSans-61" transform="translate(851.998047 0)"/>
     <use xlink:href="#DejaVuSans-6c" transform="translate(913.277344 0)"/>
     <use xlink:href="#DejaVuSans-20" transform="translate(941.060547 0)"/>
     <use xlink:href="#DejaVuSans-57" transform="translate(972.847656 0)"/>
     <use xlink:href="#DejaVuSans-68" transform="translate(1071.724609 0)"/>
     <use xlink:href="#DejaVuSans-61" transform="translate(1135.103516 0)"/>
     <use xlink:href="#DejaVuSans-6c" transform="translate(1196.382812 0)"/>
     <use xlink:href="#DejaVuSans-65" transform="translate(1224.166016 0)"/>
     <use xlink:href="#DejaVuSans-3a" transform="translate(1285.689453 0)"/>
     <use xlink:href="#DejaVuSans-20" transform="translate(1319.380859 0)"/>
     <use xlink:href="#DejaVuSans-6e" transform="translate(1351.167969 0)"/>
     <use xlink:href="#DejaVuSans-66" transform="translate(1414.546875 0)"/>
    </g>
   </g>
  </g>
 </g>
 <defs>
  <clipPath id="p6dda950c45">
   <rect x="10.8" y="26.88" width="489.6" height="466.32"/>
  </clipPath>
  <clipPath id="pf770cb35a8">
   <rect x="511.2" y="26.88" width="489.6" height="466.32"/>
  </clipPath>
  <clipPath id="p7f3f7e202e">
   <rect x="1011.6" y="26.88" width="489.6" height="466.32"/>
  </clipPath>
 </defs>
</svg>
