<?xml version="1.0" encoding="utf-8" standalone="no"?>
<!DOCTYPE svg PUBLIC "-//W3C//DTD SVG 1.1//EN"
  "http://www.w3.org/Graphics/SVG/1.1/DTD/svg11.dtd">
<svg xmlns:xlink="http://www.w3.org/1999/xlink" width="1512pt" height="504pt" viewBox="0 0 1512 504" xmlns="http://www.w3.org/2000/svg" version="1.1">
 <metadata>
  <rdf:RDF xmlns:dc="http://purl.org/dc/elements/1.1/" xmlns:cc="http://creativecommons.org/ns#" xmlns:rdf="http://www.w3.org/1999/02/22-rdf-syntax-ns#">
   <cc:Work>
    <dc:type rdf:resource="http://purl.org/dc/dcmitype/StillImage"/>
    <dc:date>2025-05-18T14:07:56.991612</dc:date>
    <dc:format>image/svg+xml</dc:format>
    <dc:creator>
     <cc:Agent>
      <dc:title>Matplotlib v3.10.3, https://matplotlib.org/</dc:title>
     </cc:Agent>
    </dc:creator>
   </cc:Work>
  </rdf:RDF>
 </metadata>
 <defs>
  <style type="text/css">*{stroke-linejoin: round; stroke-linecap: butt}</style>
 </defs>
 <g id="figure_1">
  <g id="patch_1">
   <path d="M 0 504 
L 1512 504 
L 1512 0 
L 0 0 
z
" style="fill: #ffffff"/>
  </g>
  <g id="axes_1">
   <g id="patch_2">
    <path d="M 231.68139 127.672041 
Q 337.715004 280.026335 438.958635 425.498146 
" clip-path="url(#p7c1b64b3c2)" style="fill: none; stroke: #808080; stroke-width: 7.5; stroke-linecap: round"/>
    <path d="M 437.993554 418.859726 
L 438.958635 425.498146 
L 433.068851 422.287159 
z
" clip-path="url(#p7c1b64b3c2)" style="fill: #808080; stroke: #808080; stroke-width: 7.5; stroke-linecap: round"/>
   </g>
   <g id="patch_3">
    <path d="M 220.820713 131.237619 
Q 224.538357 271.074144 228.152005 406.998932 
" clip-path="url(#p7c1b64b3c2)" style="fill: none; stroke: #808080; stroke-width: 3.5; stroke-linecap: round"/>
    <path d="M 230.991488 400.921323 
L 228.152005 406.998932 
L 224.993607 401.08078 
z
" clip-path="url(#p7c1b64b3c2)" style="fill: #808080; stroke: #808080; stroke-width: 3.5; stroke-linecap: round"/>
   </g>
   <g id="patch_4">
    <path d="M 239.830342 107.328483 
Q 328.469071 89.287279 409.986587 72.6955 
" clip-path="url(#p7c1b64b3c2)" style="fill: none; stroke: #808080; stroke-width: 6.5; stroke-linecap: round"/>
    <path d="M 403.508794 70.952457 
L 409.986587 72.6955 
L 404.705476 76.831908 
z
" clip-path="url(#p7c1b64b3c2)" style="fill: #808080; stroke: #808080; stroke-width: 6.5; stroke-linecap: round"/>
   </g>
   <g id="patch_5">
    <path d="M 207.633439 126.70885 
Q 137.733593 211.773354 68.543562 295.974051 
" clip-path="url(#p7c1b64b3c2)" style="fill: none; stroke: #808080; stroke-linecap: round"/>
    <path d="M 74.670665 293.243005 
L 68.543562 295.974051 
L 70.034987 289.433741 
z
" clip-path="url(#p7c1b64b3c2)" style="fill: #808080; stroke: #808080; stroke-linecap: round"/>
   </g>
   <g id="patch_6">
    <path d="M 443.746068 432.376965 
Q 337.713416 280.024052 232.958092 129.506468 
" clip-path="url(#p7c1b64b3c2)" style="fill: none; stroke: #808080; stroke-width: 2; stroke-linecap: round"/>
    <path d="M 233.923173 136.144888 
L 232.958092 129.506468 
L 238.847876 132.717455 
z
" clip-path="url(#p7c1b64b3c2)" style="fill: #808080; stroke: #808080; stroke-width: 2; stroke-linecap: round"/>
   </g>
   <g id="patch_7">
    <path d="M 433.204926 450.585081 
Q 341.934366 442.646611 255.676036 435.144092 
" clip-path="url(#p7c1b64b3c2)" style="fill: none; stroke: #808080; stroke-width: 4.5; stroke-linecap: round"/>
    <path d="M 261.393518 438.65271 
L 255.676036 435.144092 
L 261.91342 432.675277 
z
" clip-path="url(#p7c1b64b3c2)" style="fill: #808080; stroke: #808080; stroke-width: 4.5; stroke-linecap: round"/>
   </g>
   <g id="patch_8">
    <path d="M 456.523508 427.974114 
Q 446.945273 257.423206 437.398384 87.430437 
" clip-path="url(#p7c1b64b3c2)" style="fill: none; stroke: #808080; stroke-width: 0.5; stroke-linecap: round"/>
    <path d="M 434.739537 93.589214 
L 437.398384 87.430437 
L 440.730097 93.25278 
z
" clip-path="url(#p7c1b64b3c2)" style="fill: #808080; stroke: #808080; stroke-width: 0.5; stroke-linecap: round"/>
   </g>
   <g id="patch_9">
    <path d="M 210.668481 420.569024 
Q 141.47862 373.956414 75.070487 329.217831 
" clip-path="url(#p7c1b64b3c2)" style="fill: none; stroke: #808080; stroke-width: 3; stroke-linecap: round"/>
    <path d="M 78.370416 335.058248 
L 75.070487 329.217831 
L 81.722778 330.082138 
z
" clip-path="url(#p7c1b64b3c2)" style="fill: #808080; stroke: #808080; stroke-width: 3; stroke-linecap: round"/>
   </g>
   <g id="patch_10">
    <path d="M 239.651988 413.757565 
Q 333.134697 249.055245 423.58206 89.700744 
" clip-path="url(#p7c1b64b3c2)" style="fill: none; stroke: #808080; stroke-width: 5.5; stroke-linecap: round"/>
    <path d="M 418.011317 93.437966 
L 423.58206 89.700744 
L 423.229392 96.399671 
z
" clip-path="url(#p7c1b64b3c2)" style="fill: #808080; stroke: #808080; stroke-width: 5.5; stroke-linecap: round"/>
   </g>
   <g id="patch_11">
    <path d="M 250.667102 434.708428 
Q 341.936904 442.646832 427.080648 450.052408 
" clip-path="url(#p7c1b64b3c2)" style="fill: none; stroke: #808080; stroke-width: 5.5; stroke-linecap: round"/>
    <path d="M 421.363166 446.54379 
L 427.080648 450.052408 
L 420.843265 452.521223 
z
" clip-path="url(#p7c1b64b3c2)" style="fill: #808080; stroke: #808080; stroke-width: 5.5; stroke-linecap: round"/>
   </g>
   <g id="patch_12">
    <path d="M 228.255865 410.905561 
Q 224.538225 271.069184 220.850298 132.350446 
" clip-path="url(#p7c1b64b3c2)" style="fill: none; stroke: #808080; stroke-linecap: round"/>
    <path d="M 218.010816 138.428056 
L 220.850298 132.350446 
L 224.008696 138.268598 
z
" clip-path="url(#p7c1b64b3c2)" style="fill: #808080; stroke: #808080; stroke-linecap: round"/>
   </g>
   <g id="patch_13">
    <path d="M 74.966425 321.946299 
Q 254.705396 383.332462 417.515888 438.93705 
" clip-path="url(#p7c1b64b3c2)" style="fill: none; stroke: #808080; stroke-width: 16; stroke-linecap: round"/>
    <path d="M 412.807503 434.158859 
L 417.515888 438.93705 
L 410.868304 439.836843 
z
" clip-path="url(#p7c1b64b3c2)" style="fill: #808080; stroke: #808080; stroke-width: 16; stroke-linecap: round"/>
   </g>
   <g id="patch_14">
    <path d="M 67.834149 296.837371 
Q 137.733767 211.773143 205.503942 129.300339 
" clip-path="url(#p7c1b64b3c2)" style="fill: none; stroke: #808080; stroke-width: 3; stroke-linecap: round"/>
    <path d="M 199.376839 132.031384 
L 205.503942 129.300339 
L 204.012516 135.840648 
z
" clip-path="url(#p7c1b64b3c2)" style="fill: #808080; stroke: #808080; stroke-width: 3; stroke-linecap: round"/>
   </g>
   <g id="patch_15">
    <path d="M 72.291432 327.345605 
Q 141.479344 373.956902 203.71293 415.88313 
" clip-path="url(#p7c1b64b3c2)" style="fill: none; stroke: #808080; stroke-width: 7.5; stroke-linecap: round"/>
    <path d="M 200.413002 410.042713 
L 203.71293 415.88313 
L 197.06064 415.018823 
z
" clip-path="url(#p7c1b64b3c2)" style="fill: #808080; stroke: #808080; stroke-width: 7.5; stroke-linecap: round"/>
   </g>
   <g id="patch_16">
    <path d="M 72.53861 302.115214 
Q 246.188969 190.033195 418.899969 78.557481 
" clip-path="url(#p7c1b64b3c2)" style="fill: none; stroke: #808080; stroke-linecap: round"/>
    <path d="M 412.231956 79.290695 
L 418.899969 78.557481 
L 415.485732 84.33182 
z
" clip-path="url(#p7c1b64b3c2)" style="fill: #808080; stroke: #808080; stroke-linecap: round"/>
   </g>
   <g id="patch_17">
    <path d="M 437.367032 86.872187 
Q 446.945226 257.422364 456.209967 422.391167 
" clip-path="url(#p7c1b64b3c2)" style="fill: none; stroke: #808080; stroke-width: 5; stroke-linecap: round"/>
    <path d="M 458.868814 416.23239 
L 456.209967 422.391167 
L 452.878254 416.568823 
z
" clip-path="url(#p7c1b64b3c2)" style="fill: #808080; stroke: #808080; stroke-width: 5; stroke-linecap: round"/>
   </g>
   <g id="patch_18">
    <path d="M 417.106578 71.246323 
Q 328.466503 89.287802 242.01757 106.883303 
" clip-path="url(#p7c1b64b3c2)" style="fill: none; stroke: #808080; stroke-width: 2; stroke-linecap: round"/>
    <path d="M 248.495363 108.626346 
L 242.01757 106.883303 
L 247.298681 102.746895 
z
" clip-path="url(#p7c1b64b3c2)" style="fill: #808080; stroke: #808080; stroke-width: 2; stroke-linecap: round"/>
   </g>
   <g id="patch_19">
    <path d="M 419.840352 77.950514 
Q 246.187609 190.034073 75.82262 299.995562 
" clip-path="url(#p7c1b64b3c2)" style="fill: none; stroke: #808080; stroke-width: 3.5; stroke-linecap: round"/>
    <path d="M 82.490633 299.262348 
L 75.82262 299.995562 
L 79.236857 294.221223 
z
" clip-path="url(#p7c1b64b3c2)" style="fill: #808080; stroke: #808080; stroke-width: 3.5; stroke-linecap: round"/>
   </g>
   <g id="patch_20">
    <path d="M 426.615084 84.357016 
Q 333.133851 249.056736 240.48044 412.297959 
" clip-path="url(#p7c1b64b3c2)" style="fill: none; stroke: #808080; stroke-width: 1.5; stroke-linecap: round"/>
    <path d="M 246.051183 408.560737 
L 240.48044 412.297959 
L 240.833108 405.599032 
z
" clip-path="url(#p7c1b64b3c2)" style="fill: #808080; stroke: #808080; stroke-width: 1.5; stroke-linecap: round"/>
   </g>
   <g id="text_1">
    <g id="patch_21">
     <path d="M 330.040637 281.350052 
L 336.582749 290.75008 
Q 338.125094 292.966197 340.34121 291.423852 
L 347.490495 286.448184 
Q 349.706611 284.905839 348.164267 282.689722 
L 341.622154 273.289694 
Q 340.079809 271.073578 337.863693 272.615923 
L 330.714409 277.591591 
Q 328.498292 279.133936 330.040637 281.350052 
z
" clip-path="url(#p7c1b64b3c2)" style="fill: #ffffff; stroke: #ffffff; stroke-linejoin: miter"/>
    </g>
    <g clip-path="url(#p7c1b64b3c2)">
     <!-- 15 -->
     <g transform="translate(333.79303 278.738509) rotate(-304.836657) scale(0.09 -0.09)">
      <defs>
       <path id="DejaVuSans-31" d="M 794 531 
L 1825 531 
L 1825 4091 
L 703 3866 
L 703 4441 
L 1819 4666 
L 2450 4666 
L 2450 531 
L 3481 531 
L 3481 0 
L 794 0 
L 794 531 
z
" transform="scale(0.015625)"/>
       <path id="DejaVuSans-35" d="M 691 4666 
L 3169 4666 
L 3169 4134 
L 1269 4134 
L 1269 2991 
Q 1406 3038 1543 3061 
Q 1681 3084 1819 3084 
Q 2600 3084 3056 2656 
Q 3513 2228 3513 1497 
Q 3513 744 3044 326 
Q 2575 -91 1722 -91 
Q 1428 -91 1123 -41 
Q 819 9 494 109 
L 494 744 
Q 775 591 1075 516 
Q 1375 441 1709 441 
Q 2250 441 2565 725 
Q 2881 1009 2881 1497 
Q 2881 1984 2565 2268 
Q 2250 2553 1709 2553 
Q 1456 2553 1204 2497 
Q 953 2441 691 2322 
L 691 4666 
z
" transform="scale(0.015625)"/>
      </defs>
      <use xlink:href="#DejaVuSans-31"/>
      <use xlink:href="#DejaVuSans-35" transform="translate(63.623047 0)"/>
     </g>
    </g>
   </g>
   <g id="text_2">
    <g id="patch_22">
     <path d="M 217.435803 269.385064 
L 217.587985 275.109292 
Q 217.659741 277.808338 220.358787 277.736582 
L 229.066023 277.505095 
Q 231.76507 277.433339 231.693314 274.734293 
L 231.541131 269.010065 
Q 231.469376 266.311019 228.770329 266.382775 
L 220.063093 266.614262 
Q 217.364047 266.686018 217.435803 269.385064 
z
" clip-path="url(#p7c1b64b3c2)" style="fill: #ffffff; stroke: #ffffff; stroke-linejoin: miter"/>
    </g>
    <g clip-path="url(#p7c1b64b3c2)">
     <!-- 7 -->
     <g transform="translate(222.005907 269.263565) rotate(-271.522886) scale(0.09 -0.09)">
      <defs>
       <path id="DejaVuSans-37" d="M 525 4666 
L 3525 4666 
L 3525 4397 
L 1831 0 
L 1172 0 
L 2766 4134 
L 525 4134 
L 525 4666 
z
" transform="scale(0.015625)"/>
      </defs>
      <use xlink:href="#DejaVuSans-37"/>
     </g>
    </g>
   </g>
   <g id="text_3">
    <g id="patch_23">
     <path d="M 324.075453 97.38135 
L 335.297856 95.097183 
Q 337.943609 94.558676 337.405102 91.912923 
L 335.667856 83.377613 
Q 335.129349 80.73186 332.483596 81.270367 
L 321.261193 83.554534 
Q 318.615439 84.093041 319.153946 86.738794 
L 320.891192 95.274104 
Q 321.429699 97.919857 324.075453 97.38135 
z
" clip-path="url(#p7c1b64b3c2)" style="fill: #ffffff; stroke: #ffffff; stroke-linejoin: miter"/>
    </g>
    <g clip-path="url(#p7c1b64b3c2)">
     <!-- 13 -->
     <g transform="translate(323.163637 92.901484) rotate(-11.504625) scale(0.09 -0.09)">
      <defs>
       <path id="DejaVuSans-33" d="M 2597 2516 
Q 3050 2419 3304 2112 
Q 3559 1806 3559 1356 
Q 3559 666 3084 287 
Q 2609 -91 1734 -91 
Q 1441 -91 1130 -33 
Q 819 25 488 141 
L 488 750 
Q 750 597 1062 519 
Q 1375 441 1716 441 
Q 2309 441 2620 675 
Q 2931 909 2931 1356 
Q 2931 1769 2642 2001 
Q 2353 2234 1838 2234 
L 1294 2234 
L 1294 2753 
L 1863 2753 
Q 2328 2753 2575 2939 
Q 2822 3125 2822 3475 
Q 2822 3834 2567 4026 
Q 2313 4219 1838 4219 
Q 1578 4219 1281 4162 
Q 984 4106 628 3988 
L 628 4550 
Q 988 4650 1302 4700 
Q 1616 4750 1894 4750 
Q 2613 4750 3031 4423 
Q 3450 4097 3450 3541 
Q 3450 3153 3228 2886 
Q 3006 2619 2597 2516 
z
" transform="scale(0.015625)"/>
      </defs>
      <use xlink:href="#DejaVuSans-31"/>
      <use xlink:href="#DejaVuSans-33" transform="translate(63.623047 0)"/>
     </g>
    </g>
   </g>
   <g id="text_4">
    <g id="patch_24">
     <path d="M 140.422277 219.613994 
L 144.057743 215.18982 
Q 145.771912 213.103765 143.685857 211.389596 
L 136.956157 205.859616 
Q 134.870102 204.145447 133.155933 206.231502 
L 129.520466 210.655677 
Q 127.806298 212.741732 129.892353 214.455901 
L 136.622053 219.985881 
Q 138.708108 221.700049 140.422277 219.613994 
z
" clip-path="url(#p7c1b64b3c2)" style="fill: #ffffff; stroke: #ffffff; stroke-linejoin: miter"/>
    </g>
    <g clip-path="url(#p7c1b64b3c2)">
     <!-- 2 -->
     <g transform="translate(136.890107 216.711514) rotate(-50.589113) scale(0.09 -0.09)">
      <defs>
       <path id="DejaVuSans-32" d="M 1228 531 
L 3431 531 
L 3431 0 
L 469 0 
L 469 531 
Q 828 903 1448 1529 
Q 2069 2156 2228 2338 
Q 2531 2678 2651 2914 
Q 2772 3150 2772 3378 
Q 2772 3750 2511 3984 
Q 2250 4219 1831 4219 
Q 1534 4219 1204 4116 
Q 875 4013 500 3803 
L 500 4441 
Q 881 4594 1212 4672 
Q 1544 4750 1819 4750 
Q 2544 4750 2975 4387 
Q 3406 4025 3406 3419 
Q 3406 3131 3298 2873 
Q 3191 2616 2906 2266 
Q 2828 2175 2409 1742 
Q 1991 1309 1228 531 
z
" transform="scale(0.015625)"/>
      </defs>
      <use xlink:href="#DejaVuSans-32"/>
     </g>
    </g>
   </g>
   <g id="text_5">
    <g id="patch_25">
     <path d="M 331.676116 283.699989 
L 334.947172 288.400003 
Q 336.489517 290.616119 338.705633 289.073775 
L 345.854918 284.098106 
Q 348.071034 282.555761 346.528689 280.339645 
L 343.257633 275.639631 
Q 341.715288 273.423514 339.499172 274.965859 
L 332.349888 279.941528 
Q 330.133771 281.483872 331.676116 283.699989 
z
" clip-path="url(#p7c1b64b3c2)" style="fill: #ffffff; stroke: #ffffff; stroke-linejoin: miter"/>
    </g>
    <g clip-path="url(#p7c1b64b3c2)">
     <!-- 4 -->
     <g transform="translate(335.428509 281.088446) rotate(-304.836657) scale(0.09 -0.09)">
      <defs>
       <path id="DejaVuSans-34" d="M 2419 4116 
L 825 1625 
L 2419 1625 
L 2419 4116 
z
M 2253 4666 
L 3047 4666 
L 3047 1625 
L 3713 1625 
L 3713 1100 
L 3047 1100 
L 3047 0 
L 2419 0 
L 2419 1100 
L 313 1100 
L 313 1709 
L 2253 4666 
z
" transform="scale(0.015625)"/>
      </defs>
      <use xlink:href="#DejaVuSans-34"/>
     </g>
    </g>
   </g>
   <g id="text_6">
    <g id="patch_26">
     <path d="M 339.911332 449.552446 
L 345.616045 450.048626 
Q 348.30589 450.282582 348.539845 447.592737 
L 349.294595 438.915186 
Q 349.528551 436.225341 346.838706 435.991386 
L 341.133994 435.495205 
Q 338.444149 435.261249 338.210193 437.951094 
L 337.455443 446.628645 
Q 337.221488 449.31849 339.911332 449.552446 
z
" clip-path="url(#p7c1b64b3c2)" style="fill: #ffffff; stroke: #ffffff; stroke-linejoin: miter"/>
    </g>
    <g clip-path="url(#p7c1b64b3c2)">
     <!-- 9 -->
     <g transform="translate(340.307473 444.997922) rotate(-355.029076) scale(0.09 -0.09)">
      <defs>
       <path id="DejaVuSans-39" d="M 703 97 
L 703 672 
Q 941 559 1184 500 
Q 1428 441 1663 441 
Q 2288 441 2617 861 
Q 2947 1281 2994 2138 
Q 2813 1869 2534 1725 
Q 2256 1581 1919 1581 
Q 1219 1581 811 2004 
Q 403 2428 403 3163 
Q 403 3881 828 4315 
Q 1253 4750 1959 4750 
Q 2769 4750 3195 4129 
Q 3622 3509 3622 2328 
Q 3622 1225 3098 567 
Q 2575 -91 1691 -91 
Q 1453 -91 1209 -44 
Q 966 3 703 97 
z
M 1959 2075 
Q 2384 2075 2632 2365 
Q 2881 2656 2881 3163 
Q 2881 3666 2632 3958 
Q 2384 4250 1959 4250 
Q 1534 4250 1286 3958 
Q 1038 3666 1038 3163 
Q 1038 2656 1286 2365 
Q 1534 2075 1959 2075 
z
" transform="scale(0.015625)"/>
      </defs>
      <use xlink:href="#DejaVuSans-39"/>
     </g>
    </g>
   </g>
   <g id="text_7">
    <g id="patch_27">
     <path d="M 439.887676 257.577689 
L 440.208759 263.29493 
Q 440.360154 265.990682 443.055906 265.839287 
L 451.752515 265.350881 
Q 454.448267 265.199486 454.296872 262.503734 
L 453.975789 256.786493 
Q 453.824394 254.090741 451.128642 254.242136 
L 442.432033 254.730542 
Q 439.736281 254.881937 439.887676 257.577689 
z
" clip-path="url(#p7c1b64b3c2)" style="fill: #ffffff; stroke: #ffffff; stroke-linejoin: miter"/>
    </g>
    <g clip-path="url(#p7c1b64b3c2)">
     <!-- 1 -->
     <g transform="translate(444.452202 257.321343) rotate(-273.214387) scale(0.09 -0.09)">
      <use xlink:href="#DejaVuSans-31"/>
     </g>
    </g>
   </g>
   <g id="text_8">
    <g id="patch_28">
     <path d="M 134.745178 377.926986 
L 139.494253 381.126397 
Q 141.733502 382.63496 143.242065 380.39571 
L 148.108752 373.171798 
Q 149.617315 370.932549 147.378065 369.423986 
L 142.628991 366.224575 
Q 140.389741 364.716012 138.881178 366.955262 
L 134.014491 374.179174 
Q 132.505928 376.418423 134.745178 377.926986 
z
" clip-path="url(#p7c1b64b3c2)" style="fill: #ffffff; stroke: #ffffff; stroke-linejoin: miter"/>
    </g>
    <g clip-path="url(#p7c1b64b3c2)">
     <!-- 6 -->
     <g transform="translate(137.299521 374.135424) rotate(-326.032192) scale(0.09 -0.09)">
      <defs>
       <path id="DejaVuSans-36" d="M 2113 2584 
Q 1688 2584 1439 2293 
Q 1191 2003 1191 1497 
Q 1191 994 1439 701 
Q 1688 409 2113 409 
Q 2538 409 2786 701 
Q 3034 994 3034 1497 
Q 3034 2003 2786 2293 
Q 2538 2584 2113 2584 
z
M 3366 4563 
L 3366 3988 
Q 3128 4100 2886 4159 
Q 2644 4219 2406 4219 
Q 1781 4219 1451 3797 
Q 1122 3375 1075 2522 
Q 1259 2794 1537 2939 
Q 1816 3084 2150 3084 
Q 2853 3084 3261 2657 
Q 3669 2231 3669 1497 
Q 3669 778 3244 343 
Q 2819 -91 2113 -91 
Q 1303 -91 875 529 
Q 447 1150 447 2328 
Q 447 3434 972 4092 
Q 1497 4750 2381 4750 
Q 2619 4750 2861 4703 
Q 3103 4656 3366 4563 
z
" transform="scale(0.015625)"/>
      </defs>
      <use xlink:href="#DejaVuSans-36"/>
     </g>
    </g>
   </g>
   <g id="text_9">
    <g id="patch_29">
     <path d="M 335.862549 258.541943 
L 341.515704 248.581943 
Q 342.848472 246.233809 340.500338 244.901042 
L 332.925162 240.601479 
Q 330.577028 239.268711 329.244261 241.616845 
L 323.591106 251.576845 
Q 322.258338 253.924978 324.606472 255.257746 
L 332.181648 259.557309 
Q 334.529782 260.890076 335.862549 258.541943 
z
" clip-path="url(#p7c1b64b3c2)" style="fill: #ffffff; stroke: #ffffff; stroke-linejoin: miter"/>
    </g>
    <g clip-path="url(#p7c1b64b3c2)">
     <!-- 11 -->
     <g transform="translate(331.886621 256.285262) rotate(-60.421368) scale(0.09 -0.09)">
      <use xlink:href="#DejaVuSans-31"/>
      <use xlink:href="#DejaVuSans-31" transform="translate(63.623047 0)"/>
     </g>
    </g>
   </g>
   <g id="text_10">
    <g id="patch_30">
     <path d="M 337.061191 449.304548 
L 348.470616 450.296909 
Q 351.160461 450.530865 351.394416 447.84102 
L 352.149167 439.163469 
Q 352.383122 436.473624 349.693277 436.239669 
L 338.283853 435.247307 
Q 335.594008 435.013352 335.360052 437.703196 
L 334.605302 446.380748 
Q 334.371346 449.070593 337.061191 449.304548 
z
" clip-path="url(#p7c1b64b3c2)" style="fill: #ffffff; stroke: #ffffff; stroke-linejoin: miter"/>
    </g>
    <g clip-path="url(#p7c1b64b3c2)">
     <!-- 11 -->
     <g transform="translate(337.457332 444.750024) rotate(-355.029076) scale(0.09 -0.09)">
      <use xlink:href="#DejaVuSans-31"/>
      <use xlink:href="#DejaVuSans-31" transform="translate(63.623047 0)"/>
     </g>
    </g>
   </g>
   <g id="text_11">
    <g id="patch_31">
     <path d="M 217.435695 269.381006 
L 217.587877 275.105233 
Q 217.659633 277.80428 220.358679 277.732524 
L 229.065915 277.501036 
Q 231.764962 277.42928 231.693206 274.730234 
L 231.541024 269.006007 
Q 231.469268 266.30696 228.770221 266.378716 
L 220.062985 266.610204 
Q 217.363939 266.68196 217.435695 269.381006 
z
" clip-path="url(#p7c1b64b3c2)" style="fill: #ffffff; stroke: #ffffff; stroke-linejoin: miter"/>
    </g>
    <g clip-path="url(#p7c1b64b3c2)">
     <!-- 2 -->
     <g transform="translate(222.005799 269.259507) rotate(-271.522886) scale(0.09 -0.09)">
      <use xlink:href="#DejaVuSans-32"/>
     </g>
    </g>
   </g>
   <g id="text_12">
    <g id="patch_32">
     <path d="M 247.902197 388.464244 
L 258.740049 392.165691 
Q 261.295142 393.03833 262.167782 390.483237 
L 264.982954 382.240401 
Q 265.855593 379.685308 263.3005 378.812668 
L 252.462648 375.111222 
Q 249.907555 374.238582 249.034915 376.793675 
L 246.219743 385.036512 
Q 245.347104 387.591605 247.902197 388.464244 
z
" clip-path="url(#p7c1b64b3c2)" style="fill: #ffffff; stroke: #ffffff; stroke-linejoin: miter"/>
    </g>
    <g clip-path="url(#p7c1b64b3c2)">
     <!-- 32 -->
     <g transform="translate(249.379775 384.137886) rotate(-341.14345) scale(0.09 -0.09)">
      <use xlink:href="#DejaVuSans-33"/>
      <use xlink:href="#DejaVuSans-32" transform="translate(63.623047 0)"/>
     </g>
    </g>
   </g>
   <g id="text_13">
    <g id="patch_33">
     <path d="M 140.420822 219.615764 
L 144.056289 215.191589 
Q 145.770458 213.105534 143.684403 211.391365 
L 136.954702 205.861385 
Q 134.868647 204.147217 133.154479 206.233272 
L 129.519012 210.657446 
Q 127.804843 212.743501 129.890898 214.45767 
L 136.620599 219.98765 
Q 138.706654 221.701819 140.420822 219.615764 
z
" clip-path="url(#p7c1b64b3c2)" style="fill: #ffffff; stroke: #ffffff; stroke-linejoin: miter"/>
    </g>
    <g clip-path="url(#p7c1b64b3c2)">
     <!-- 6 -->
     <g transform="translate(136.888653 216.713283) rotate(-50.589113) scale(0.09 -0.09)">
      <use xlink:href="#DejaVuSans-36"/>
     </g>
    </g>
   </g>
   <g id="text_14">
    <g id="patch_34">
     <path d="M 132.371552 376.327895 
L 141.869701 382.726716 
Q 144.108951 384.235279 145.617514 381.996029 
L 150.4842 374.772117 
Q 151.992763 372.532868 149.753514 371.024305 
L 140.255364 364.625484 
Q 138.016115 363.116921 136.507552 365.35617 
L 131.640865 372.580082 
Q 130.132302 374.819332 132.371552 376.327895 
z
" clip-path="url(#p7c1b64b3c2)" style="fill: #ffffff; stroke: #ffffff; stroke-linejoin: miter"/>
    </g>
    <g clip-path="url(#p7c1b64b3c2)">
     <!-- 15 -->
     <g transform="translate(134.925894 372.536332) rotate(-326.032192) scale(0.09 -0.09)">
      <use xlink:href="#DejaVuSans-31"/>
      <use xlink:href="#DejaVuSans-35" transform="translate(63.623047 0)"/>
     </g>
    </g>
   </g>
   <g id="text_15">
    <g id="patch_35">
     <path d="M 246.198976 198.423857 
L 251.0101 195.318535 
Q 253.278606 193.854335 251.814406 191.585829 
L 247.090838 184.267534 
Q 245.626639 181.999027 243.358133 183.463227 
L 238.547009 186.56855 
Q 236.278503 188.032749 237.742702 190.301255 
L 242.466271 197.619551 
Q 243.93047 199.888057 246.198976 198.423857 
z
" clip-path="url(#p7c1b64b3c2)" style="fill: #ffffff; stroke: #ffffff; stroke-linejoin: miter"/>
    </g>
    <g clip-path="url(#p7c1b64b3c2)">
     <!-- 2 -->
     <g transform="translate(243.719751 194.582757) rotate(-32.84008) scale(0.09 -0.09)">
      <use xlink:href="#DejaVuSans-32"/>
     </g>
    </g>
   </g>
   <g id="text_16">
    <g id="patch_36">
     <path d="M 439.727054 254.717646 
L 440.369221 266.152128 
Q 440.520616 268.84788 443.216368 268.696485 
L 451.912977 268.208078 
Q 454.608729 268.056684 454.457334 265.360931 
L 453.815167 253.926449 
Q 453.663772 251.230697 450.96802 251.382092 
L 442.271411 251.870499 
Q 439.575659 252.021894 439.727054 254.717646 
z
" clip-path="url(#p7c1b64b3c2)" style="fill: #ffffff; stroke: #ffffff; stroke-linejoin: miter"/>
    </g>
    <g clip-path="url(#p7c1b64b3c2)">
     <!-- 10 -->
     <g transform="translate(444.29158 254.461299) rotate(-273.214387) scale(0.09 -0.09)">
      <defs>
       <path id="DejaVuSans-30" d="M 2034 4250 
Q 1547 4250 1301 3770 
Q 1056 3291 1056 2328 
Q 1056 1369 1301 889 
Q 1547 409 2034 409 
Q 2525 409 2770 889 
Q 3016 1369 3016 2328 
Q 3016 3291 2770 3770 
Q 2525 4250 2034 4250 
z
M 2034 4750 
Q 2819 4750 3233 4129 
Q 3647 3509 3647 2328 
Q 3647 1150 3233 529 
Q 2819 -91 2034 -91 
Q 1250 -91 836 529 
Q 422 1150 422 2328 
Q 422 3509 836 4129 
Q 1250 4750 2034 4750 
z
" transform="scale(0.015625)"/>
      </defs>
      <use xlink:href="#DejaVuSans-31"/>
      <use xlink:href="#DejaVuSans-30" transform="translate(63.623047 0)"/>
     </g>
    </g>
   </g>
   <g id="text_17">
    <g id="patch_37">
     <path d="M 326.883228 96.809866 
L 332.49443 95.667782 
Q 335.140183 95.129276 334.601676 92.483522 
L 332.86443 83.948212 
Q 332.325923 81.302459 329.68017 81.840966 
L 324.068968 82.983049 
Q 321.423215 83.521556 321.961722 86.16731 
L 323.698968 94.70262 
Q 324.237475 97.348373 326.883228 96.809866 
z
" clip-path="url(#p7c1b64b3c2)" style="fill: #ffffff; stroke: #ffffff; stroke-linejoin: miter"/>
    </g>
    <g clip-path="url(#p7c1b64b3c2)">
     <!-- 4 -->
     <g transform="translate(325.971412 92.329999) rotate(-11.504625) scale(0.09 -0.09)">
      <use xlink:href="#DejaVuSans-34"/>
     </g>
    </g>
   </g>
   <g id="text_18">
    <g id="patch_38">
     <path d="M 246.198236 198.424335 
L 251.00936 195.319012 
Q 253.277866 193.854813 251.813666 191.586307 
L 247.090098 184.268011 
Q 245.625899 181.999505 243.357393 183.463704 
L 238.546269 186.569027 
Q 236.277763 188.033227 237.741962 190.301733 
L 242.465531 197.620028 
Q 243.92973 199.888534 246.198236 198.424335 
z
" clip-path="url(#p7c1b64b3c2)" style="fill: #ffffff; stroke: #ffffff; stroke-linejoin: miter"/>
    </g>
    <g clip-path="url(#p7c1b64b3c2)">
     <!-- 7 -->
     <g transform="translate(243.719011 194.583234) rotate(-32.84008) scale(0.09 -0.09)">
      <use xlink:href="#DejaVuSans-37"/>
     </g>
    </g>
   </g>
   <g id="text_19">
    <g id="patch_39">
     <path d="M 337.27765 256.048749 
L 340.104228 251.068749 
Q 341.436995 248.720616 339.088862 247.387849 
L 331.513685 243.088285 
Q 329.165552 241.755518 327.832784 244.103651 
L 325.006207 249.083651 
Q 323.673439 251.431785 326.021573 252.764552 
L 333.59675 257.064115 
Q 335.944883 258.396883 337.27765 256.048749 
z
" clip-path="url(#p7c1b64b3c2)" style="fill: #ffffff; stroke: #ffffff; stroke-linejoin: miter"/>
    </g>
    <g clip-path="url(#p7c1b64b3c2)">
     <!-- 3 -->
     <g transform="translate(333.301722 253.792069) rotate(-60.421368) scale(0.09 -0.09)">
      <use xlink:href="#DejaVuSans-33"/>
     </g>
    </g>
   </g>
   <g id="PathCollection_1">
    <path d="M 220.290805 131.242891 
C 225.578266 131.242891 230.649877 129.142161 234.388677 125.403361 
C 238.127476 121.664562 240.228207 116.59295 240.228207 111.305489 
C 240.228207 106.018028 238.127476 100.946417 234.388677 97.207617 
C 230.649877 93.468818 225.578266 91.368087 220.290805 91.368087 
C 215.003344 91.368087 209.931732 93.468818 206.192933 97.207617 
C 202.454133 100.946417 200.353403 106.018028 200.353403 111.305489 
C 200.353403 116.59295 202.454133 121.664562 206.192933 125.403361 
C 209.931732 129.142161 215.003344 131.242891 220.290805 131.242891 
z
" clip-path="url(#p7c1b64b3c2)" style="fill: #add8e6; stroke: #add8e6"/>
    <path d="M 457.91405 477.533408 
C 464.490873 477.533408 470.799211 474.920409 475.449728 470.269893 
C 480.100244 465.619377 482.713243 459.311038 482.713243 452.734215 
C 482.713243 446.157392 480.100244 439.849053 475.449728 435.198537 
C 470.799211 430.548021 464.490873 427.935021 457.91405 427.935021 
C 451.337227 427.935021 445.028888 430.548021 440.378372 435.198537 
C 435.727856 439.849053 433.114856 446.157392 433.114856 452.734215 
C 433.114856 459.311038 435.727856 465.619377 440.378372 470.269893 
C 445.028888 474.920409 451.337227 477.533408 457.91405 477.533408 
z
" clip-path="url(#p7c1b64b3c2)" style="fill: #ffa500; stroke: #ffa500"/>
    <path d="M 228.838204 454.718711 
C 234.648513 454.718711 240.221629 452.410251 244.330137 448.301742 
C 248.438646 444.193234 250.747106 438.620118 250.747106 432.809809 
C 250.747106 426.9995 248.438646 421.426384 244.330137 417.317876 
C 240.221629 413.209367 234.648513 410.900907 228.838204 410.900907 
C 223.027895 410.900907 217.454779 413.209367 213.346271 417.317876 
C 209.237762 421.426384 206.929302 426.9995 206.929302 432.809809 
C 206.929302 438.620118 209.237762 444.193234 213.346271 448.301742 
C 217.454779 452.410251 223.027895 454.718711 228.838204 454.718711 
z
" clip-path="url(#p7c1b64b3c2)" style="fill: #add8e6; stroke: #add8e6"/>
    <path d="M 53.28595 337.454655 
C 59.362517 337.454655 65.191021 335.04041 69.487802 330.743629 
C 73.784583 326.446847 76.198829 320.618343 76.198829 314.541777 
C 76.198829 308.46521 73.784583 302.636706 69.487802 298.339925 
C 65.191021 294.043144 59.362517 291.628898 53.28595 291.628898 
C 47.209384 291.628898 41.38088 294.043144 37.084099 298.339925 
C 32.787317 302.636706 30.373072 308.46521 30.373072 314.541777 
C 30.373072 320.618343 32.787317 326.446847 37.084099 330.743629 
C 41.38088 335.04041 47.209384 337.454655 53.28595 337.454655 
z
" clip-path="url(#p7c1b64b3c2)" style="fill: #add8e6; stroke: #add8e6"/>
    <path d="M 436.270418 86.903392 
C 441.457156 86.903392 446.432157 84.842679 450.099735 81.175102 
C 453.767313 77.507524 455.828026 72.532523 455.828026 67.345785 
C 455.828026 62.159047 453.767313 57.184046 450.099735 53.516468 
C 446.432157 49.848891 441.457156 47.788178 436.270418 47.788178 
C 431.08368 47.788178 426.108679 49.848891 422.441102 53.516468 
C 418.773524 57.184046 416.712811 62.159047 416.712811 67.345785 
C 416.712811 72.532523 418.773524 77.507524 422.441102 81.175102 
C 426.108679 84.842679 431.08368 86.903392 436.270418 86.903392 
z
" clip-path="url(#p7c1b64b3c2)" style="fill: #add8e6; stroke: #add8e6"/>
   </g>
   <g id="text_20">
    <g clip-path="url(#p7c1b64b3c2)">
     <!-- G -->
     <g transform="translate(215.641742 114.616739) scale(0.12 -0.12)">
      <defs>
       <path id="DejaVuSans-47" d="M 3809 666 
L 3809 1919 
L 2778 1919 
L 2778 2438 
L 4434 2438 
L 4434 434 
Q 4069 175 3628 42 
Q 3188 -91 2688 -91 
Q 1594 -91 976 548 
Q 359 1188 359 2328 
Q 359 3472 976 4111 
Q 1594 4750 2688 4750 
Q 3144 4750 3555 4637 
Q 3966 4525 4313 4306 
L 4313 3634 
Q 3963 3931 3569 4081 
Q 3175 4231 2741 4231 
Q 1884 4231 1454 3753 
Q 1025 3275 1025 2328 
Q 1025 1384 1454 906 
Q 1884 428 2741 428 
Q 3075 428 3337 486 
Q 3600 544 3809 666 
z
" transform="scale(0.015625)"/>
      </defs>
      <use xlink:href="#DejaVuSans-47"/>
     </g>
    </g>
   </g>
   <g id="text_21">
    <g clip-path="url(#p7c1b64b3c2)">
     <!-- E -->
     <g transform="translate(454.1228 456.045465) scale(0.12 -0.12)">
      <defs>
       <path id="DejaVuSans-45" d="M 628 4666 
L 3578 4666 
L 3578 4134 
L 1259 4134 
L 1259 2753 
L 3481 2753 
L 3481 2222 
L 1259 2222 
L 1259 531 
L 3634 531 
L 3634 0 
L 628 0 
L 628 4666 
z
" transform="scale(0.015625)"/>
      </defs>
      <use xlink:href="#DejaVuSans-45"/>
     </g>
    </g>
   </g>
   <g id="text_22">
    <g clip-path="url(#p7c1b64b3c2)">
     <!-- nf -->
     <g transform="translate(222.923516 436.121059) scale(0.12 -0.12)">
      <defs>
       <path id="DejaVuSans-6e" d="M 3513 2113 
L 3513 0 
L 2938 0 
L 2938 2094 
Q 2938 2591 2744 2837 
Q 2550 3084 2163 3084 
Q 1697 3084 1428 2787 
Q 1159 2491 1159 1978 
L 1159 0 
L 581 0 
L 581 3500 
L 1159 3500 
L 1159 2956 
Q 1366 3272 1645 3428 
Q 1925 3584 2291 3584 
Q 2894 3584 3203 3211 
Q 3513 2838 3513 2113 
z
" transform="scale(0.015625)"/>
       <path id="DejaVuSans-66" d="M 2375 4863 
L 2375 4384 
L 1825 4384 
Q 1516 4384 1395 4259 
Q 1275 4134 1275 3809 
L 1275 3500 
L 2222 3500 
L 2222 3053 
L 1275 3053 
L 1275 0 
L 697 0 
L 697 3053 
L 147 3053 
L 147 3500 
L 697 3500 
L 697 3744 
Q 697 4328 969 4595 
Q 1241 4863 1831 4863 
L 2375 4863 
z
" transform="scale(0.015625)"/>
      </defs>
      <use xlink:href="#DejaVuSans-6e"/>
      <use xlink:href="#DejaVuSans-66" transform="translate(63.378906 0)"/>
     </g>
    </g>
   </g>
   <g id="text_23">
    <g clip-path="url(#p7c1b64b3c2)">
     <!-- H -->
     <g transform="translate(48.773763 317.853027) scale(0.12 -0.12)">
      <defs>
       <path id="DejaVuSans-48" d="M 628 4666 
L 1259 4666 
L 1259 2753 
L 3553 2753 
L 3553 4666 
L 4184 4666 
L 4184 0 
L 3553 0 
L 3553 2222 
L 1259 2222 
L 1259 0 
L 628 0 
L 628 4666 
z
" transform="scale(0.015625)"/>
      </defs>
      <use xlink:href="#DejaVuSans-48"/>
     </g>
    </g>
   </g>
   <g id="text_24">
    <g clip-path="url(#p7c1b64b3c2)">
     <!-- F -->
     <g transform="translate(432.819481 70.657035) scale(0.12 -0.12)">
      <defs>
       <path id="DejaVuSans-46" d="M 628 4666 
L 3309 4666 
L 3309 4134 
L 1259 4134 
L 1259 2759 
L 3109 2759 
L 3109 2228 
L 1259 2228 
L 1259 0 
L 628 0 
L 628 4666 
z
" transform="scale(0.015625)"/>
      </defs>
      <use xlink:href="#DejaVuSans-46"/>
     </g>
    </g>
   </g>
   <g id="text_25">
    <!-- Group G1 - Central Whale: E -->
    <g transform="translate(170.74125 20.88) scale(0.12 -0.12)">
     <defs>
      <path id="DejaVuSans-72" d="M 2631 2963 
Q 2534 3019 2420 3045 
Q 2306 3072 2169 3072 
Q 1681 3072 1420 2755 
Q 1159 2438 1159 1844 
L 1159 0 
L 581 0 
L 581 3500 
L 1159 3500 
L 1159 2956 
Q 1341 3275 1631 3429 
Q 1922 3584 2338 3584 
Q 2397 3584 2469 3576 
Q 2541 3569 2628 3553 
L 2631 2963 
z
" transform="scale(0.015625)"/>
      <path id="DejaVuSans-6f" d="M 1959 3097 
Q 1497 3097 1228 2736 
Q 959 2375 959 1747 
Q 959 1119 1226 758 
Q 1494 397 1959 397 
Q 2419 397 2687 759 
Q 2956 1122 2956 1747 
Q 2956 2369 2687 2733 
Q 2419 3097 1959 3097 
z
M 1959 3584 
Q 2709 3584 3137 3096 
Q 3566 2609 3566 1747 
Q 3566 888 3137 398 
Q 2709 -91 1959 -91 
Q 1206 -91 779 398 
Q 353 888 353 1747 
Q 353 2609 779 3096 
Q 1206 3584 1959 3584 
z
" transform="scale(0.015625)"/>
      <path id="DejaVuSans-75" d="M 544 1381 
L 544 3500 
L 1119 3500 
L 1119 1403 
Q 1119 906 1312 657 
Q 1506 409 1894 409 
Q 2359 409 2629 706 
Q 2900 1003 2900 1516 
L 2900 3500 
L 3475 3500 
L 3475 0 
L 2900 0 
L 2900 538 
Q 2691 219 2414 64 
Q 2138 -91 1772 -91 
Q 1169 -91 856 284 
Q 544 659 544 1381 
z
M 1991 3584 
L 1991 3584 
z
" transform="scale(0.015625)"/>
      <path id="DejaVuSans-70" d="M 1159 525 
L 1159 -1331 
L 581 -1331 
L 581 3500 
L 1159 3500 
L 1159 2969 
Q 1341 3281 1617 3432 
Q 1894 3584 2278 3584 
Q 2916 3584 3314 3078 
Q 3713 2572 3713 1747 
Q 3713 922 3314 415 
Q 2916 -91 2278 -91 
Q 1894 -91 1617 61 
Q 1341 213 1159 525 
z
M 3116 1747 
Q 3116 2381 2855 2742 
Q 2594 3103 2138 3103 
Q 1681 3103 1420 2742 
Q 1159 2381 1159 1747 
Q 1159 1113 1420 752 
Q 1681 391 2138 391 
Q 2594 391 2855 752 
Q 3116 1113 3116 1747 
z
" transform="scale(0.015625)"/>
      <path id="DejaVuSans-20" transform="scale(0.015625)"/>
      <path id="DejaVuSans-2d" d="M 313 2009 
L 1997 2009 
L 1997 1497 
L 313 1497 
L 313 2009 
z
" transform="scale(0.015625)"/>
      <path id="DejaVuSans-43" d="M 4122 4306 
L 4122 3641 
Q 3803 3938 3442 4084 
Q 3081 4231 2675 4231 
Q 1875 4231 1450 3742 
Q 1025 3253 1025 2328 
Q 1025 1406 1450 917 
Q 1875 428 2675 428 
Q 3081 428 3442 575 
Q 3803 722 4122 1019 
L 4122 359 
Q 3791 134 3420 21 
Q 3050 -91 2638 -91 
Q 1578 -91 968 557 
Q 359 1206 359 2328 
Q 359 3453 968 4101 
Q 1578 4750 2638 4750 
Q 3056 4750 3426 4639 
Q 3797 4528 4122 4306 
z
" transform="scale(0.015625)"/>
      <path id="DejaVuSans-65" d="M 3597 1894 
L 3597 1613 
L 953 1613 
Q 991 1019 1311 708 
Q 1631 397 2203 397 
Q 2534 397 2845 478 
Q 3156 559 3463 722 
L 3463 178 
Q 3153 47 2828 -22 
Q 2503 -91 2169 -91 
Q 1331 -91 842 396 
Q 353 884 353 1716 
Q 353 2575 817 3079 
Q 1281 3584 2069 3584 
Q 2775 3584 3186 3129 
Q 3597 2675 3597 1894 
z
M 3022 2063 
Q 3016 2534 2758 2815 
Q 2500 3097 2075 3097 
Q 1594 3097 1305 2825 
Q 1016 2553 972 2059 
L 3022 2063 
z
" transform="scale(0.015625)"/>
      <path id="DejaVuSans-74" d="M 1172 4494 
L 1172 3500 
L 2356 3500 
L 2356 3053 
L 1172 3053 
L 1172 1153 
Q 1172 725 1289 603 
Q 1406 481 1766 481 
L 2356 481 
L 2356 0 
L 1766 0 
Q 1100 0 847 248 
Q 594 497 594 1153 
L 594 3053 
L 172 3053 
L 172 3500 
L 594 3500 
L 594 4494 
L 1172 4494 
z
" transform="scale(0.015625)"/>
      <path id="DejaVuSans-61" d="M 2194 1759 
Q 1497 1759 1228 1600 
Q 959 1441 959 1056 
Q 959 750 1161 570 
Q 1363 391 1709 391 
Q 2188 391 2477 730 
Q 2766 1069 2766 1631 
L 2766 1759 
L 2194 1759 
z
M 3341 1997 
L 3341 0 
L 2766 0 
L 2766 531 
Q 2569 213 2275 61 
Q 1981 -91 1556 -91 
Q 1019 -91 701 211 
Q 384 513 384 1019 
Q 384 1609 779 1909 
Q 1175 2209 1959 2209 
L 2766 2209 
L 2766 2266 
Q 2766 2663 2505 2880 
Q 2244 3097 1772 3097 
Q 1472 3097 1187 3025 
Q 903 2953 641 2809 
L 641 3341 
Q 956 3463 1253 3523 
Q 1550 3584 1831 3584 
Q 2591 3584 2966 3190 
Q 3341 2797 3341 1997 
z
" transform="scale(0.015625)"/>
      <path id="DejaVuSans-6c" d="M 603 4863 
L 1178 4863 
L 1178 0 
L 603 0 
L 603 4863 
z
" transform="scale(0.015625)"/>
      <path id="DejaVuSans-57" d="M 213 4666 
L 850 4666 
L 1831 722 
L 2809 4666 
L 3519 4666 
L 4500 722 
L 5478 4666 
L 6119 4666 
L 4947 0 
L 4153 0 
L 3169 4050 
L 2175 0 
L 1381 0 
L 213 4666 
z
" transform="scale(0.015625)"/>
      <path id="DejaVuSans-68" d="M 3513 2113 
L 3513 0 
L 2938 0 
L 2938 2094 
Q 2938 2591 2744 2837 
Q 2550 3084 2163 3084 
Q 1697 3084 1428 2787 
Q 1159 2491 1159 1978 
L 1159 0 
L 581 0 
L 581 4863 
L 1159 4863 
L 1159 2956 
Q 1366 3272 1645 3428 
Q 1925 3584 2291 3584 
Q 2894 3584 3203 3211 
Q 3513 2838 3513 2113 
z
" transform="scale(0.015625)"/>
      <path id="DejaVuSans-3a" d="M 750 794 
L 1409 794 
L 1409 0 
L 750 0 
L 750 794 
z
M 750 3309 
L 1409 3309 
L 1409 2516 
L 750 2516 
L 750 3309 
z
" transform="scale(0.015625)"/>
     </defs>
     <use xlink:href="#DejaVuSans-47"/>
     <use xlink:href="#DejaVuSans-72" transform="translate(77.490234 0)"/>
     <use xlink:href="#DejaVuSans-6f" transform="translate(116.353516 0)"/>
     <use xlink:href="#DejaVuSans-75" transform="translate(177.535156 0)"/>
     <use xlink:href="#DejaVuSans-70" transform="translate(240.914062 0)"/>
     <use xlink:href="#DejaVuSans-20" transform="translate(304.390625 0)"/>
     <use xlink:href="#DejaVuSans-47" transform="translate(336.177734 0)"/>
     <use xlink:href="#DejaVuSans-31" transform="translate(413.667969 0)"/>
     <use xlink:href="#DejaVuSans-20" transform="translate(477.291016 0)"/>
     <use xlink:href="#DejaVuSans-2d" transform="translate(509.078125 0)"/>
     <use xlink:href="#DejaVuSans-20" transform="translate(545.162109 0)"/>
     <use xlink:href="#DejaVuSans-43" transform="translate(576.949219 0)"/>
     <use xlink:href="#DejaVuSans-65" transform="translate(646.773438 0)"/>
     <use xlink:href="#DejaVuSans-6e" transform="translate(708.296875 0)"/>
     <use xlink:href="#DejaVuSans-74" transform="translate(771.675781 0)"/>
     <use xlink:href="#DejaVuSans-72" transform="translate(810.884766 0)"/>
     <use xlink:href="#DejaVuSans-61" transform="translate(851.998047 0)"/>
     <use xlink:href="#DejaVuSans-6c" transform="translate(913.277344 0)"/>
     <use xlink:href="#DejaVuSans-20" transform="translate(941.060547 0)"/>
     <use xlink:href="#DejaVuSans-57" transform="translate(972.847656 0)"/>
     <use xlink:href="#DejaVuSans-68" transform="translate(1071.724609 0)"/>
     <use xlink:href="#DejaVuSans-61" transform="translate(1135.103516 0)"/>
     <use xlink:href="#DejaVuSans-6c" transform="translate(1196.382812 0)"/>
     <use xlink:href="#DejaVuSans-65" transform="translate(1224.166016 0)"/>
     <use xlink:href="#DejaVuSans-3a" transform="translate(1285.689453 0)"/>
     <use xlink:href="#DejaVuSans-20" transform="translate(1319.380859 0)"/>
     <use xlink:href="#DejaVuSans-45" transform="translate(1351.167969 0)"/>
    </g>
   </g>
  </g>
  <g id="axes_2">
   <g id="patch_40">
    <path d="M 747.729577 79.91418 
Q 819.346582 214.75687 890.43916 348.612152 
" clip-path="url(#p5b8cf10368)" style="fill: none; stroke: #808080; stroke-linecap: round"/>
    <path d="M 890.27428 341.905975 
L 890.43916 348.612152 
L 884.97529 344.720349 
z
" clip-path="url(#p5b8cf10368)" style="fill: #808080; stroke: #808080; stroke-linecap: round"/>
   </g>
   <g id="patch_41">
    <path d="M 890.965113 349.602432 
Q 819.348256 214.760022 749.042468 82.386132 
" clip-path="url(#p5b8cf10368)" style="fill: none; stroke: #808080; stroke-width: 2.5; stroke-linecap: round"/>
    <path d="M 749.207347 89.092309 
L 749.042468 82.386132 
L 754.506338 86.277935 
z
" clip-path="url(#p5b8cf10368)" style="fill: #808080; stroke: #808080; stroke-width: 2.5; stroke-linecap: round"/>
   </g>
   <g id="patch_42">
    <path d="M 872.26821 372.010912 
Q 862.080952 368.770851 854.024582 366.208521 
" clip-path="url(#p5b8cf10368)" style="fill: none; stroke: #808080; stroke-width: 2; stroke-linecap: round"/>
    <path d="M 858.833085 370.885946 
L 854.024582 366.208521 
L 860.651623 365.168174 
z
" clip-path="url(#p5b8cf10368)" style="fill: #808080; stroke: #808080; stroke-width: 2; stroke-linecap: round"/>
   </g>
   <g id="patch_43">
    <path d="M 919.168738 346.425063 
Q 937.452996 278.792929 955.44547 212.240084 
" clip-path="url(#p5b8cf10368)" style="fill: none; stroke: #808080; stroke-linecap: round"/>
    <path d="M 950.98356 217.249211 
L 955.44547 212.240084 
L 956.775626 218.815088 
z
" clip-path="url(#p5b8cf10368)" style="fill: #808080; stroke: #808080; stroke-linecap: round"/>
   </g>
   <g id="patch_44">
    <path d="M 851.893466 365.530719 
Q 862.081215 368.770935 773.182682 340.496732 
" clip-path="url(#p5b8cf10368)" style="fill: none; stroke: #808080; stroke-width: 93; stroke-linecap: round"/>
    <path d="M 768.374179 335.819307 
L 773.182682 340.496732 
L 766.55564 341.537079 
z
" clip-path="url(#p5b8cf10368)" style="fill: #808080; stroke: #808080; stroke-width: 93; stroke-linecap: round"/>
   </g>
   <g id="patch_45">
    <path d="M 770.938692 368.103103 
Q 668.692065 407.933421 579.467683 442.690905 
" clip-path="url(#p5b8cf10368)" style="fill: none; stroke: #808080; stroke-width: 12.5; stroke-linecap: round"/>
    <path d="M 586.147406 443.308398 
L 579.467683 442.690905 
L 583.969512 437.717622 
z
" clip-path="url(#p5b8cf10368)" style="fill: #808080; stroke: #808080; stroke-width: 12.5; stroke-linecap: round"/>
   </g>
   <g id="patch_46">
    <path d="M 800.734894 310.796373 
Q 772.588873 195.982392 747.104832 92.027227 
" clip-path="url(#p5b8cf10368)" style="fill: none; stroke: #808080; stroke-width: 10; stroke-linecap: round"/>
    <path d="M 745.619674 98.568962 
L 747.104832 92.027227 
L 751.447126 97.140394 
z
" clip-path="url(#p5b8cf10368)" style="fill: #808080; stroke: #808080; stroke-width: 10; stroke-linecap: round"/>
   </g>
   <g id="patch_47">
    <path d="M 840.97103 321.783583 
Q 896.193118 265.238559 947.118841 213.092825 
" clip-path="url(#p5b8cf10368)" style="fill: none; stroke: #808080; stroke-width: 5.5; stroke-linecap: round"/>
    <path d="M 940.780434 215.289319 
L 947.118841 213.092825 
L 945.072992 219.481448 
z
" clip-path="url(#p5b8cf10368)" style="fill: #808080; stroke: #808080; stroke-width: 5.5; stroke-linecap: round"/>
   </g>
   <g id="text_26">
    <g id="patch_48">
     <path d="M 817.496572 226.31459 
L 820.18254 231.371814 
Q 821.449009 233.75636 823.833554 232.489891 
L 831.526198 228.404211 
Q 833.910743 227.137743 832.644275 224.753197 
L 829.958306 219.695973 
Q 828.691838 217.311428 826.307292 218.577896 
L 818.614649 222.663576 
Q 816.230103 223.930045 817.496572 226.31459 
z
" clip-path="url(#p5b8cf10368)" style="fill: #ffffff; stroke: #ffffff; stroke-linejoin: miter"/>
    </g>
    <g clip-path="url(#p5b8cf10368)">
     <!-- 2 -->
     <g transform="translate(821.534154 224.170169) rotate(-297.973451) scale(0.09 -0.09)">
      <use xlink:href="#DejaVuSans-32"/>
     </g>
    </g>
   </g>
   <g id="text_27">
    <g id="patch_49">
     <path d="M 817.495925 226.313372 
L 820.181893 231.370596 
Q 821.448362 233.755142 823.832907 232.488673 
L 831.525551 228.402993 
Q 833.910096 227.136525 832.643628 224.751979 
L 829.95766 219.694755 
Q 828.691191 217.31021 826.306645 218.576678 
L 818.614002 222.662358 
Q 816.229456 223.928827 817.495925 226.313372 
z
" clip-path="url(#p5b8cf10368)" style="fill: #ffffff; stroke: #ffffff; stroke-linejoin: miter"/>
    </g>
    <g clip-path="url(#p5b8cf10368)">
     <!-- 5 -->
     <g transform="translate(821.533507 224.168951) rotate(-297.973451) scale(0.09 -0.09)">
      <use xlink:href="#DejaVuSans-35"/>
     </g>
    </g>
   </g>
   <g id="text_28">
    <g id="patch_50">
     <path d="M 855.158325 373.972505 
L 860.615223 375.708073 
Q 863.188221 376.526416 864.006563 373.953418 
L 866.64657 365.652822 
Q 867.464913 363.079824 864.891915 362.261482 
L 859.435017 360.525914 
Q 856.862019 359.707571 856.043677 362.280569 
L 853.40367 370.581165 
Q 852.585327 373.154163 855.158325 373.972505 
z
" clip-path="url(#p5b8cf10368)" style="fill: #ffffff; stroke: #ffffff; stroke-linejoin: miter"/>
    </g>
    <g clip-path="url(#p5b8cf10368)">
     <!-- 4 -->
     <g transform="translate(856.543966 369.615831) rotate(-342.35672) scale(0.09 -0.09)">
      <use xlink:href="#DejaVuSans-34"/>
     </g>
    </g>
   </g>
   <g id="text_29">
    <g id="patch_51">
     <path d="M 939.763695 297.27919 
L 941.258129 291.751387 
Q 941.962774 289.144957 939.356344 288.440313 
L 930.947893 286.167099 
Q 928.341464 285.462454 927.636819 288.068884 
L 926.142385 293.596687 
Q 925.43774 296.203116 928.044169 296.907761 
L 936.45262 299.180975 
Q 939.05905 299.88562 939.763695 297.27919 
z
" clip-path="url(#p5b8cf10368)" style="fill: #ffffff; stroke: #ffffff; stroke-linejoin: miter"/>
    </g>
    <g clip-path="url(#p5b8cf10368)">
     <!-- 2 -->
     <g transform="translate(935.350412 296.086065) rotate(-74.871806) scale(0.09 -0.09)">
      <use xlink:href="#DejaVuSans-32"/>
     </g>
    </g>
   </g>
   <g id="text_30">
    <g id="patch_52">
     <path d="M 849.698385 372.23597 
L 866.069081 377.442674 
Q 868.642078 378.261017 869.460421 375.688019 
L 872.100428 367.387423 
Q 872.91877 364.814425 870.345773 363.996083 
L 853.975077 358.789378 
Q 851.40208 357.971036 850.583737 360.544033 
L 847.94373 368.84463 
Q 847.125388 371.417627 849.698385 372.23597 
z
" clip-path="url(#p5b8cf10368)" style="fill: #ffffff; stroke: #ffffff; stroke-linejoin: miter"/>
    </g>
    <g clip-path="url(#p5b8cf10368)">
     <!-- 186 -->
     <g transform="translate(851.084026 367.879296) rotate(-342.35672) scale(0.09 -0.09)">
      <defs>
       <path id="DejaVuSans-38" d="M 2034 2216 
Q 1584 2216 1326 1975 
Q 1069 1734 1069 1313 
Q 1069 891 1326 650 
Q 1584 409 2034 409 
Q 2484 409 2743 651 
Q 3003 894 3003 1313 
Q 3003 1734 2745 1975 
Q 2488 2216 2034 2216 
z
M 1403 2484 
Q 997 2584 770 2862 
Q 544 3141 544 3541 
Q 544 4100 942 4425 
Q 1341 4750 2034 4750 
Q 2731 4750 3128 4425 
Q 3525 4100 3525 3541 
Q 3525 3141 3298 2862 
Q 3072 2584 2669 2484 
Q 3125 2378 3379 2068 
Q 3634 1759 3634 1313 
Q 3634 634 3220 271 
Q 2806 -91 2034 -91 
Q 1263 -91 848 271 
Q 434 634 434 1313 
Q 434 1759 690 2068 
Q 947 2378 1403 2484 
z
M 1172 3481 
Q 1172 3119 1398 2916 
Q 1625 2713 2034 2713 
Q 2441 2713 2670 2916 
Q 2900 3119 2900 3481 
Q 2900 3844 2670 4047 
Q 2441 4250 2034 4250 
Q 1625 4250 1398 4047 
Q 1172 3844 1172 3481 
z
" transform="scale(0.015625)"/>
      </defs>
      <use xlink:href="#DejaVuSans-31"/>
      <use xlink:href="#DejaVuSans-38" transform="translate(63.623047 0)"/>
      <use xlink:href="#DejaVuSans-36" transform="translate(127.246094 0)"/>
     </g>
    </g>
   </g>
   <g id="text_31">
    <g id="patch_53">
     <path d="M 679.551637 411.274627 
L 690.223031 407.11757 
Q 692.73888 406.137518 691.758827 403.621668 
L 688.597137 395.505434 
Q 687.617084 392.989585 685.101235 393.969638 
L 674.429842 398.126694 
Q 671.913993 399.106747 672.894045 401.622596 
L 676.055736 409.73883 
Q 677.035788 412.254679 679.551637 411.274627 
z
" clip-path="url(#p5b8cf10368)" style="fill: #ffffff; stroke: #ffffff; stroke-linejoin: miter"/>
    </g>
    <g clip-path="url(#p5b8cf10368)">
     <!-- 25 -->
     <g transform="translate(677.892184 407.014717) rotate(-21.283471) scale(0.09 -0.09)">
      <use xlink:href="#DejaVuSans-32"/>
      <use xlink:href="#DejaVuSans-35" transform="translate(63.623047 0)"/>
     </g>
    </g>
   </g>
   <g id="text_32">
    <g id="patch_54">
     <path d="M 767.791771 206.045654 
L 770.51855 217.168802 
Q 771.161406 219.791155 773.783759 219.1483 
L 782.24358 217.074421 
Q 784.865933 216.431565 784.223077 213.809212 
L 781.496298 202.686064 
Q 780.853443 200.06371 778.231089 200.706566 
L 769.771268 202.780445 
Q 767.148915 203.4233 767.791771 206.045654 
z
" clip-path="url(#p5b8cf10368)" style="fill: #ffffff; stroke: #ffffff; stroke-linejoin: miter"/>
    </g>
    <g clip-path="url(#p5b8cf10368)">
     <!-- 20 -->
     <g transform="translate(772.232016 204.957152) rotate(-283.774113) scale(0.09 -0.09)">
      <use xlink:href="#DejaVuSans-32"/>
      <use xlink:href="#DejaVuSans-30" transform="translate(63.623047 0)"/>
     </g>
    </g>
   </g>
   <g id="text_33">
    <g id="patch_55">
     <path d="M 885.683429 286.097743 
L 893.685155 277.904323 
Q 895.571613 275.972672 893.639962 274.086214 
L 887.408375 268.000422 
Q 885.476723 266.113964 883.590266 268.045615 
L 875.58854 276.239035 
Q 873.702082 278.170687 875.633733 280.057145 
L 881.86532 286.142937 
Q 883.796971 288.029395 885.683429 286.097743 
z
" clip-path="url(#p5b8cf10368)" style="fill: #ffffff; stroke: #ffffff; stroke-linejoin: miter"/>
    </g>
    <g clip-path="url(#p5b8cf10368)">
     <!-- 11 -->
     <g transform="translate(882.412701 282.903538) rotate(-45.678152) scale(0.09 -0.09)">
      <use xlink:href="#DejaVuSans-31"/>
      <use xlink:href="#DejaVuSans-31" transform="translate(63.623047 0)"/>
     </g>
    </g>
   </g>
   <g id="PathCollection_2">
    <path d="M 741.054311 81.576035 
C 744.828217 81.576035 748.448062 80.076646 751.116617 77.408091 
C 753.785172 74.739536 755.284561 71.119691 755.284561 67.345785 
C 755.284561 63.571879 753.785172 59.952034 751.116617 57.283479 
C 748.448062 54.614925 744.828217 53.115536 741.054311 53.115536 
C 737.280405 53.115536 733.66056 54.614925 730.992005 57.283479 
C 728.323451 59.952034 726.824062 63.571879 726.824062 67.345785 
C 726.824062 71.119691 728.323451 74.739536 730.992005 77.408091 
C 733.66056 80.076646 737.280405 81.576035 741.054311 81.576035 
z
" clip-path="url(#p5b8cf10368)" style="fill: #add8e6; stroke: #add8e6"/>
    <path d="M 909.085889 422.353672 
C 919.33145 422.353672 929.158759 418.283067 936.403465 411.038361 
C 943.648171 403.793655 947.718776 393.966346 947.718776 383.720784 
C 947.718776 373.475223 943.648171 363.647914 936.403465 356.403208 
C 929.158759 349.158501 919.33145 345.087897 909.085889 345.087897 
C 898.840327 345.087897 889.013018 349.158501 881.768312 356.403208 
C 874.523606 363.647914 870.453001 373.475223 870.453001 383.720784 
C 870.453001 393.966346 874.523606 403.793655 881.768312 411.038361 
C 889.013018 418.283067 898.840327 422.353672 909.085889 422.353672 
z
" clip-path="url(#p5b8cf10368)" style="fill: #add8e6; stroke: #add8e6"/>
    <path d="M 810.96131 395.465699 
C 822.352702 395.465699 833.279065 390.939851 841.333996 382.884921 
C 849.388926 374.82999 853.914774 363.903627 853.914774 352.512236 
C 853.914774 341.120844 849.388926 330.194481 841.333996 322.13955 
C 833.279065 314.08462 822.352702 309.558772 810.96131 309.558772 
C 799.569919 309.558772 788.643556 314.08462 780.588625 322.13955 
C 772.533695 330.194481 768.007847 341.120844 768.007847 352.512236 
C 768.007847 363.903627 772.533695 374.82999 780.588625 382.884921 
C 788.643556 390.939851 799.569919 395.465699 810.96131 395.465699 
z
" clip-path="url(#p5b8cf10368)" style="fill: #ffa500; stroke: #ffa500"/>
    <path d="M 553.68595 466.427279 
C 557.317393 466.427279 560.800591 464.984491 563.368409 462.416673 
C 565.936227 459.848855 567.379014 456.365658 567.379014 452.734215 
C 567.379014 449.102772 565.936227 445.619574 563.368409 443.051757 
C 560.800591 440.483939 557.317393 439.041151 553.68595 439.041151 
C 550.054507 439.041151 546.57131 440.483939 544.003492 443.051757 
C 541.435674 445.619574 539.992886 449.102772 539.992886 452.734215 
C 539.992886 456.365658 541.435674 459.848855 544.003492 462.416673 
C 546.57131 464.984491 550.054507 466.427279 553.68595 466.427279 
z
" clip-path="url(#p5b8cf10368)" style="fill: #add8e6; stroke: #add8e6"/>
    <path d="M 958.31405 211.503626 
C 960.93272 211.503626 963.44449 210.463217 965.29617 208.611538 
C 967.147849 206.759858 968.188258 204.248088 968.188258 201.629418 
C 968.188258 199.010747 967.147849 196.498977 965.29617 194.647298 
C 963.44449 192.795618 960.93272 191.755209 958.31405 191.755209 
C 955.695379 191.755209 953.183609 192.795618 951.33193 194.647298 
C 949.48025 196.498977 948.439841 199.010747 948.439841 201.629418 
C 948.439841 204.248088 949.48025 206.759858 951.33193 208.611538 
C 953.183609 210.463217 955.695379 211.503626 958.31405 211.503626 
z
" clip-path="url(#p5b8cf10368)" style="fill: #add8e6; stroke: #add8e6"/>
   </g>
   <g id="text_34">
    <g clip-path="url(#p5b8cf10368)">
     <!-- A -->
     <g transform="translate(736.949936 70.657035) scale(0.12 -0.12)">
      <defs>
       <path id="DejaVuSans-41" d="M 2188 4044 
L 1331 1722 
L 3047 1722 
L 2188 4044 
z
M 1831 4666 
L 2547 4666 
L 4325 0 
L 3669 0 
L 3244 1197 
L 1141 1197 
L 716 0 
L 50 0 
L 1831 4666 
z
" transform="scale(0.015625)"/>
      </defs>
      <use xlink:href="#DejaVuSans-41"/>
     </g>
    </g>
   </g>
   <g id="text_35">
    <g clip-path="url(#p5b8cf10368)">
     <!-- nf -->
     <g transform="translate(903.171201 387.032034) scale(0.12 -0.12)">
      <use xlink:href="#DejaVuSans-6e"/>
      <use xlink:href="#DejaVuSans-66" transform="translate(63.378906 0)"/>
     </g>
    </g>
   </g>
   <g id="text_36">
    <g clip-path="url(#p5b8cf10368)">
     <!-- C -->
     <g transform="translate(806.771623 355.823486) scale(0.12 -0.12)">
      <use xlink:href="#DejaVuSans-43"/>
     </g>
    </g>
   </g>
   <g id="text_37">
    <g clip-path="url(#p5b8cf10368)">
     <!-- B -->
     <g transform="translate(549.569388 456.045465) scale(0.12 -0.12)">
      <defs>
       <path id="DejaVuSans-42" d="M 1259 2228 
L 1259 519 
L 2272 519 
Q 2781 519 3026 730 
Q 3272 941 3272 1375 
Q 3272 1813 3026 2020 
Q 2781 2228 2272 2228 
L 1259 2228 
z
M 1259 4147 
L 1259 2741 
L 2194 2741 
Q 2656 2741 2882 2914 
Q 3109 3088 3109 3444 
Q 3109 3797 2882 3972 
Q 2656 4147 2194 4147 
L 1259 4147 
z
M 628 4666 
L 2241 4666 
Q 2963 4666 3353 4366 
Q 3744 4066 3744 3513 
Q 3744 3084 3544 2831 
Q 3344 2578 2956 2516 
Q 3422 2416 3680 2098 
Q 3938 1781 3938 1306 
Q 3938 681 3513 340 
Q 3088 0 2303 0 
L 628 0 
L 628 4666 
z
" transform="scale(0.015625)"/>
      </defs>
      <use xlink:href="#DejaVuSans-42"/>
     </g>
    </g>
   </g>
   <g id="text_38">
    <g clip-path="url(#p5b8cf10368)">
     <!-- D -->
     <g transform="translate(953.69405 204.940668) scale(0.12 -0.12)">
      <defs>
       <path id="DejaVuSans-44" d="M 1259 4147 
L 1259 519 
L 2022 519 
Q 2988 519 3436 956 
Q 3884 1394 3884 2338 
Q 3884 3275 3436 3711 
Q 2988 4147 2022 4147 
L 1259 4147 
z
M 628 4666 
L 1925 4666 
Q 3281 4666 3915 4102 
Q 4550 3538 4550 2338 
Q 4550 1131 3912 565 
Q 3275 0 1925 0 
L 628 0 
L 628 4666 
z
" transform="scale(0.015625)"/>
      </defs>
      <use xlink:href="#DejaVuSans-44"/>
     </g>
    </g>
   </g>
   <g id="text_39">
    <!-- Group G2 - Central Whale: C -->
    <g transform="translate(670.742813 20.88) scale(0.12 -0.12)">
     <use xlink:href="#DejaVuSans-47"/>
     <use xlink:href="#DejaVuSans-72" transform="translate(77.490234 0)"/>
     <use xlink:href="#DejaVuSans-6f" transform="translate(116.353516 0)"/>
     <use xlink:href="#DejaVuSans-75" transform="translate(177.535156 0)"/>
     <use xlink:href="#DejaVuSans-70" transform="translate(240.914062 0)"/>
     <use xlink:href="#DejaVuSans-20" transform="translate(304.390625 0)"/>
     <use xlink:href="#DejaVuSans-47" transform="translate(336.177734 0)"/>
     <use xlink:href="#DejaVuSans-32" transform="translate(413.667969 0)"/>
     <use xlink:href="#DejaVuSans-20" transform="translate(477.291016 0)"/>
     <use xlink:href="#DejaVuSans-2d" transform="translate(509.078125 0)"/>
     <use xlink:href="#DejaVuSans-20" transform="translate(545.162109 0)"/>
     <use xlink:href="#DejaVuSans-43" transform="translate(576.949219 0)"/>
     <use xlink:href="#DejaVuSans-65" transform="translate(646.773438 0)"/>
     <use xlink:href="#DejaVuSans-6e" transform="translate(708.296875 0)"/>
     <use xlink:href="#DejaVuSans-74" transform="translate(771.675781 0)"/>
     <use xlink:href="#DejaVuSans-72" transform="translate(810.884766 0)"/>
     <use xlink:href="#DejaVuSans-61" transform="translate(851.998047 0)"/>
     <use xlink:href="#DejaVuSans-6c" transform="translate(913.277344 0)"/>
     <use xlink:href="#DejaVuSans-20" transform="translate(941.060547 0)"/>
     <use xlink:href="#DejaVuSans-57" transform="translate(972.847656 0)"/>
     <use xlink:href="#DejaVuSans-68" transform="translate(1071.724609 0)"/>
     <use xlink:href="#DejaVuSans-61" transform="translate(1135.103516 0)"/>
     <use xlink:href="#DejaVuSans-6c" transform="translate(1196.382812 0)"/>
     <use xlink:href="#DejaVuSans-65" transform="translate(1224.166016 0)"/>
     <use xlink:href="#DejaVuSans-3a" transform="translate(1285.689453 0)"/>
     <use xlink:href="#DejaVuSans-20" transform="translate(1319.380859 0)"/>
     <use xlink:href="#DejaVuSans-43" transform="translate(1351.167969 0)"/>
    </g>
   </g>
  </g>
  <g id="axes_3">
   <g id="patch_56">
    <path d="M 1150.072261 92.491377 
Q 1190.030865 138.819421 1220.861657 174.564671 
" clip-path="url(#pef65486d97)" style="fill: none; stroke: #808080; stroke-width: 12.5; stroke-linecap: round"/>
    <path d="M 1219.214588 168.061813 
L 1220.861657 174.564671 
L 1214.671129 171.980612 
z
" clip-path="url(#pef65486d97)" style="fill: #808080; stroke: #808080; stroke-width: 12.5; stroke-linecap: round"/>
   </g>
   <g id="patch_57">
    <path d="M 1138.997033 98.810045 
Q 1171.644132 195.596709 1201.43249 283.908256 
" clip-path="url(#pef65486d97)" style="fill: none; stroke: #808080; stroke-width: 8; stroke-linecap: round"/>
    <path d="M 1202.357429 277.264124 
L 1201.43249 283.908256 
L 1196.672148 279.181826 
z
" clip-path="url(#pef65486d97)" style="fill: #808080; stroke: #808080; stroke-width: 8; stroke-linecap: round"/>
   </g>
   <g id="patch_58">
    <path d="M 1150.68525 91.943325 
Q 1295.54729 251.720113 1439.282882 410.254477 
" clip-path="url(#pef65486d97)" style="fill: none; stroke: #808080; stroke-width: 1.5; stroke-linecap: round"/>
    <path d="M 1437.475299 403.794396 
L 1439.282882 410.254477 
L 1433.030268 407.824495 
z
" clip-path="url(#pef65486d97)" style="fill: #808080; stroke: #808080; stroke-width: 1.5; stroke-linecap: round"/>
   </g>
   <g id="patch_59">
    <path d="M 1122.098051 99.950554 
Q 1090.72252 262.697695 1060.193569 421.05356 
" clip-path="url(#pef65486d97)" style="fill: none; stroke: #808080; stroke-width: 4; stroke-linecap: round"/>
    <path d="M 1064.275133 415.729949 
L 1060.193569 421.05356 
L 1058.383619 414.594142 
z
" clip-path="url(#pef65486d97)" style="fill: #808080; stroke: #808080; stroke-width: 4; stroke-linecap: round"/>
   </g>
   <g id="patch_60">
    <path d="M 1229.991347 185.149643 
Q 1190.029588 138.817941 1170.149016 115.768387 
" clip-path="url(#pef65486d97)" style="fill: none; stroke: #808080; stroke-width: 27.5; stroke-linecap: round"/>
    <path d="M 1171.796086 122.271245 
L 1170.149016 115.768387 
L 1176.339544 118.352446 
z
" clip-path="url(#pef65486d97)" style="fill: #808080; stroke: #808080; stroke-width: 27.5; stroke-linecap: round"/>
   </g>
   <g id="patch_61">
    <path d="M 1294.59654 256.926641 
Q 1367.328273 334.374617 1429.727579 400.820164 
" clip-path="url(#pef65486d97)" style="fill: none; stroke: #808080; stroke-width: 13.5; stroke-linecap: round"/>
    <path d="M 1427.807059 394.392754 
L 1429.727579 400.820164 
L 1423.433338 398.500134 
z
" clip-path="url(#pef65486d97)" style="fill: #808080; stroke: #808080; stroke-width: 13.5; stroke-linecap: round"/>
   </g>
   <g id="patch_62">
    <path d="M 1229.262299 257.657089 
Q 1150.958717 344.85629 1078.257626 425.816534 
" clip-path="url(#pef65486d97)" style="fill: none; stroke: #808080; stroke-width: 7.5; stroke-linecap: round"/>
    <path d="M 1084.49856 423.356707 
L 1078.257626 425.816534 
L 1080.034325 419.347891 
z
" clip-path="url(#pef65486d97)" style="fill: #808080; stroke: #808080; stroke-width: 7.5; stroke-linecap: round"/>
   </g>
   <g id="patch_63">
    <path d="M 1246.126105 267.49263 
Q 1241.938711 279.932683 1259.508351 227.736202 
" clip-path="url(#pef65486d97)" style="fill: none; stroke: #808080; stroke-width: 61; stroke-linecap: round"/>
    <path d="M 1264.265704 223.006763 
L 1259.508351 227.736202 
L 1258.579211 221.092656 
z
" clip-path="url(#pef65486d97)" style="fill: #808080; stroke: #808080; stroke-width: 61; stroke-linecap: round"/>
   </g>
   <g id="patch_64">
    <path d="M 1177.370773 370.983541 
Q 1127.310769 404.178536 1097.75014 423.780311 
" clip-path="url(#pef65486d97)" style="fill: none; stroke: #808080; stroke-width: 22; stroke-linecap: round"/>
    <path d="M 1104.408578 422.964707 
L 1097.75014 423.780311 
L 1101.09272 417.964199 
z
" clip-path="url(#pef65486d97)" style="fill: #808080; stroke: #808080; stroke-width: 22; stroke-linecap: round"/>
   </g>
   <g id="patch_65">
    <path d="M 1237.751934 292.370901 
Q 1241.938827 279.932339 1234.533857 301.931274 
" clip-path="url(#pef65486d97)" style="fill: none; stroke: #808080; stroke-width: 32.5; stroke-linecap: round"/>
    <path d="M 1229.776504 306.660713 
L 1234.533857 301.931274 
L 1235.462997 308.57482 
z
" clip-path="url(#pef65486d97)" style="fill: #808080; stroke: #808080; stroke-width: 32.5; stroke-linecap: round"/>
   </g>
   <g id="patch_66">
    <path d="M 1204.2908 292.382095 
Q 1171.643829 195.59581 1146.143709 119.997317 
" clip-path="url(#pef65486d97)" style="fill: none; stroke: #808080; stroke-width: 20; stroke-linecap: round"/>
    <path d="M 1145.21877 126.641449 
L 1146.143709 119.997317 
L 1150.904051 124.723748 
z
" clip-path="url(#pef65486d97)" style="fill: #808080; stroke: #808080; stroke-width: 20; stroke-linecap: round"/>
   </g>
   <g id="patch_67">
    <path d="M 1270.058585 360.520534 
Q 1351.638198 391.29447 1413.342285 414.570844 
" clip-path="url(#pef65486d97)" style="fill: none; stroke: #808080; stroke-width: 19; stroke-linecap: round"/>
    <path d="M 1408.787274 409.646224 
L 1413.342285 414.570844 
L 1406.669583 415.26008 
z
" clip-path="url(#pef65486d97)" style="fill: #808080; stroke: #808080; stroke-width: 19; stroke-linecap: round"/>
   </g>
   <g id="patch_68">
    <path d="M 1081.841773 451.290411 
Q 1256.67052 442.196158 1427.591431 433.305182 
" clip-path="url(#pef65486d97)" style="fill: none; stroke: #808080; stroke-width: 3.5; stroke-linecap: round"/>
    <path d="M 1421.443688 430.62092 
L 1427.591431 433.305182 
L 1421.755375 436.612819 
z
" clip-path="url(#pef65486d97)" style="fill: #808080; stroke: #808080; stroke-width: 3.5; stroke-linecap: round"/>
   </g>
   <g id="patch_69">
    <path d="M 1077.250097 437.373974 
Q 1127.311998 404.177721 1167.124212 377.778078 
" clip-path="url(#pef65486d97)" style="fill: none; stroke: #808080; stroke-width: 11; stroke-linecap: round"/>
    <path d="M 1160.465774 378.593682 
L 1167.124212 377.778078 
L 1163.781632 383.59419 
z
" clip-path="url(#pef65486d97)" style="fill: #808080; stroke: #808080; stroke-width: 11; stroke-linecap: round"/>
   </g>
   <g id="patch_70">
    <path d="M 1072.657347 432.053029 
Q 1150.960444 344.854367 1228.516543 258.487566 
" clip-path="url(#pef65486d97)" style="fill: none; stroke: #808080; stroke-linecap: round"/>
    <path d="M 1222.275609 260.947393 
L 1228.516543 258.487566 
L 1226.739844 264.956209 
z
" clip-path="url(#pef65486d97)" style="fill: #808080; stroke: #808080; stroke-linecap: round"/>
   </g>
   <g id="patch_71">
    <path d="M 1431.50155 433.101786 
Q 1256.671272 442.196118 1084.632304 451.145253 
" clip-path="url(#pef65486d97)" style="fill: none; stroke: #808080; stroke-width: 2.5; stroke-linecap: round"/>
    <path d="M 1090.780047 453.829515 
L 1084.632304 451.145253 
L 1090.46836 447.837616 
z
" clip-path="url(#pef65486d97)" style="fill: #808080; stroke: #808080; stroke-width: 2.5; stroke-linecap: round"/>
   </g>
   <g id="patch_72">
    <path d="M 1433.222224 422.07007 
Q 1351.640526 391.295348 1279.99659 364.269407 
" clip-path="url(#pef65486d97)" style="fill: none; stroke: #808080; stroke-width: 9.5; stroke-linecap: round"/>
    <path d="M 1284.551601 369.194026 
L 1279.99659 364.269407 
L 1286.669293 363.58017 
z
" clip-path="url(#pef65486d97)" style="fill: #808080; stroke: #808080; stroke-width: 9.5; stroke-linecap: round"/>
   </g>
   <g id="text_40">
    <g id="patch_73">
     <path d="M 1185.877772 144.806341 
L 1193.357779 153.478668 
Q 1195.121238 155.523224 1197.165795 153.759765 
L 1203.761619 148.070771 
Q 1205.806175 146.307312 1204.042716 144.262756 
L 1196.562709 135.590429 
Q 1194.79925 133.545872 1192.754694 135.309331 
L 1186.158869 140.998325 
Q 1184.114313 142.761784 1185.877772 144.806341 
z
" clip-path="url(#pef65486d97)" style="fill: #ffffff; stroke: #ffffff; stroke-linejoin: miter"/>
    </g>
    <g clip-path="url(#pef65486d97)">
     <!-- 25 -->
     <g transform="translate(1189.339675 141.8204) rotate(-310.778242) scale(0.09 -0.09)">
      <use xlink:href="#DejaVuSans-32"/>
      <use xlink:href="#DejaVuSans-35" transform="translate(63.623047 0)"/>
     </g>
    </g>
   </g>
   <g id="text_41">
    <g id="patch_74">
     <path d="M 1166.193887 201.512523 
L 1169.8543 212.364303 
Q 1170.717266 214.92268 1173.275642 214.059714 
L 1181.529071 211.275751 
Q 1184.087448 210.412785 1183.224482 207.854409 
L 1179.564069 197.002628 
Q 1178.701104 194.444252 1176.142727 195.307218 
L 1167.889298 198.091181 
Q 1165.330922 198.954146 1166.193887 201.512523 
z
" clip-path="url(#pef65486d97)" style="fill: #ffffff; stroke: #ffffff; stroke-linejoin: miter"/>
    </g>
    <g clip-path="url(#pef65486d97)">
     <!-- 16 -->
     <g transform="translate(1170.525805 200.051324) rotate(-288.63976) scale(0.09 -0.09)">
      <use xlink:href="#DejaVuSans-31"/>
      <use xlink:href="#DejaVuSans-36" transform="translate(63.623047 0)"/>
     </g>
    </g>
   </g>
   <g id="text_42">
    <g id="patch_75">
     <path d="M 1286.400834 252.13565 
L 1290.247059 256.377876 
Q 1292.060604 258.37814 1294.060868 256.564596 
L 1300.513803 250.714026 
Q 1302.514067 248.900481 1300.700522 246.900217 
L 1296.854297 242.65799 
Q 1295.040752 240.657726 1293.040488 242.471271 
L 1286.587553 248.321841 
Q 1284.587289 250.135386 1286.400834 252.13565 
z
" clip-path="url(#pef65486d97)" style="fill: #ffffff; stroke: #ffffff; stroke-linejoin: miter"/>
    </g>
    <g clip-path="url(#pef65486d97)">
     <!-- 3 -->
     <g transform="translate(1289.787739 249.064903) rotate(-312.197106) scale(0.09 -0.09)">
      <use xlink:href="#DejaVuSans-33"/>
     </g>
    </g>
   </g>
   <g id="text_43">
    <g id="patch_76">
     <path d="M 1097.620129 264.188769 
L 1098.704115 258.566055 
Q 1099.215229 255.914873 1096.564047 255.40376 
L 1088.011225 253.754887 
Q 1085.360044 253.243774 1084.84893 255.894955 
L 1083.764944 261.517669 
Q 1083.253831 264.168851 1085.905012 264.679964 
L 1094.457834 266.328837 
Q 1097.109016 266.83995 1097.620129 264.188769 
z
" clip-path="url(#pef65486d97)" style="fill: #ffffff; stroke: #ffffff; stroke-linejoin: miter"/>
    </g>
    <g clip-path="url(#pef65486d97)">
     <!-- 8 -->
     <g transform="translate(1093.131071 263.323337) rotate(-79.087993) scale(0.09 -0.09)">
      <use xlink:href="#DejaVuSans-38"/>
     </g>
    </g>
   </g>
   <g id="text_44">
    <g id="patch_77">
     <path d="M 1185.874653 144.802725 
L 1193.35466 153.475052 
Q 1195.118119 155.519608 1197.162676 153.756149 
L 1203.7585 148.067155 
Q 1205.803057 146.303696 1204.039597 144.25914 
L 1196.559591 135.586813 
Q 1194.796131 133.542256 1192.751575 135.305715 
L 1186.15575 140.994709 
Q 1184.111194 142.758168 1185.874653 144.802725 
z
" clip-path="url(#pef65486d97)" style="fill: #ffffff; stroke: #ffffff; stroke-linejoin: miter"/>
    </g>
    <g clip-path="url(#pef65486d97)">
     <!-- 55 -->
     <g transform="translate(1189.336556 141.816784) rotate(-310.778242) scale(0.09 -0.09)">
      <use xlink:href="#DejaVuSans-35"/>
      <use xlink:href="#DejaVuSans-35" transform="translate(63.623047 0)"/>
     </g>
    </g>
   </g>
   <g id="text_45">
    <g id="patch_78">
     <path d="M 1351.062564 327.360235 
L 1358.902525 335.708574 
Q 1360.750846 337.676748 1362.71902 335.828427 
L 1369.068432 329.865667 
Q 1371.036606 328.017346 1369.188285 326.049172 
L 1361.348324 317.700833 
Q 1359.500003 315.732659 1357.531829 317.58098 
L 1351.182417 323.54374 
Q 1349.214243 325.392061 1351.062564 327.360235 
z
" clip-path="url(#pef65486d97)" style="fill: #ffffff; stroke: #ffffff; stroke-linejoin: miter"/>
    </g>
    <g clip-path="url(#pef65486d97)">
     <!-- 27 -->
     <g transform="translate(1354.395134 324.230604) rotate(-313.201275) scale(0.09 -0.09)">
      <use xlink:href="#DejaVuSans-32"/>
      <use xlink:href="#DejaVuSans-37" transform="translate(63.623047 0)"/>
     </g>
    </g>
   </g>
   <g id="text_46">
    <g id="patch_79">
     <path d="M 1159.235617 346.19856 
L 1166.887445 337.677452 
Q 1168.691412 335.668547 1166.682506 333.864579 
L 1160.201693 328.044906 
Q 1158.192787 326.240938 1156.38882 328.249844 
L 1148.736992 336.770952 
Q 1146.933025 338.779858 1148.94193 340.583825 
L 1155.422744 346.403499 
Q 1157.431649 348.207466 1159.235617 346.19856 
z
" clip-path="url(#pef65486d97)" style="fill: #ffffff; stroke: #ffffff; stroke-linejoin: miter"/>
    </g>
    <g clip-path="url(#pef65486d97)">
     <!-- 15 -->
     <g transform="translate(1155.834079 343.14403) rotate(-48.076634) scale(0.09 -0.09)">
      <use xlink:href="#DejaVuSans-31"/>
      <use xlink:href="#DejaVuSans-35" transform="translate(63.623047 0)"/>
     </g>
    </g>
   </g>
   <g id="text_47">
    <g id="patch_80">
     <path d="M 1245.231833 292.26461 
L 1250.71216 275.983472 
Q 1251.573507 273.42455 1249.014586 272.563202 
L 1240.759398 269.784458 
Q 1238.200477 268.92311 1237.339129 271.482032 
L 1231.858802 287.76317 
Q 1230.997454 290.322092 1233.556376 291.18344 
L 1241.811564 293.962184 
Q 1244.370485 294.823532 1245.231833 292.26461 
z
" clip-path="url(#pef65486d97)" style="fill: #ffffff; stroke: #ffffff; stroke-linejoin: miter"/>
    </g>
    <g clip-path="url(#pef65486d97)">
     <!-- 122 -->
     <g transform="translate(1240.898993 290.806151) rotate(-71.396467) scale(0.09 -0.09)">
      <use xlink:href="#DejaVuSans-31"/>
      <use xlink:href="#DejaVuSans-32" transform="translate(63.623047 0)"/>
      <use xlink:href="#DejaVuSans-32" transform="translate(127.246094 0)"/>
     </g>
    </g>
   </g>
   <g id="text_48">
    <g id="patch_81">
     <path d="M 1136.688079 406.425729 
L 1146.2328 400.096586 
Q 1148.483029 398.604449 1146.990893 396.354221 
L 1142.1772 389.094888 
Q 1140.685064 386.84466 1138.434835 388.336796 
L 1128.890114 394.665939 
Q 1126.639885 396.158075 1128.132021 398.408304 
L 1132.945714 405.667636 
Q 1134.43785 407.917865 1136.688079 406.425729 
z
" clip-path="url(#pef65486d97)" style="fill: #ffffff; stroke: #ffffff; stroke-linejoin: miter"/>
    </g>
    <g clip-path="url(#pef65486d97)">
     <!-- 44 -->
     <g transform="translate(1134.161551 402.615576) rotate(-33.548522) scale(0.09 -0.09)">
      <use xlink:href="#DejaVuSans-34"/>
      <use xlink:href="#DejaVuSans-34" transform="translate(63.623047 0)"/>
     </g>
    </g>
   </g>
   <g id="text_49">
    <g id="patch_82">
     <path d="M 1246.144761 289.552453 
L 1249.798312 278.69836 
Q 1250.65966 276.139439 1248.100739 275.278091 
L 1239.845551 272.499347 
Q 1237.286629 271.637999 1236.425281 274.19692 
L 1232.77173 285.051013 
Q 1231.910383 287.609934 1234.469304 288.471282 
L 1242.724492 291.250026 
Q 1245.283413 292.111374 1246.144761 289.552453 
z
" clip-path="url(#pef65486d97)" style="fill: #ffffff; stroke: #ffffff; stroke-linejoin: miter"/>
    </g>
    <g clip-path="url(#pef65486d97)">
     <!-- 65 -->
     <g transform="translate(1241.811921 288.093993) rotate(-71.396467) scale(0.09 -0.09)">
      <use xlink:href="#DejaVuSans-36"/>
      <use xlink:href="#DejaVuSans-35" transform="translate(63.623047 0)"/>
     </g>
    </g>
   </g>
   <g id="text_50">
    <g id="patch_83">
     <path d="M 1166.196305 201.519689 
L 1169.856717 212.371469 
Q 1170.719683 214.929846 1173.278059 214.06688 
L 1181.531489 211.282917 
Q 1184.089865 210.419951 1183.226899 207.861575 
L 1179.566487 197.009794 
Q 1178.703521 194.451418 1176.145144 195.314384 
L 1167.891715 198.098347 
Q 1165.333339 198.961313 1166.196305 201.519689 
z
" clip-path="url(#pef65486d97)" style="fill: #ffffff; stroke: #ffffff; stroke-linejoin: miter"/>
    </g>
    <g clip-path="url(#pef65486d97)">
     <!-- 40 -->
     <g transform="translate(1170.528222 200.05849) rotate(-288.63976) scale(0.09 -0.09)">
      <use xlink:href="#DejaVuSans-34"/>
      <use xlink:href="#DejaVuSans-30" transform="translate(63.623047 0)"/>
     </g>
    </g>
   </g>
   <g id="text_51">
    <g id="patch_84">
     <path d="M 1332.029271 391.437915 
L 1342.744719 395.480058 
Q 1345.270955 396.43302 1346.223916 393.906784 
L 1349.298208 385.757044 
Q 1350.251169 383.230808 1347.724934 382.277847 
L 1337.009486 378.235704 
Q 1334.48325 377.282742 1333.530289 379.808978 
L 1330.455997 387.958718 
Q 1329.503036 390.484954 1332.029271 391.437915 
z
" clip-path="url(#pef65486d97)" style="fill: #ffffff; stroke: #ffffff; stroke-linejoin: miter"/>
    </g>
    <g clip-path="url(#pef65486d97)">
     <!-- 38 -->
     <g transform="translate(1333.642853 387.160419) rotate(-339.33223) scale(0.09 -0.09)">
      <use xlink:href="#DejaVuSans-33"/>
      <use xlink:href="#DejaVuSans-38" transform="translate(63.623047 0)"/>
     </g>
    </g>
   </g>
   <g id="text_52">
    <g id="patch_85">
     <path d="M 1253.905978 449.404659 
L 1259.624497 449.107192 
Q 1262.320851 448.966933 1262.180592 446.270579 
L 1261.72811 437.572027 
Q 1261.587851 434.875672 1258.891497 435.015932 
L 1253.172978 435.313398 
Q 1250.476624 435.453657 1250.616883 438.150011 
L 1251.069365 446.848563 
Q 1251.209624 449.544918 1253.905978 449.404659 
z
" clip-path="url(#pef65486d97)" style="fill: #ffffff; stroke: #ffffff; stroke-linejoin: miter"/>
    </g>
    <g clip-path="url(#pef65486d97)">
     <!-- 7 -->
     <g transform="translate(1253.668488 444.839113) rotate(-2.977732) scale(0.09 -0.09)">
      <use xlink:href="#DejaVuSans-37"/>
     </g>
    </g>
   </g>
   <g id="text_53">
    <g id="patch_86">
     <path d="M 1136.688075 406.425732 
L 1146.232796 400.096588 
Q 1148.483025 398.604452 1146.990889 396.354223 
L 1142.177196 389.094891 
Q 1140.68506 386.844662 1138.434831 388.336798 
L 1128.89011 394.665942 
Q 1126.639881 396.158078 1128.132017 398.408307 
L 1132.945711 405.667639 
Q 1134.437847 407.917868 1136.688075 406.425732 
z
" clip-path="url(#pef65486d97)" style="fill: #ffffff; stroke: #ffffff; stroke-linejoin: miter"/>
    </g>
    <g clip-path="url(#pef65486d97)">
     <!-- 22 -->
     <g transform="translate(1134.161547 402.615579) rotate(-33.548522) scale(0.09 -0.09)">
      <use xlink:href="#DejaVuSans-32"/>
      <use xlink:href="#DejaVuSans-32" transform="translate(63.623047 0)"/>
     </g>
    </g>
   </g>
   <g id="text_54">
    <g id="patch_87">
     <path d="M 1161.14363 344.073789 
L 1164.969544 339.813235 
Q 1166.773511 337.804329 1164.764605 336.000362 
L 1158.283792 330.180688 
Q 1156.274886 328.376721 1154.470919 330.385627 
L 1150.645005 334.646181 
Q 1148.841038 336.655086 1150.849944 338.459054 
L 1157.330757 344.278727 
Q 1159.339663 346.082695 1161.14363 344.073789 
z
" clip-path="url(#pef65486d97)" style="fill: #ffffff; stroke: #ffffff; stroke-linejoin: miter"/>
    </g>
    <g clip-path="url(#pef65486d97)">
     <!-- 2 -->
     <g transform="translate(1157.742092 341.019259) rotate(-48.076634) scale(0.09 -0.09)">
      <use xlink:href="#DejaVuSans-32"/>
     </g>
    </g>
   </g>
   <g id="text_55">
    <g id="patch_88">
     <path d="M 1253.908503 449.404527 
L 1259.627022 449.107061 
Q 1262.323376 448.966802 1262.183117 446.270447 
L 1261.730635 437.571896 
Q 1261.590376 434.875541 1258.894022 435.0158 
L 1253.175503 435.313267 
Q 1250.479149 435.453526 1250.619408 438.14988 
L 1251.07189 446.848432 
Q 1251.212149 449.544786 1253.908503 449.404527 
z
" clip-path="url(#pef65486d97)" style="fill: #ffffff; stroke: #ffffff; stroke-linejoin: miter"/>
    </g>
    <g clip-path="url(#pef65486d97)">
     <!-- 5 -->
     <g transform="translate(1253.671012 444.838981) rotate(-2.977732) scale(0.09 -0.09)">
      <use xlink:href="#DejaVuSans-35"/>
     </g>
    </g>
   </g>
   <g id="text_56">
    <g id="patch_89">
     <path d="M 1332.026075 391.436709 
L 1342.741524 395.478853 
Q 1345.267759 396.431814 1346.22072 393.905579 
L 1349.295013 385.755838 
Q 1350.247974 383.229603 1347.721738 382.276642 
L 1337.00629 378.234498 
Q 1334.480055 377.281537 1333.527094 379.807772 
L 1330.452801 387.957513 
Q 1329.49984 390.483748 1332.026075 391.436709 
z
" clip-path="url(#pef65486d97)" style="fill: #ffffff; stroke: #ffffff; stroke-linejoin: miter"/>
    </g>
    <g clip-path="url(#pef65486d97)">
     <!-- 19 -->
     <g transform="translate(1333.639657 387.159214) rotate(-339.33223) scale(0.09 -0.09)">
      <use xlink:href="#DejaVuSans-31"/>
      <use xlink:href="#DejaVuSans-39" transform="translate(63.623047 0)"/>
     </g>
    </g>
   </g>
   <g id="PathCollection_3">
    <path d="M 1128.383827 100.549701 
C 1137.189608 100.549701 1145.635913 97.051127 1151.862541 90.824499 
C 1158.089168 84.597871 1161.587742 76.151566 1161.587742 67.345785 
C 1161.587742 58.540004 1158.089168 50.093699 1151.862541 43.867071 
C 1145.635913 37.640444 1137.189608 34.14187 1128.383827 34.14187 
C 1119.578046 34.14187 1111.131741 37.640444 1104.905113 43.867071 
C 1098.678485 50.093699 1095.179911 58.540004 1095.179911 67.345785 
C 1095.179911 76.151566 1098.678485 84.597871 1104.905113 90.824499 
C 1111.131741 97.051127 1119.578046 100.549701 1128.383827 100.549701 
z
" clip-path="url(#pef65486d97)" style="fill: #add8e6; stroke: #add8e6"/>
    <path d="M 1261.533542 270.015658 
C 1274.341781 270.015658 1286.627152 264.92689 1295.683945 255.870098 
C 1304.740738 246.813305 1309.829505 234.527934 1309.829505 221.719695 
C 1309.829505 208.911456 1304.740738 196.626085 1295.683945 187.569292 
C 1286.627152 178.5125 1274.341781 173.423733 1261.533542 173.423733 
C 1248.725303 173.423733 1236.439932 178.5125 1227.38314 187.569292 
C 1218.326347 196.626085 1213.23758 208.911456 1213.23758 221.719695 
C 1213.23758 234.527934 1218.326347 246.813305 1227.38314 255.870098 
C 1236.439932 264.92689 1248.725303 270.015658 1261.533542 270.015658 
z
" clip-path="url(#pef65486d97)" style="fill: #add8e6; stroke: #add8e6"/>
    <path d="M 1221.03696 394.42106 
C 1234.931679 394.42106 1248.259177 388.90063 1258.084227 379.07558 
C 1267.909277 369.250529 1273.429707 355.923031 1273.429707 342.028312 
C 1273.429707 328.133593 1267.909277 314.806095 1258.084227 304.981045 
C 1248.259177 295.155995 1234.931679 289.635565 1221.03696 289.635565 
C 1207.142241 289.635565 1193.814743 295.155995 1183.989693 304.981045 
C 1174.164643 314.806095 1168.644212 328.133593 1168.644212 342.028312 
C 1168.644212 355.923031 1174.164643 369.250529 1183.989693 379.07558 
C 1193.814743 388.90063 1207.142241 394.42106 1221.03696 394.42106 
z
" clip-path="url(#pef65486d97)" style="fill: #ffa500; stroke: #ffa500"/>
    <path d="M 1054.08595 480.528099 
C 1061.456975 480.528099 1068.527093 477.59956 1073.739194 472.387459 
C 1078.951296 467.175358 1081.879835 460.105239 1081.879835 452.734215 
C 1081.879835 445.363191 1078.951296 438.293072 1073.739194 433.080971 
C 1068.527093 427.86887 1061.456975 424.940331 1054.08595 424.940331 
C 1046.714926 424.940331 1039.644808 427.86887 1034.432706 433.080971 
C 1029.220605 438.293072 1026.292066 445.363191 1026.292066 452.734215 
C 1026.292066 460.105239 1029.220605 467.175358 1034.432706 472.387459 
C 1039.644808 477.59956 1046.714926 480.528099 1054.08595 480.528099 
z
" clip-path="url(#pef65486d97)" style="fill: #add8e6; stroke: #add8e6"/>
    <path d="M 1458.71405 458.935097 
C 1465.94053 458.935097 1472.872005 456.063986 1477.981898 450.954093 
C 1483.091792 445.8442 1485.962903 438.912724 1485.962903 431.686244 
C 1485.962903 424.459764 1483.091792 417.528288 1477.981898 412.418395 
C 1472.872005 407.308502 1465.94053 404.437391 1458.71405 404.437391 
C 1451.487569 404.437391 1444.556094 407.308502 1439.446201 412.418395 
C 1434.336307 417.528288 1431.465196 424.459764 1431.465196 431.686244 
C 1431.465196 438.912724 1434.336307 445.8442 1439.446201 450.954093 
C 1444.556094 456.063986 1451.487569 458.935097 1458.71405 458.935097 
z
" clip-path="url(#pef65486d97)" style="fill: #add8e6; stroke: #add8e6"/>
   </g>
   <g id="text_57">
    <g clip-path="url(#pef65486d97)">
     <!-- C -->
     <g transform="translate(1124.194139 70.657035) scale(0.12 -0.12)">
      <use xlink:href="#DejaVuSans-43"/>
     </g>
    </g>
   </g>
   <g id="text_58">
    <g clip-path="url(#pef65486d97)">
     <!-- D -->
     <g transform="translate(1256.913542 225.030945) scale(0.12 -0.12)">
      <use xlink:href="#DejaVuSans-44"/>
     </g>
    </g>
   </g>
   <g id="text_59">
    <g clip-path="url(#pef65486d97)">
     <!-- nf -->
     <g transform="translate(1215.122272 345.339562) scale(0.12 -0.12)">
      <use xlink:href="#DejaVuSans-6e"/>
      <use xlink:href="#DejaVuSans-66" transform="translate(63.378906 0)"/>
     </g>
    </g>
   </g>
   <g id="text_60">
    <g clip-path="url(#pef65486d97)">
     <!-- A -->
     <g transform="translate(1049.981575 456.045465) scale(0.12 -0.12)">
      <use xlink:href="#DejaVuSans-41"/>
     </g>
    </g>
   </g>
   <g id="text_61">
    <g clip-path="url(#pef65486d97)">
     <!-- F -->
     <g transform="translate(1455.263112 434.997494) scale(0.12 -0.12)">
      <use xlink:href="#DejaVuSans-46"/>
     </g>
    </g>
   </g>
   <g id="text_62">
    <!-- Group G3 - Central Whale: nf -->
    <g transform="translate(1169.417813 20.88) scale(0.12 -0.12)">
     <use xlink:href="#DejaVuSans-47"/>
     <use xlink:href="#DejaVuSans-72" transform="translate(77.490234 0)"/>
     <use xlink:href="#DejaVuSans-6f" transform="translate(116.353516 0)"/>
     <use xlink:href="#DejaVuSans-75" transform="translate(177.535156 0)"/>
     <use xlink:href="#DejaVuSans-70" transform="translate(240.914062 0)"/>
     <use xlink:href="#DejaVuSans-20" transform="translate(304.390625 0)"/>
     <use xlink:href="#DejaVuSans-47" transform="translate(336.177734 0)"/>
     <use xlink:href="#DejaVuSans-33" transform="translate(413.667969 0)"/>
     <use xlink:href="#DejaVuSans-20" transform="translate(477.291016 0)"/>
     <use xlink:href="#DejaVuSans-2d" transform="translate(509.078125 0)"/>
     <use xlink:href="#DejaVuSans-20" transform="translate(545.162109 0)"/>
     <use xlink:href="#DejaVuSans-43" transform="translate(576.949219 0)"/>
     <use xlink:href="#DejaVuSans-65" transform="translate(646.773438 0)"/>
     <use xlink:href="#DejaVuSans-6e" transform="translate(708.296875 0)"/>
     <use xlink:href="#DejaVuSans-74" transform="translate(771.675781 0)"/>
     <use xlink:href="#DejaVuSans-72" transform="translate(810.884766 0)"/>
     <use xlink:href="#DejaVuSans-61" transform="translate(851.998047 0)"/>
     <use xlink:href="#DejaVuSans-6c" transform="translate(913.277344 0)"/>
     <use xlink:href="#DejaVuSans-20" transform="translate(941.060547 0)"/>
     <use xlink:href="#DejaVuSans-57" transform="translate(972.847656 0)"/>
     <use xlink:href="#DejaVuSans-68" transform="translate(1071.724609 0)"/>
     <use xlink:href="#DejaVuSans-61" transform="translate(1135.103516 0)"/>
     <use xlink:href="#DejaVuSans-6c" transform="translate(1196.382812 0)"/>
     <use xlink:href="#DejaVuSans-65" transform="translate(1224.166016 0)"/>
     <use xlink:href="#DejaVuSans-3a" transform="translate(1285.689453 0)"/>
     <use xlink:href="#DejaVuSans-20" transform="translate(1319.380859 0)"/>
     <use xlink:href="#DejaVuSans-6e" transform="translate(1351.167969 0)"/>
     <use xlink:href="#DejaVuSans-66" transform="translate(1414.546875 0)"/>
    </g>
   </g>
  </g>
 </g>
 <defs>
  <clipPath id="p7c1b64b3c2">
   <rect x="10.8" y="26.88" width="489.6" height="466.32"/>
  </clipPath>
  <clipPath id="p5b8cf10368">
   <rect x="511.2" y="26.88" width="489.6" height="466.32"/>
  </clipPath>
  <clipPath id="pef65486d97">
   <rect x="1011.6" y="26.88" width="489.6" height="466.32"/>
  </clipPath>
 </defs>
</svg>
